G04 #@! TF.GenerationSoftware,KiCad,Pcbnew,(5.1.0-0)*
G04 #@! TF.CreationDate,2019-04-24T12:09:54-04:00*
G04 #@! TF.ProjectId,TR19-COMP-PD_rev2,54523139-2d43-44f4-9d50-2d50445f7265,rev?*
G04 #@! TF.SameCoordinates,Original*
G04 #@! TF.FileFunction,Legend,Top*
G04 #@! TF.FilePolarity,Positive*
%FSLAX46Y46*%
G04 Gerber Fmt 4.6, Leading zero omitted, Abs format (unit mm)*
G04 Created by KiCad (PCBNEW (5.1.0-0)) date 2019-04-24 12:09:54*
%MOMM*%
%LPD*%
G04 APERTURE LIST*
%ADD10C,0.150000*%
%ADD11C,0.127000*%
%ADD12C,0.381000*%
%ADD13C,0.120000*%
%ADD14C,0.304800*%
G04 APERTURE END LIST*
D10*
X109907142Y-110827380D02*
X110478571Y-110827380D01*
X110192857Y-111827380D02*
X110192857Y-110827380D01*
X111383333Y-111827380D02*
X111050000Y-111351190D01*
X110811904Y-111827380D02*
X110811904Y-110827380D01*
X111192857Y-110827380D01*
X111288095Y-110875000D01*
X111335714Y-110922619D01*
X111383333Y-111017857D01*
X111383333Y-111160714D01*
X111335714Y-111255952D01*
X111288095Y-111303571D01*
X111192857Y-111351190D01*
X110811904Y-111351190D01*
X112907142Y-111303571D02*
X113050000Y-111351190D01*
X113097619Y-111398809D01*
X113145238Y-111494047D01*
X113145238Y-111636904D01*
X113097619Y-111732142D01*
X113050000Y-111779761D01*
X112954761Y-111827380D01*
X112573809Y-111827380D01*
X112573809Y-110827380D01*
X112907142Y-110827380D01*
X113002380Y-110875000D01*
X113050000Y-110922619D01*
X113097619Y-111017857D01*
X113097619Y-111113095D01*
X113050000Y-111208333D01*
X113002380Y-111255952D01*
X112907142Y-111303571D01*
X112573809Y-111303571D01*
X114002380Y-111827380D02*
X114002380Y-111303571D01*
X113954761Y-111208333D01*
X113859523Y-111160714D01*
X113669047Y-111160714D01*
X113573809Y-111208333D01*
X114002380Y-111779761D02*
X113907142Y-111827380D01*
X113669047Y-111827380D01*
X113573809Y-111779761D01*
X113526190Y-111684523D01*
X113526190Y-111589285D01*
X113573809Y-111494047D01*
X113669047Y-111446428D01*
X113907142Y-111446428D01*
X114002380Y-111398809D01*
X114478571Y-111160714D02*
X114478571Y-112017857D01*
X114430952Y-112113095D01*
X114335714Y-112160714D01*
X114288095Y-112160714D01*
X114478571Y-110827380D02*
X114430952Y-110875000D01*
X114478571Y-110922619D01*
X114526190Y-110875000D01*
X114478571Y-110827380D01*
X114478571Y-110922619D01*
X115383333Y-111827380D02*
X115383333Y-111303571D01*
X115335714Y-111208333D01*
X115240476Y-111160714D01*
X115050000Y-111160714D01*
X114954761Y-111208333D01*
X115383333Y-111779761D02*
X115288095Y-111827380D01*
X115050000Y-111827380D01*
X114954761Y-111779761D01*
X114907142Y-111684523D01*
X114907142Y-111589285D01*
X114954761Y-111494047D01*
X115050000Y-111446428D01*
X115288095Y-111446428D01*
X115383333Y-111398809D01*
X117145238Y-111827380D02*
X116573809Y-111827380D01*
X116859523Y-111827380D02*
X116859523Y-110827380D01*
X116764285Y-110970238D01*
X116669047Y-111065476D01*
X116573809Y-111113095D01*
X117621428Y-111827380D02*
X117811904Y-111827380D01*
X117907142Y-111779761D01*
X117954761Y-111732142D01*
X118050000Y-111589285D01*
X118097619Y-111398809D01*
X118097619Y-111017857D01*
X118050000Y-110922619D01*
X118002380Y-110875000D01*
X117907142Y-110827380D01*
X117716666Y-110827380D01*
X117621428Y-110875000D01*
X117573809Y-110922619D01*
X117526190Y-111017857D01*
X117526190Y-111255952D01*
X117573809Y-111351190D01*
X117621428Y-111398809D01*
X117716666Y-111446428D01*
X117907142Y-111446428D01*
X118002380Y-111398809D01*
X118050000Y-111351190D01*
X118097619Y-111255952D01*
X108930952Y-113477380D02*
X108930952Y-112477380D01*
X109169047Y-112477380D01*
X109311904Y-112525000D01*
X109407142Y-112620238D01*
X109454761Y-112715476D01*
X109502380Y-112905952D01*
X109502380Y-113048809D01*
X109454761Y-113239285D01*
X109407142Y-113334523D01*
X109311904Y-113429761D01*
X109169047Y-113477380D01*
X108930952Y-113477380D01*
X110359523Y-112810714D02*
X110359523Y-113477380D01*
X109930952Y-112810714D02*
X109930952Y-113334523D01*
X109978571Y-113429761D01*
X110073809Y-113477380D01*
X110216666Y-113477380D01*
X110311904Y-113429761D01*
X110359523Y-113382142D01*
X111216666Y-113429761D02*
X111121428Y-113477380D01*
X110930952Y-113477380D01*
X110835714Y-113429761D01*
X110788095Y-113334523D01*
X110788095Y-112953571D01*
X110835714Y-112858333D01*
X110930952Y-112810714D01*
X111121428Y-112810714D01*
X111216666Y-112858333D01*
X111264285Y-112953571D01*
X111264285Y-113048809D01*
X110788095Y-113144047D01*
X112407142Y-113429761D02*
X112550000Y-113477380D01*
X112788095Y-113477380D01*
X112883333Y-113429761D01*
X112930952Y-113382142D01*
X112978571Y-113286904D01*
X112978571Y-113191666D01*
X112930952Y-113096428D01*
X112883333Y-113048809D01*
X112788095Y-113001190D01*
X112597619Y-112953571D01*
X112502380Y-112905952D01*
X112454761Y-112858333D01*
X112407142Y-112763095D01*
X112407142Y-112667857D01*
X112454761Y-112572619D01*
X112502380Y-112525000D01*
X112597619Y-112477380D01*
X112835714Y-112477380D01*
X112978571Y-112525000D01*
X113407142Y-113477380D02*
X113407142Y-112477380D01*
X113835714Y-113477380D02*
X113835714Y-112953571D01*
X113788095Y-112858333D01*
X113692857Y-112810714D01*
X113550000Y-112810714D01*
X113454761Y-112858333D01*
X113407142Y-112905952D01*
X114311904Y-113477380D02*
X114311904Y-112810714D01*
X114311904Y-112477380D02*
X114264285Y-112525000D01*
X114311904Y-112572619D01*
X114359523Y-112525000D01*
X114311904Y-112477380D01*
X114311904Y-112572619D01*
X115169047Y-113429761D02*
X115073809Y-113477380D01*
X114883333Y-113477380D01*
X114788095Y-113429761D01*
X114740476Y-113334523D01*
X114740476Y-112953571D01*
X114788095Y-112858333D01*
X114883333Y-112810714D01*
X115073809Y-112810714D01*
X115169047Y-112858333D01*
X115216666Y-112953571D01*
X115216666Y-113048809D01*
X114740476Y-113144047D01*
X115788095Y-113477380D02*
X115692857Y-113429761D01*
X115645238Y-113334523D01*
X115645238Y-112477380D01*
X116597619Y-113477380D02*
X116597619Y-112477380D01*
X116597619Y-113429761D02*
X116502380Y-113477380D01*
X116311904Y-113477380D01*
X116216666Y-113429761D01*
X116169047Y-113382142D01*
X116121428Y-113286904D01*
X116121428Y-113001190D01*
X116169047Y-112905952D01*
X116216666Y-112858333D01*
X116311904Y-112810714D01*
X116502380Y-112810714D01*
X116597619Y-112858333D01*
X117692857Y-112477380D02*
X118026190Y-113477380D01*
X118359523Y-112477380D01*
X118645238Y-112572619D02*
X118692857Y-112525000D01*
X118788095Y-112477380D01*
X119026190Y-112477380D01*
X119121428Y-112525000D01*
X119169047Y-112572619D01*
X119216666Y-112667857D01*
X119216666Y-112763095D01*
X119169047Y-112905952D01*
X118597619Y-113477380D01*
X119216666Y-113477380D01*
X91400000Y-105792000D02*
X91400000Y-83694000D01*
X126202000Y-83750000D02*
X91404000Y-83750000D01*
X126200000Y-83748000D02*
X126200000Y-106100000D01*
X91404000Y-105802000D02*
X126200000Y-106050000D01*
D11*
X98515000Y-108732001D02*
X98515000Y-121432001D01*
X86450000Y-108732001D02*
X98515000Y-108732001D01*
D12*
X185510000Y-121432001D02*
X98515000Y-121432001D01*
X185510000Y-118892001D02*
X185510000Y-121432001D01*
X185510000Y-118892001D02*
X188050000Y-116352001D01*
X188050000Y-83332001D02*
X188050000Y-116352001D01*
X185510000Y-80792001D02*
X188050000Y-83332001D01*
X185510000Y-80792001D02*
X185510000Y-69362001D01*
X185510000Y-69362001D02*
X184240000Y-68092001D01*
X184240000Y-68092001D02*
X86450000Y-68092001D01*
X86450000Y-108732001D02*
X86450000Y-68092001D01*
D13*
X95720000Y-76330000D02*
X95720000Y-75000000D01*
X97050000Y-76330000D02*
X95720000Y-76330000D01*
X98320000Y-76330000D02*
X98320000Y-73670000D01*
X98320000Y-73670000D02*
X100920000Y-73670000D01*
X98320000Y-76330000D02*
X100920000Y-76330000D01*
X100920000Y-76330000D02*
X100920000Y-73670000D01*
X133120000Y-89980000D02*
X134450000Y-89980000D01*
X133120000Y-91310000D02*
X133120000Y-89980000D01*
X133120000Y-92580000D02*
X135780000Y-92580000D01*
X135780000Y-92580000D02*
X135780000Y-95180000D01*
X133120000Y-92580000D02*
X133120000Y-95180000D01*
X133120000Y-95180000D02*
X135780000Y-95180000D01*
X139420000Y-90020000D02*
X140750000Y-90020000D01*
X139420000Y-91350000D02*
X139420000Y-90020000D01*
X139420000Y-92620000D02*
X142080000Y-92620000D01*
X142080000Y-92620000D02*
X142080000Y-95220000D01*
X139420000Y-92620000D02*
X139420000Y-95220000D01*
X139420000Y-95220000D02*
X142080000Y-95220000D01*
X117910000Y-78870000D02*
X117910000Y-80200000D01*
X116580000Y-78870000D02*
X117910000Y-78870000D01*
X115310000Y-78870000D02*
X115310000Y-81530000D01*
X115310000Y-81530000D02*
X110170000Y-81530000D01*
X115310000Y-78870000D02*
X110170000Y-78870000D01*
X110170000Y-78870000D02*
X110170000Y-81530000D01*
X110170000Y-75770000D02*
X110170000Y-78430000D01*
X115310000Y-75770000D02*
X110170000Y-75770000D01*
X115310000Y-78430000D02*
X110170000Y-78430000D01*
X115310000Y-75770000D02*
X115310000Y-78430000D01*
X116580000Y-75770000D02*
X117910000Y-75770000D01*
X117910000Y-75770000D02*
X117910000Y-77100000D01*
X117930000Y-72670000D02*
X117930000Y-74000000D01*
X116600000Y-72670000D02*
X117930000Y-72670000D01*
X115330000Y-72670000D02*
X115330000Y-75330000D01*
X115330000Y-75330000D02*
X110190000Y-75330000D01*
X115330000Y-72670000D02*
X110190000Y-72670000D01*
X110190000Y-72670000D02*
X110190000Y-75330000D01*
X88820000Y-73770000D02*
X90150000Y-73770000D01*
X88820000Y-75100000D02*
X88820000Y-73770000D01*
X88820000Y-76370000D02*
X91480000Y-76370000D01*
X91480000Y-76370000D02*
X91480000Y-78970000D01*
X88820000Y-76370000D02*
X88820000Y-78970000D01*
X88820000Y-78970000D02*
X91480000Y-78970000D01*
X148700000Y-77570000D02*
X148700000Y-78900000D01*
X147370000Y-77570000D02*
X148700000Y-77570000D01*
X146100000Y-77570000D02*
X146100000Y-80230000D01*
X146100000Y-80230000D02*
X138420000Y-80230000D01*
X146100000Y-77570000D02*
X138420000Y-77570000D01*
X138420000Y-77570000D02*
X138420000Y-80230000D01*
X128230000Y-77570000D02*
X128230000Y-80230000D01*
X135910000Y-77570000D02*
X128230000Y-77570000D01*
X135910000Y-80230000D02*
X128230000Y-80230000D01*
X135910000Y-77570000D02*
X135910000Y-80230000D01*
X137180000Y-77570000D02*
X138510000Y-77570000D01*
X138510000Y-77570000D02*
X138510000Y-78900000D01*
X128310000Y-77570000D02*
X128310000Y-78900000D01*
X126980000Y-77570000D02*
X128310000Y-77570000D01*
X125710000Y-77570000D02*
X125710000Y-80230000D01*
X125710000Y-80230000D02*
X118030000Y-80230000D01*
X125710000Y-77570000D02*
X118030000Y-77570000D01*
X118030000Y-77570000D02*
X118030000Y-80230000D01*
X130570000Y-100690000D02*
X131900000Y-100690000D01*
X130570000Y-102020000D02*
X130570000Y-100690000D01*
X130570000Y-103290000D02*
X133230000Y-103290000D01*
X133230000Y-103290000D02*
X133230000Y-108430000D01*
X130570000Y-103290000D02*
X130570000Y-108430000D01*
X130570000Y-108430000D02*
X133230000Y-108430000D01*
X133870000Y-108430000D02*
X136530000Y-108430000D01*
X133870000Y-103290000D02*
X133870000Y-108430000D01*
X136530000Y-103290000D02*
X136530000Y-108430000D01*
X133870000Y-103290000D02*
X136530000Y-103290000D01*
X133870000Y-102020000D02*
X133870000Y-100690000D01*
X133870000Y-100690000D02*
X135200000Y-100690000D01*
X137170000Y-100690000D02*
X138500000Y-100690000D01*
X137170000Y-102020000D02*
X137170000Y-100690000D01*
X137170000Y-103290000D02*
X139830000Y-103290000D01*
X139830000Y-103290000D02*
X139830000Y-108430000D01*
X137170000Y-103290000D02*
X137170000Y-108430000D01*
X137170000Y-108430000D02*
X139830000Y-108430000D01*
X140370000Y-108430000D02*
X143030000Y-108430000D01*
X140370000Y-103290000D02*
X140370000Y-108430000D01*
X143030000Y-103290000D02*
X143030000Y-108430000D01*
X140370000Y-103290000D02*
X143030000Y-103290000D01*
X140370000Y-102020000D02*
X140370000Y-100690000D01*
X140370000Y-100690000D02*
X141700000Y-100690000D01*
X171470000Y-74530000D02*
X171470000Y-73200000D01*
X172800000Y-74530000D02*
X171470000Y-74530000D01*
X174070000Y-74530000D02*
X174070000Y-71870000D01*
X174070000Y-71870000D02*
X176670000Y-71870000D01*
X174070000Y-74530000D02*
X176670000Y-74530000D01*
X176670000Y-74530000D02*
X176670000Y-71870000D01*
X171470000Y-77580000D02*
X171470000Y-76250000D01*
X172800000Y-77580000D02*
X171470000Y-77580000D01*
X174070000Y-77580000D02*
X174070000Y-74920000D01*
X174070000Y-74920000D02*
X176670000Y-74920000D01*
X174070000Y-77580000D02*
X176670000Y-77580000D01*
X176670000Y-77580000D02*
X176670000Y-74920000D01*
X171470000Y-80630000D02*
X171470000Y-79300000D01*
X172800000Y-80630000D02*
X171470000Y-80630000D01*
X174070000Y-80630000D02*
X174070000Y-77970000D01*
X174070000Y-77970000D02*
X176670000Y-77970000D01*
X174070000Y-80630000D02*
X176670000Y-80630000D01*
X176670000Y-80630000D02*
X176670000Y-77970000D01*
X176670000Y-83680000D02*
X176670000Y-81020000D01*
X174070000Y-83680000D02*
X176670000Y-83680000D01*
X174070000Y-81020000D02*
X176670000Y-81020000D01*
X174070000Y-83680000D02*
X174070000Y-81020000D01*
X172800000Y-83680000D02*
X171470000Y-83680000D01*
X171470000Y-83680000D02*
X171470000Y-82350000D01*
X176670000Y-86730000D02*
X176670000Y-84070000D01*
X174070000Y-86730000D02*
X176670000Y-86730000D01*
X174070000Y-84070000D02*
X176670000Y-84070000D01*
X174070000Y-86730000D02*
X174070000Y-84070000D01*
X172800000Y-86730000D02*
X171470000Y-86730000D01*
X171470000Y-86730000D02*
X171470000Y-85400000D01*
X171470000Y-89780000D02*
X171470000Y-88450000D01*
X172800000Y-89780000D02*
X171470000Y-89780000D01*
X174070000Y-89780000D02*
X174070000Y-87120000D01*
X174070000Y-87120000D02*
X176670000Y-87120000D01*
X174070000Y-89780000D02*
X176670000Y-89780000D01*
X176670000Y-89780000D02*
X176670000Y-87120000D01*
X171480000Y-92830000D02*
X171480000Y-91500000D01*
X172810000Y-92830000D02*
X171480000Y-92830000D01*
X174080000Y-92830000D02*
X174080000Y-90170000D01*
X174080000Y-90170000D02*
X176680000Y-90170000D01*
X174080000Y-92830000D02*
X176680000Y-92830000D01*
X176680000Y-92830000D02*
X176680000Y-90170000D01*
X171480000Y-95880000D02*
X171480000Y-94550000D01*
X172810000Y-95880000D02*
X171480000Y-95880000D01*
X174080000Y-95880000D02*
X174080000Y-93220000D01*
X174080000Y-93220000D02*
X176680000Y-93220000D01*
X174080000Y-95880000D02*
X176680000Y-95880000D01*
X176680000Y-95880000D02*
X176680000Y-93220000D01*
X171480000Y-98930000D02*
X171480000Y-97600000D01*
X172810000Y-98930000D02*
X171480000Y-98930000D01*
X174080000Y-98930000D02*
X174080000Y-96270000D01*
X174080000Y-96270000D02*
X176680000Y-96270000D01*
X174080000Y-98930000D02*
X176680000Y-98930000D01*
X176680000Y-98930000D02*
X176680000Y-96270000D01*
X143570000Y-100690000D02*
X144900000Y-100690000D01*
X143570000Y-102020000D02*
X143570000Y-100690000D01*
X143570000Y-103290000D02*
X146230000Y-103290000D01*
X146230000Y-103290000D02*
X146230000Y-108430000D01*
X143570000Y-103290000D02*
X143570000Y-108430000D01*
X143570000Y-108430000D02*
X146230000Y-108430000D01*
X146770000Y-108410000D02*
X149430000Y-108410000D01*
X146770000Y-103270000D02*
X146770000Y-108410000D01*
X149430000Y-103270000D02*
X149430000Y-108410000D01*
X146770000Y-103270000D02*
X149430000Y-103270000D01*
X146770000Y-102000000D02*
X146770000Y-100670000D01*
X146770000Y-100670000D02*
X148100000Y-100670000D01*
X149970000Y-100670000D02*
X151300000Y-100670000D01*
X149970000Y-102000000D02*
X149970000Y-100670000D01*
X149970000Y-103270000D02*
X152630000Y-103270000D01*
X152630000Y-103270000D02*
X152630000Y-108410000D01*
X149970000Y-103270000D02*
X149970000Y-108410000D01*
X149970000Y-108410000D02*
X152630000Y-108410000D01*
X153170000Y-108430000D02*
X155830000Y-108430000D01*
X153170000Y-103290000D02*
X153170000Y-108430000D01*
X155830000Y-103290000D02*
X155830000Y-108430000D01*
X153170000Y-103290000D02*
X155830000Y-103290000D01*
X153170000Y-102020000D02*
X153170000Y-100690000D01*
X153170000Y-100690000D02*
X154500000Y-100690000D01*
X171480000Y-101980000D02*
X171480000Y-100650000D01*
X172810000Y-101980000D02*
X171480000Y-101980000D01*
X174080000Y-101980000D02*
X174080000Y-99320000D01*
X174080000Y-99320000D02*
X176680000Y-99320000D01*
X174080000Y-101980000D02*
X176680000Y-101980000D01*
X176680000Y-101980000D02*
X176680000Y-99320000D01*
X176680000Y-105030000D02*
X176680000Y-102370000D01*
X174080000Y-105030000D02*
X176680000Y-105030000D01*
X174080000Y-102370000D02*
X176680000Y-102370000D01*
X174080000Y-105030000D02*
X174080000Y-102370000D01*
X172810000Y-105030000D02*
X171480000Y-105030000D01*
X171480000Y-105030000D02*
X171480000Y-103700000D01*
X176680000Y-108080000D02*
X176680000Y-105420000D01*
X174080000Y-108080000D02*
X176680000Y-108080000D01*
X174080000Y-105420000D02*
X176680000Y-105420000D01*
X174080000Y-108080000D02*
X174080000Y-105420000D01*
X172810000Y-108080000D02*
X171480000Y-108080000D01*
X171480000Y-108080000D02*
X171480000Y-106750000D01*
X176720000Y-111130000D02*
X176720000Y-108470000D01*
X174120000Y-111130000D02*
X176720000Y-111130000D01*
X174120000Y-108470000D02*
X176720000Y-108470000D01*
X174120000Y-111130000D02*
X174120000Y-108470000D01*
X172850000Y-111130000D02*
X171520000Y-111130000D01*
X171520000Y-111130000D02*
X171520000Y-109800000D01*
X176730000Y-114180000D02*
X176730000Y-111520000D01*
X174130000Y-114180000D02*
X176730000Y-114180000D01*
X174130000Y-111520000D02*
X176730000Y-111520000D01*
X174130000Y-114180000D02*
X174130000Y-111520000D01*
X172860000Y-114180000D02*
X171530000Y-114180000D01*
X171530000Y-114180000D02*
X171530000Y-112850000D01*
X176720000Y-117230000D02*
X176720000Y-114570000D01*
X174120000Y-117230000D02*
X176720000Y-117230000D01*
X174120000Y-114570000D02*
X176720000Y-114570000D01*
X174120000Y-117230000D02*
X174120000Y-114570000D01*
X172850000Y-117230000D02*
X171520000Y-117230000D01*
X171520000Y-117230000D02*
X171520000Y-115900000D01*
X181780000Y-121120000D02*
X180450000Y-121120000D01*
X181780000Y-119790000D02*
X181780000Y-121120000D01*
X181780000Y-118520000D02*
X179120000Y-118520000D01*
X179120000Y-118520000D02*
X179120000Y-115920000D01*
X181780000Y-118520000D02*
X181780000Y-115920000D01*
X181780000Y-115920000D02*
X179120000Y-115920000D01*
X156870000Y-75980000D02*
X156870000Y-74650000D01*
X158200000Y-75980000D02*
X156870000Y-75980000D01*
X159470000Y-75980000D02*
X159470000Y-73320000D01*
X159470000Y-73320000D02*
X162070000Y-73320000D01*
X159470000Y-75980000D02*
X162070000Y-75980000D01*
X162070000Y-75980000D02*
X162070000Y-73320000D01*
X156870000Y-78530000D02*
X156870000Y-77200000D01*
X158200000Y-78530000D02*
X156870000Y-78530000D01*
X159470000Y-78530000D02*
X159470000Y-75870000D01*
X159470000Y-75870000D02*
X162070000Y-75870000D01*
X159470000Y-78530000D02*
X162070000Y-78530000D01*
X162070000Y-78530000D02*
X162070000Y-75870000D01*
X156870000Y-81080000D02*
X156870000Y-79750000D01*
X158200000Y-81080000D02*
X156870000Y-81080000D01*
X159470000Y-81080000D02*
X159470000Y-78420000D01*
X159470000Y-78420000D02*
X162070000Y-78420000D01*
X159470000Y-81080000D02*
X162070000Y-81080000D01*
X162070000Y-81080000D02*
X162070000Y-78420000D01*
X156870000Y-83630000D02*
X156870000Y-82300000D01*
X158200000Y-83630000D02*
X156870000Y-83630000D01*
X159470000Y-83630000D02*
X159470000Y-80970000D01*
X159470000Y-80970000D02*
X162070000Y-80970000D01*
X159470000Y-83630000D02*
X162070000Y-83630000D01*
X162070000Y-83630000D02*
X162070000Y-80970000D01*
X162020000Y-86180000D02*
X162020000Y-83520000D01*
X159420000Y-86180000D02*
X162020000Y-86180000D01*
X159420000Y-83520000D02*
X162020000Y-83520000D01*
X159420000Y-86180000D02*
X159420000Y-83520000D01*
X158150000Y-86180000D02*
X156820000Y-86180000D01*
X156820000Y-86180000D02*
X156820000Y-84850000D01*
X162020000Y-88730000D02*
X162020000Y-86070000D01*
X159420000Y-88730000D02*
X162020000Y-88730000D01*
X159420000Y-86070000D02*
X162020000Y-86070000D01*
X159420000Y-88730000D02*
X159420000Y-86070000D01*
X158150000Y-88730000D02*
X156820000Y-88730000D01*
X156820000Y-88730000D02*
X156820000Y-87400000D01*
X162020000Y-91280000D02*
X162020000Y-88620000D01*
X159420000Y-91280000D02*
X162020000Y-91280000D01*
X159420000Y-88620000D02*
X162020000Y-88620000D01*
X159420000Y-91280000D02*
X159420000Y-88620000D01*
X158150000Y-91280000D02*
X156820000Y-91280000D01*
X156820000Y-91280000D02*
X156820000Y-89950000D01*
X162020000Y-93830000D02*
X162020000Y-91170000D01*
X159420000Y-93830000D02*
X162020000Y-93830000D01*
X159420000Y-91170000D02*
X162020000Y-91170000D01*
X159420000Y-93830000D02*
X159420000Y-91170000D01*
X158150000Y-93830000D02*
X156820000Y-93830000D01*
X156820000Y-93830000D02*
X156820000Y-92500000D01*
X145920000Y-73850000D02*
X145920000Y-75850000D01*
X143780000Y-75850000D02*
X143780000Y-73850000D01*
X141180000Y-75850000D02*
X141180000Y-73850000D01*
X143320000Y-73850000D02*
X143320000Y-75850000D01*
X140870000Y-73850000D02*
X140870000Y-75850000D01*
X138730000Y-75850000D02*
X138730000Y-73850000D01*
X136130000Y-114750000D02*
X136130000Y-112750000D01*
X138270000Y-112750000D02*
X138270000Y-114750000D01*
X140530000Y-114750000D02*
X140530000Y-112750000D01*
X142670000Y-112750000D02*
X142670000Y-114750000D01*
X144930000Y-114750000D02*
X144930000Y-112750000D01*
X147070000Y-112750000D02*
X147070000Y-114750000D01*
X149330000Y-114750000D02*
X149330000Y-112750000D01*
X151470000Y-112750000D02*
X151470000Y-114750000D01*
X138270000Y-73850000D02*
X138270000Y-75850000D01*
X136130000Y-75850000D02*
X136130000Y-73850000D01*
X133630000Y-75850000D02*
X133630000Y-73850000D01*
X135770000Y-73850000D02*
X135770000Y-75850000D01*
X133270000Y-73850000D02*
X133270000Y-75850000D01*
X131130000Y-75850000D02*
X131130000Y-73850000D01*
X138330000Y-114750000D02*
X138330000Y-112750000D01*
X140470000Y-112750000D02*
X140470000Y-114750000D01*
X142730000Y-114750000D02*
X142730000Y-112750000D01*
X144870000Y-112750000D02*
X144870000Y-114750000D01*
X147130000Y-114750000D02*
X147130000Y-112750000D01*
X149270000Y-112750000D02*
X149270000Y-114750000D01*
X151530000Y-114750000D02*
X151530000Y-112750000D01*
X153670000Y-112750000D02*
X153670000Y-114750000D01*
X129220000Y-73850000D02*
X129220000Y-75850000D01*
X127080000Y-75850000D02*
X127080000Y-73850000D01*
X124480000Y-75850000D02*
X124480000Y-73850000D01*
X126620000Y-73850000D02*
X126620000Y-75850000D01*
X123970000Y-73850000D02*
X123970000Y-75850000D01*
X121830000Y-75850000D02*
X121830000Y-73850000D01*
D10*
X107795904Y-93192380D02*
X107795904Y-92192380D01*
X108034000Y-92192380D01*
X108176857Y-92240000D01*
X108272095Y-92335238D01*
X108319714Y-92430476D01*
X108367333Y-92620952D01*
X108367333Y-92763809D01*
X108319714Y-92954285D01*
X108272095Y-93049523D01*
X108176857Y-93144761D01*
X108034000Y-93192380D01*
X107795904Y-93192380D01*
X109367333Y-93097142D02*
X109319714Y-93144761D01*
X109176857Y-93192380D01*
X109081619Y-93192380D01*
X108938761Y-93144761D01*
X108843523Y-93049523D01*
X108795904Y-92954285D01*
X108748285Y-92763809D01*
X108748285Y-92620952D01*
X108795904Y-92430476D01*
X108843523Y-92335238D01*
X108938761Y-92240000D01*
X109081619Y-92192380D01*
X109176857Y-92192380D01*
X109319714Y-92240000D01*
X109367333Y-92287619D01*
X109748285Y-92287619D02*
X109795904Y-92240000D01*
X109891142Y-92192380D01*
X110129238Y-92192380D01*
X110224476Y-92240000D01*
X110272095Y-92287619D01*
X110319714Y-92382857D01*
X110319714Y-92478095D01*
X110272095Y-92620952D01*
X109700666Y-93192380D01*
X110319714Y-93192380D01*
D14*
X91899428Y-71986001D02*
X92625142Y-71986001D01*
X91754285Y-72421429D02*
X92262285Y-70897429D01*
X92770285Y-72421429D01*
X93278285Y-72421429D02*
X93278285Y-70897429D01*
X93641142Y-70897429D01*
X93858857Y-70970001D01*
X94004000Y-71115143D01*
X94076571Y-71260286D01*
X94149142Y-71550572D01*
X94149142Y-71768286D01*
X94076571Y-72058572D01*
X94004000Y-72203715D01*
X93858857Y-72348858D01*
X93641142Y-72421429D01*
X93278285Y-72421429D01*
X95600571Y-72421429D02*
X94729714Y-72421429D01*
X95165142Y-72421429D02*
X95165142Y-70897429D01*
X95020000Y-71115143D01*
X94874857Y-71260286D01*
X94729714Y-71332858D01*
D10*
X94172380Y-75333333D02*
X94886666Y-75333333D01*
X95029523Y-75380952D01*
X95124761Y-75476190D01*
X95172380Y-75619047D01*
X95172380Y-75714285D01*
X95172380Y-74333333D02*
X95172380Y-74904761D01*
X95172380Y-74619047D02*
X94172380Y-74619047D01*
X94315238Y-74714285D01*
X94410476Y-74809523D01*
X94458095Y-74904761D01*
X134116666Y-88432380D02*
X134116666Y-89146666D01*
X134069047Y-89289523D01*
X133973809Y-89384761D01*
X133830952Y-89432380D01*
X133735714Y-89432380D01*
X134545238Y-88527619D02*
X134592857Y-88480000D01*
X134688095Y-88432380D01*
X134926190Y-88432380D01*
X135021428Y-88480000D01*
X135069047Y-88527619D01*
X135116666Y-88622857D01*
X135116666Y-88718095D01*
X135069047Y-88860952D01*
X134497619Y-89432380D01*
X135116666Y-89432380D01*
X140416666Y-88472380D02*
X140416666Y-89186666D01*
X140369047Y-89329523D01*
X140273809Y-89424761D01*
X140130952Y-89472380D01*
X140035714Y-89472380D01*
X140797619Y-88472380D02*
X141416666Y-88472380D01*
X141083333Y-88853333D01*
X141226190Y-88853333D01*
X141321428Y-88900952D01*
X141369047Y-88948571D01*
X141416666Y-89043809D01*
X141416666Y-89281904D01*
X141369047Y-89377142D01*
X141321428Y-89424761D01*
X141226190Y-89472380D01*
X140940476Y-89472380D01*
X140845238Y-89424761D01*
X140797619Y-89377142D01*
X118362380Y-80533333D02*
X119076666Y-80533333D01*
X119219523Y-80580952D01*
X119314761Y-80676190D01*
X119362380Y-80819047D01*
X119362380Y-80914285D01*
X118695714Y-79628571D02*
X119362380Y-79628571D01*
X118314761Y-79866666D02*
X119029047Y-80104761D01*
X119029047Y-79485714D01*
X118362380Y-77433333D02*
X119076666Y-77433333D01*
X119219523Y-77480952D01*
X119314761Y-77576190D01*
X119362380Y-77719047D01*
X119362380Y-77814285D01*
X118362380Y-76480952D02*
X118362380Y-76957142D01*
X118838571Y-77004761D01*
X118790952Y-76957142D01*
X118743333Y-76861904D01*
X118743333Y-76623809D01*
X118790952Y-76528571D01*
X118838571Y-76480952D01*
X118933809Y-76433333D01*
X119171904Y-76433333D01*
X119267142Y-76480952D01*
X119314761Y-76528571D01*
X119362380Y-76623809D01*
X119362380Y-76861904D01*
X119314761Y-76957142D01*
X119267142Y-77004761D01*
X118382380Y-74333333D02*
X119096666Y-74333333D01*
X119239523Y-74380952D01*
X119334761Y-74476190D01*
X119382380Y-74619047D01*
X119382380Y-74714285D01*
X118382380Y-73428571D02*
X118382380Y-73619047D01*
X118430000Y-73714285D01*
X118477619Y-73761904D01*
X118620476Y-73857142D01*
X118810952Y-73904761D01*
X119191904Y-73904761D01*
X119287142Y-73857142D01*
X119334761Y-73809523D01*
X119382380Y-73714285D01*
X119382380Y-73523809D01*
X119334761Y-73428571D01*
X119287142Y-73380952D01*
X119191904Y-73333333D01*
X118953809Y-73333333D01*
X118858571Y-73380952D01*
X118810952Y-73428571D01*
X118763333Y-73523809D01*
X118763333Y-73714285D01*
X118810952Y-73809523D01*
X118858571Y-73857142D01*
X118953809Y-73904761D01*
X89816666Y-72222380D02*
X89816666Y-72936666D01*
X89769047Y-73079523D01*
X89673809Y-73174761D01*
X89530952Y-73222380D01*
X89435714Y-73222380D01*
X90197619Y-72222380D02*
X90864285Y-72222380D01*
X90435714Y-73222380D01*
X149152380Y-79233333D02*
X149866666Y-79233333D01*
X150009523Y-79280952D01*
X150104761Y-79376190D01*
X150152380Y-79519047D01*
X150152380Y-79614285D01*
X149580952Y-78614285D02*
X149533333Y-78709523D01*
X149485714Y-78757142D01*
X149390476Y-78804761D01*
X149342857Y-78804761D01*
X149247619Y-78757142D01*
X149200000Y-78709523D01*
X149152380Y-78614285D01*
X149152380Y-78423809D01*
X149200000Y-78328571D01*
X149247619Y-78280952D01*
X149342857Y-78233333D01*
X149390476Y-78233333D01*
X149485714Y-78280952D01*
X149533333Y-78328571D01*
X149580952Y-78423809D01*
X149580952Y-78614285D01*
X149628571Y-78709523D01*
X149676190Y-78757142D01*
X149771428Y-78804761D01*
X149961904Y-78804761D01*
X150057142Y-78757142D01*
X150104761Y-78709523D01*
X150152380Y-78614285D01*
X150152380Y-78423809D01*
X150104761Y-78328571D01*
X150057142Y-78280952D01*
X149961904Y-78233333D01*
X149771428Y-78233333D01*
X149676190Y-78280952D01*
X149628571Y-78328571D01*
X149580952Y-78423809D01*
X138962380Y-79233333D02*
X139676666Y-79233333D01*
X139819523Y-79280952D01*
X139914761Y-79376190D01*
X139962380Y-79519047D01*
X139962380Y-79614285D01*
X139962380Y-78709523D02*
X139962380Y-78519047D01*
X139914761Y-78423809D01*
X139867142Y-78376190D01*
X139724285Y-78280952D01*
X139533809Y-78233333D01*
X139152857Y-78233333D01*
X139057619Y-78280952D01*
X139010000Y-78328571D01*
X138962380Y-78423809D01*
X138962380Y-78614285D01*
X139010000Y-78709523D01*
X139057619Y-78757142D01*
X139152857Y-78804761D01*
X139390952Y-78804761D01*
X139486190Y-78757142D01*
X139533809Y-78709523D01*
X139581428Y-78614285D01*
X139581428Y-78423809D01*
X139533809Y-78328571D01*
X139486190Y-78280952D01*
X139390952Y-78233333D01*
X128762380Y-79709523D02*
X129476666Y-79709523D01*
X129619523Y-79757142D01*
X129714761Y-79852380D01*
X129762380Y-79995238D01*
X129762380Y-80090476D01*
X129762380Y-78709523D02*
X129762380Y-79280952D01*
X129762380Y-78995238D02*
X128762380Y-78995238D01*
X128905238Y-79090476D01*
X129000476Y-79185714D01*
X129048095Y-79280952D01*
X128762380Y-78090476D02*
X128762380Y-77995238D01*
X128810000Y-77900000D01*
X128857619Y-77852380D01*
X128952857Y-77804761D01*
X129143333Y-77757142D01*
X129381428Y-77757142D01*
X129571904Y-77804761D01*
X129667142Y-77852380D01*
X129714761Y-77900000D01*
X129762380Y-77995238D01*
X129762380Y-78090476D01*
X129714761Y-78185714D01*
X129667142Y-78233333D01*
X129571904Y-78280952D01*
X129381428Y-78328571D01*
X129143333Y-78328571D01*
X128952857Y-78280952D01*
X128857619Y-78233333D01*
X128810000Y-78185714D01*
X128762380Y-78090476D01*
X131090476Y-99142380D02*
X131090476Y-99856666D01*
X131042857Y-99999523D01*
X130947619Y-100094761D01*
X130804761Y-100142380D01*
X130709523Y-100142380D01*
X132090476Y-100142380D02*
X131519047Y-100142380D01*
X131804761Y-100142380D02*
X131804761Y-99142380D01*
X131709523Y-99285238D01*
X131614285Y-99380476D01*
X131519047Y-99428095D01*
X133042857Y-100142380D02*
X132471428Y-100142380D01*
X132757142Y-100142380D02*
X132757142Y-99142380D01*
X132661904Y-99285238D01*
X132566666Y-99380476D01*
X132471428Y-99428095D01*
X134390476Y-99142380D02*
X134390476Y-99856666D01*
X134342857Y-99999523D01*
X134247619Y-100094761D01*
X134104761Y-100142380D01*
X134009523Y-100142380D01*
X135390476Y-100142380D02*
X134819047Y-100142380D01*
X135104761Y-100142380D02*
X135104761Y-99142380D01*
X135009523Y-99285238D01*
X134914285Y-99380476D01*
X134819047Y-99428095D01*
X135771428Y-99237619D02*
X135819047Y-99190000D01*
X135914285Y-99142380D01*
X136152380Y-99142380D01*
X136247619Y-99190000D01*
X136295238Y-99237619D01*
X136342857Y-99332857D01*
X136342857Y-99428095D01*
X136295238Y-99570952D01*
X135723809Y-100142380D01*
X136342857Y-100142380D01*
X137690476Y-99142380D02*
X137690476Y-99856666D01*
X137642857Y-99999523D01*
X137547619Y-100094761D01*
X137404761Y-100142380D01*
X137309523Y-100142380D01*
X138690476Y-100142380D02*
X138119047Y-100142380D01*
X138404761Y-100142380D02*
X138404761Y-99142380D01*
X138309523Y-99285238D01*
X138214285Y-99380476D01*
X138119047Y-99428095D01*
X139023809Y-99142380D02*
X139642857Y-99142380D01*
X139309523Y-99523333D01*
X139452380Y-99523333D01*
X139547619Y-99570952D01*
X139595238Y-99618571D01*
X139642857Y-99713809D01*
X139642857Y-99951904D01*
X139595238Y-100047142D01*
X139547619Y-100094761D01*
X139452380Y-100142380D01*
X139166666Y-100142380D01*
X139071428Y-100094761D01*
X139023809Y-100047142D01*
X140890476Y-99142380D02*
X140890476Y-99856666D01*
X140842857Y-99999523D01*
X140747619Y-100094761D01*
X140604761Y-100142380D01*
X140509523Y-100142380D01*
X141890476Y-100142380D02*
X141319047Y-100142380D01*
X141604761Y-100142380D02*
X141604761Y-99142380D01*
X141509523Y-99285238D01*
X141414285Y-99380476D01*
X141319047Y-99428095D01*
X142747619Y-99475714D02*
X142747619Y-100142380D01*
X142509523Y-99094761D02*
X142271428Y-99809047D01*
X142890476Y-99809047D01*
X169922380Y-74009523D02*
X170636666Y-74009523D01*
X170779523Y-74057142D01*
X170874761Y-74152380D01*
X170922380Y-74295238D01*
X170922380Y-74390476D01*
X170922380Y-73009523D02*
X170922380Y-73580952D01*
X170922380Y-73295238D02*
X169922380Y-73295238D01*
X170065238Y-73390476D01*
X170160476Y-73485714D01*
X170208095Y-73580952D01*
X169922380Y-72104761D02*
X169922380Y-72580952D01*
X170398571Y-72628571D01*
X170350952Y-72580952D01*
X170303333Y-72485714D01*
X170303333Y-72247619D01*
X170350952Y-72152380D01*
X170398571Y-72104761D01*
X170493809Y-72057142D01*
X170731904Y-72057142D01*
X170827142Y-72104761D01*
X170874761Y-72152380D01*
X170922380Y-72247619D01*
X170922380Y-72485714D01*
X170874761Y-72580952D01*
X170827142Y-72628571D01*
X169922380Y-77059523D02*
X170636666Y-77059523D01*
X170779523Y-77107142D01*
X170874761Y-77202380D01*
X170922380Y-77345238D01*
X170922380Y-77440476D01*
X170922380Y-76059523D02*
X170922380Y-76630952D01*
X170922380Y-76345238D02*
X169922380Y-76345238D01*
X170065238Y-76440476D01*
X170160476Y-76535714D01*
X170208095Y-76630952D01*
X169922380Y-75202380D02*
X169922380Y-75392857D01*
X169970000Y-75488095D01*
X170017619Y-75535714D01*
X170160476Y-75630952D01*
X170350952Y-75678571D01*
X170731904Y-75678571D01*
X170827142Y-75630952D01*
X170874761Y-75583333D01*
X170922380Y-75488095D01*
X170922380Y-75297619D01*
X170874761Y-75202380D01*
X170827142Y-75154761D01*
X170731904Y-75107142D01*
X170493809Y-75107142D01*
X170398571Y-75154761D01*
X170350952Y-75202380D01*
X170303333Y-75297619D01*
X170303333Y-75488095D01*
X170350952Y-75583333D01*
X170398571Y-75630952D01*
X170493809Y-75678571D01*
X169922380Y-80109523D02*
X170636666Y-80109523D01*
X170779523Y-80157142D01*
X170874761Y-80252380D01*
X170922380Y-80395238D01*
X170922380Y-80490476D01*
X170922380Y-79109523D02*
X170922380Y-79680952D01*
X170922380Y-79395238D02*
X169922380Y-79395238D01*
X170065238Y-79490476D01*
X170160476Y-79585714D01*
X170208095Y-79680952D01*
X169922380Y-78776190D02*
X169922380Y-78109523D01*
X170922380Y-78538095D01*
X169922380Y-83159523D02*
X170636666Y-83159523D01*
X170779523Y-83207142D01*
X170874761Y-83302380D01*
X170922380Y-83445238D01*
X170922380Y-83540476D01*
X170922380Y-82159523D02*
X170922380Y-82730952D01*
X170922380Y-82445238D02*
X169922380Y-82445238D01*
X170065238Y-82540476D01*
X170160476Y-82635714D01*
X170208095Y-82730952D01*
X170350952Y-81588095D02*
X170303333Y-81683333D01*
X170255714Y-81730952D01*
X170160476Y-81778571D01*
X170112857Y-81778571D01*
X170017619Y-81730952D01*
X169970000Y-81683333D01*
X169922380Y-81588095D01*
X169922380Y-81397619D01*
X169970000Y-81302380D01*
X170017619Y-81254761D01*
X170112857Y-81207142D01*
X170160476Y-81207142D01*
X170255714Y-81254761D01*
X170303333Y-81302380D01*
X170350952Y-81397619D01*
X170350952Y-81588095D01*
X170398571Y-81683333D01*
X170446190Y-81730952D01*
X170541428Y-81778571D01*
X170731904Y-81778571D01*
X170827142Y-81730952D01*
X170874761Y-81683333D01*
X170922380Y-81588095D01*
X170922380Y-81397619D01*
X170874761Y-81302380D01*
X170827142Y-81254761D01*
X170731904Y-81207142D01*
X170541428Y-81207142D01*
X170446190Y-81254761D01*
X170398571Y-81302380D01*
X170350952Y-81397619D01*
X169922380Y-86209523D02*
X170636666Y-86209523D01*
X170779523Y-86257142D01*
X170874761Y-86352380D01*
X170922380Y-86495238D01*
X170922380Y-86590476D01*
X170922380Y-85209523D02*
X170922380Y-85780952D01*
X170922380Y-85495238D02*
X169922380Y-85495238D01*
X170065238Y-85590476D01*
X170160476Y-85685714D01*
X170208095Y-85780952D01*
X170922380Y-84733333D02*
X170922380Y-84542857D01*
X170874761Y-84447619D01*
X170827142Y-84400000D01*
X170684285Y-84304761D01*
X170493809Y-84257142D01*
X170112857Y-84257142D01*
X170017619Y-84304761D01*
X169970000Y-84352380D01*
X169922380Y-84447619D01*
X169922380Y-84638095D01*
X169970000Y-84733333D01*
X170017619Y-84780952D01*
X170112857Y-84828571D01*
X170350952Y-84828571D01*
X170446190Y-84780952D01*
X170493809Y-84733333D01*
X170541428Y-84638095D01*
X170541428Y-84447619D01*
X170493809Y-84352380D01*
X170446190Y-84304761D01*
X170350952Y-84257142D01*
X169922380Y-89259523D02*
X170636666Y-89259523D01*
X170779523Y-89307142D01*
X170874761Y-89402380D01*
X170922380Y-89545238D01*
X170922380Y-89640476D01*
X170017619Y-88830952D02*
X169970000Y-88783333D01*
X169922380Y-88688095D01*
X169922380Y-88450000D01*
X169970000Y-88354761D01*
X170017619Y-88307142D01*
X170112857Y-88259523D01*
X170208095Y-88259523D01*
X170350952Y-88307142D01*
X170922380Y-88878571D01*
X170922380Y-88259523D01*
X169922380Y-87640476D02*
X169922380Y-87545238D01*
X169970000Y-87450000D01*
X170017619Y-87402380D01*
X170112857Y-87354761D01*
X170303333Y-87307142D01*
X170541428Y-87307142D01*
X170731904Y-87354761D01*
X170827142Y-87402380D01*
X170874761Y-87450000D01*
X170922380Y-87545238D01*
X170922380Y-87640476D01*
X170874761Y-87735714D01*
X170827142Y-87783333D01*
X170731904Y-87830952D01*
X170541428Y-87878571D01*
X170303333Y-87878571D01*
X170112857Y-87830952D01*
X170017619Y-87783333D01*
X169970000Y-87735714D01*
X169922380Y-87640476D01*
X169932380Y-92309523D02*
X170646666Y-92309523D01*
X170789523Y-92357142D01*
X170884761Y-92452380D01*
X170932380Y-92595238D01*
X170932380Y-92690476D01*
X170027619Y-91880952D02*
X169980000Y-91833333D01*
X169932380Y-91738095D01*
X169932380Y-91500000D01*
X169980000Y-91404761D01*
X170027619Y-91357142D01*
X170122857Y-91309523D01*
X170218095Y-91309523D01*
X170360952Y-91357142D01*
X170932380Y-91928571D01*
X170932380Y-91309523D01*
X170932380Y-90357142D02*
X170932380Y-90928571D01*
X170932380Y-90642857D02*
X169932380Y-90642857D01*
X170075238Y-90738095D01*
X170170476Y-90833333D01*
X170218095Y-90928571D01*
X169932380Y-95359523D02*
X170646666Y-95359523D01*
X170789523Y-95407142D01*
X170884761Y-95502380D01*
X170932380Y-95645238D01*
X170932380Y-95740476D01*
X170027619Y-94930952D02*
X169980000Y-94883333D01*
X169932380Y-94788095D01*
X169932380Y-94550000D01*
X169980000Y-94454761D01*
X170027619Y-94407142D01*
X170122857Y-94359523D01*
X170218095Y-94359523D01*
X170360952Y-94407142D01*
X170932380Y-94978571D01*
X170932380Y-94359523D01*
X170027619Y-93978571D02*
X169980000Y-93930952D01*
X169932380Y-93835714D01*
X169932380Y-93597619D01*
X169980000Y-93502380D01*
X170027619Y-93454761D01*
X170122857Y-93407142D01*
X170218095Y-93407142D01*
X170360952Y-93454761D01*
X170932380Y-94026190D01*
X170932380Y-93407142D01*
X169932380Y-98409523D02*
X170646666Y-98409523D01*
X170789523Y-98457142D01*
X170884761Y-98552380D01*
X170932380Y-98695238D01*
X170932380Y-98790476D01*
X170027619Y-97980952D02*
X169980000Y-97933333D01*
X169932380Y-97838095D01*
X169932380Y-97600000D01*
X169980000Y-97504761D01*
X170027619Y-97457142D01*
X170122857Y-97409523D01*
X170218095Y-97409523D01*
X170360952Y-97457142D01*
X170932380Y-98028571D01*
X170932380Y-97409523D01*
X169932380Y-97076190D02*
X169932380Y-96457142D01*
X170313333Y-96790476D01*
X170313333Y-96647619D01*
X170360952Y-96552380D01*
X170408571Y-96504761D01*
X170503809Y-96457142D01*
X170741904Y-96457142D01*
X170837142Y-96504761D01*
X170884761Y-96552380D01*
X170932380Y-96647619D01*
X170932380Y-96933333D01*
X170884761Y-97028571D01*
X170837142Y-97076190D01*
X144090476Y-99142380D02*
X144090476Y-99856666D01*
X144042857Y-99999523D01*
X143947619Y-100094761D01*
X143804761Y-100142380D01*
X143709523Y-100142380D01*
X144519047Y-99237619D02*
X144566666Y-99190000D01*
X144661904Y-99142380D01*
X144900000Y-99142380D01*
X144995238Y-99190000D01*
X145042857Y-99237619D01*
X145090476Y-99332857D01*
X145090476Y-99428095D01*
X145042857Y-99570952D01*
X144471428Y-100142380D01*
X145090476Y-100142380D01*
X145947619Y-99475714D02*
X145947619Y-100142380D01*
X145709523Y-99094761D02*
X145471428Y-99809047D01*
X146090476Y-99809047D01*
X147290476Y-99122380D02*
X147290476Y-99836666D01*
X147242857Y-99979523D01*
X147147619Y-100074761D01*
X147004761Y-100122380D01*
X146909523Y-100122380D01*
X147719047Y-99217619D02*
X147766666Y-99170000D01*
X147861904Y-99122380D01*
X148100000Y-99122380D01*
X148195238Y-99170000D01*
X148242857Y-99217619D01*
X148290476Y-99312857D01*
X148290476Y-99408095D01*
X148242857Y-99550952D01*
X147671428Y-100122380D01*
X148290476Y-100122380D01*
X149195238Y-99122380D02*
X148719047Y-99122380D01*
X148671428Y-99598571D01*
X148719047Y-99550952D01*
X148814285Y-99503333D01*
X149052380Y-99503333D01*
X149147619Y-99550952D01*
X149195238Y-99598571D01*
X149242857Y-99693809D01*
X149242857Y-99931904D01*
X149195238Y-100027142D01*
X149147619Y-100074761D01*
X149052380Y-100122380D01*
X148814285Y-100122380D01*
X148719047Y-100074761D01*
X148671428Y-100027142D01*
X150490476Y-99122380D02*
X150490476Y-99836666D01*
X150442857Y-99979523D01*
X150347619Y-100074761D01*
X150204761Y-100122380D01*
X150109523Y-100122380D01*
X150919047Y-99217619D02*
X150966666Y-99170000D01*
X151061904Y-99122380D01*
X151300000Y-99122380D01*
X151395238Y-99170000D01*
X151442857Y-99217619D01*
X151490476Y-99312857D01*
X151490476Y-99408095D01*
X151442857Y-99550952D01*
X150871428Y-100122380D01*
X151490476Y-100122380D01*
X152347619Y-99122380D02*
X152157142Y-99122380D01*
X152061904Y-99170000D01*
X152014285Y-99217619D01*
X151919047Y-99360476D01*
X151871428Y-99550952D01*
X151871428Y-99931904D01*
X151919047Y-100027142D01*
X151966666Y-100074761D01*
X152061904Y-100122380D01*
X152252380Y-100122380D01*
X152347619Y-100074761D01*
X152395238Y-100027142D01*
X152442857Y-99931904D01*
X152442857Y-99693809D01*
X152395238Y-99598571D01*
X152347619Y-99550952D01*
X152252380Y-99503333D01*
X152061904Y-99503333D01*
X151966666Y-99550952D01*
X151919047Y-99598571D01*
X151871428Y-99693809D01*
X153690476Y-99142380D02*
X153690476Y-99856666D01*
X153642857Y-99999523D01*
X153547619Y-100094761D01*
X153404761Y-100142380D01*
X153309523Y-100142380D01*
X154119047Y-99237619D02*
X154166666Y-99190000D01*
X154261904Y-99142380D01*
X154500000Y-99142380D01*
X154595238Y-99190000D01*
X154642857Y-99237619D01*
X154690476Y-99332857D01*
X154690476Y-99428095D01*
X154642857Y-99570952D01*
X154071428Y-100142380D01*
X154690476Y-100142380D01*
X155023809Y-99142380D02*
X155690476Y-99142380D01*
X155261904Y-100142380D01*
X169932380Y-101459523D02*
X170646666Y-101459523D01*
X170789523Y-101507142D01*
X170884761Y-101602380D01*
X170932380Y-101745238D01*
X170932380Y-101840476D01*
X170027619Y-101030952D02*
X169980000Y-100983333D01*
X169932380Y-100888095D01*
X169932380Y-100650000D01*
X169980000Y-100554761D01*
X170027619Y-100507142D01*
X170122857Y-100459523D01*
X170218095Y-100459523D01*
X170360952Y-100507142D01*
X170932380Y-101078571D01*
X170932380Y-100459523D01*
X170360952Y-99888095D02*
X170313333Y-99983333D01*
X170265714Y-100030952D01*
X170170476Y-100078571D01*
X170122857Y-100078571D01*
X170027619Y-100030952D01*
X169980000Y-99983333D01*
X169932380Y-99888095D01*
X169932380Y-99697619D01*
X169980000Y-99602380D01*
X170027619Y-99554761D01*
X170122857Y-99507142D01*
X170170476Y-99507142D01*
X170265714Y-99554761D01*
X170313333Y-99602380D01*
X170360952Y-99697619D01*
X170360952Y-99888095D01*
X170408571Y-99983333D01*
X170456190Y-100030952D01*
X170551428Y-100078571D01*
X170741904Y-100078571D01*
X170837142Y-100030952D01*
X170884761Y-99983333D01*
X170932380Y-99888095D01*
X170932380Y-99697619D01*
X170884761Y-99602380D01*
X170837142Y-99554761D01*
X170741904Y-99507142D01*
X170551428Y-99507142D01*
X170456190Y-99554761D01*
X170408571Y-99602380D01*
X170360952Y-99697619D01*
X169932380Y-104509523D02*
X170646666Y-104509523D01*
X170789523Y-104557142D01*
X170884761Y-104652380D01*
X170932380Y-104795238D01*
X170932380Y-104890476D01*
X170027619Y-104080952D02*
X169980000Y-104033333D01*
X169932380Y-103938095D01*
X169932380Y-103700000D01*
X169980000Y-103604761D01*
X170027619Y-103557142D01*
X170122857Y-103509523D01*
X170218095Y-103509523D01*
X170360952Y-103557142D01*
X170932380Y-104128571D01*
X170932380Y-103509523D01*
X170932380Y-103033333D02*
X170932380Y-102842857D01*
X170884761Y-102747619D01*
X170837142Y-102700000D01*
X170694285Y-102604761D01*
X170503809Y-102557142D01*
X170122857Y-102557142D01*
X170027619Y-102604761D01*
X169980000Y-102652380D01*
X169932380Y-102747619D01*
X169932380Y-102938095D01*
X169980000Y-103033333D01*
X170027619Y-103080952D01*
X170122857Y-103128571D01*
X170360952Y-103128571D01*
X170456190Y-103080952D01*
X170503809Y-103033333D01*
X170551428Y-102938095D01*
X170551428Y-102747619D01*
X170503809Y-102652380D01*
X170456190Y-102604761D01*
X170360952Y-102557142D01*
X169932380Y-107559523D02*
X170646666Y-107559523D01*
X170789523Y-107607142D01*
X170884761Y-107702380D01*
X170932380Y-107845238D01*
X170932380Y-107940476D01*
X169932380Y-107178571D02*
X169932380Y-106559523D01*
X170313333Y-106892857D01*
X170313333Y-106750000D01*
X170360952Y-106654761D01*
X170408571Y-106607142D01*
X170503809Y-106559523D01*
X170741904Y-106559523D01*
X170837142Y-106607142D01*
X170884761Y-106654761D01*
X170932380Y-106750000D01*
X170932380Y-107035714D01*
X170884761Y-107130952D01*
X170837142Y-107178571D01*
X169932380Y-105940476D02*
X169932380Y-105845238D01*
X169980000Y-105750000D01*
X170027619Y-105702380D01*
X170122857Y-105654761D01*
X170313333Y-105607142D01*
X170551428Y-105607142D01*
X170741904Y-105654761D01*
X170837142Y-105702380D01*
X170884761Y-105750000D01*
X170932380Y-105845238D01*
X170932380Y-105940476D01*
X170884761Y-106035714D01*
X170837142Y-106083333D01*
X170741904Y-106130952D01*
X170551428Y-106178571D01*
X170313333Y-106178571D01*
X170122857Y-106130952D01*
X170027619Y-106083333D01*
X169980000Y-106035714D01*
X169932380Y-105940476D01*
X169972380Y-110609523D02*
X170686666Y-110609523D01*
X170829523Y-110657142D01*
X170924761Y-110752380D01*
X170972380Y-110895238D01*
X170972380Y-110990476D01*
X169972380Y-110228571D02*
X169972380Y-109609523D01*
X170353333Y-109942857D01*
X170353333Y-109800000D01*
X170400952Y-109704761D01*
X170448571Y-109657142D01*
X170543809Y-109609523D01*
X170781904Y-109609523D01*
X170877142Y-109657142D01*
X170924761Y-109704761D01*
X170972380Y-109800000D01*
X170972380Y-110085714D01*
X170924761Y-110180952D01*
X170877142Y-110228571D01*
X170972380Y-108657142D02*
X170972380Y-109228571D01*
X170972380Y-108942857D02*
X169972380Y-108942857D01*
X170115238Y-109038095D01*
X170210476Y-109133333D01*
X170258095Y-109228571D01*
X169982380Y-113659523D02*
X170696666Y-113659523D01*
X170839523Y-113707142D01*
X170934761Y-113802380D01*
X170982380Y-113945238D01*
X170982380Y-114040476D01*
X169982380Y-113278571D02*
X169982380Y-112659523D01*
X170363333Y-112992857D01*
X170363333Y-112850000D01*
X170410952Y-112754761D01*
X170458571Y-112707142D01*
X170553809Y-112659523D01*
X170791904Y-112659523D01*
X170887142Y-112707142D01*
X170934761Y-112754761D01*
X170982380Y-112850000D01*
X170982380Y-113135714D01*
X170934761Y-113230952D01*
X170887142Y-113278571D01*
X170077619Y-112278571D02*
X170030000Y-112230952D01*
X169982380Y-112135714D01*
X169982380Y-111897619D01*
X170030000Y-111802380D01*
X170077619Y-111754761D01*
X170172857Y-111707142D01*
X170268095Y-111707142D01*
X170410952Y-111754761D01*
X170982380Y-112326190D01*
X170982380Y-111707142D01*
X169972380Y-116709523D02*
X170686666Y-116709523D01*
X170829523Y-116757142D01*
X170924761Y-116852380D01*
X170972380Y-116995238D01*
X170972380Y-117090476D01*
X169972380Y-116328571D02*
X169972380Y-115709523D01*
X170353333Y-116042857D01*
X170353333Y-115900000D01*
X170400952Y-115804761D01*
X170448571Y-115757142D01*
X170543809Y-115709523D01*
X170781904Y-115709523D01*
X170877142Y-115757142D01*
X170924761Y-115804761D01*
X170972380Y-115900000D01*
X170972380Y-116185714D01*
X170924761Y-116280952D01*
X170877142Y-116328571D01*
X169972380Y-115376190D02*
X169972380Y-114757142D01*
X170353333Y-115090476D01*
X170353333Y-114947619D01*
X170400952Y-114852380D01*
X170448571Y-114804761D01*
X170543809Y-114757142D01*
X170781904Y-114757142D01*
X170877142Y-114804761D01*
X170924761Y-114852380D01*
X170972380Y-114947619D01*
X170972380Y-115233333D01*
X170924761Y-115328571D01*
X170877142Y-115376190D01*
X179640476Y-121572380D02*
X179640476Y-122286666D01*
X179592857Y-122429523D01*
X179497619Y-122524761D01*
X179354761Y-122572380D01*
X179259523Y-122572380D01*
X180021428Y-121572380D02*
X180640476Y-121572380D01*
X180307142Y-121953333D01*
X180450000Y-121953333D01*
X180545238Y-122000952D01*
X180592857Y-122048571D01*
X180640476Y-122143809D01*
X180640476Y-122381904D01*
X180592857Y-122477142D01*
X180545238Y-122524761D01*
X180450000Y-122572380D01*
X180164285Y-122572380D01*
X180069047Y-122524761D01*
X180021428Y-122477142D01*
X181497619Y-121905714D02*
X181497619Y-122572380D01*
X181259523Y-121524761D02*
X181021428Y-122239047D01*
X181640476Y-122239047D01*
X155322380Y-75459523D02*
X156036666Y-75459523D01*
X156179523Y-75507142D01*
X156274761Y-75602380D01*
X156322380Y-75745238D01*
X156322380Y-75840476D01*
X155322380Y-75078571D02*
X155322380Y-74459523D01*
X155703333Y-74792857D01*
X155703333Y-74650000D01*
X155750952Y-74554761D01*
X155798571Y-74507142D01*
X155893809Y-74459523D01*
X156131904Y-74459523D01*
X156227142Y-74507142D01*
X156274761Y-74554761D01*
X156322380Y-74650000D01*
X156322380Y-74935714D01*
X156274761Y-75030952D01*
X156227142Y-75078571D01*
X155322380Y-73554761D02*
X155322380Y-74030952D01*
X155798571Y-74078571D01*
X155750952Y-74030952D01*
X155703333Y-73935714D01*
X155703333Y-73697619D01*
X155750952Y-73602380D01*
X155798571Y-73554761D01*
X155893809Y-73507142D01*
X156131904Y-73507142D01*
X156227142Y-73554761D01*
X156274761Y-73602380D01*
X156322380Y-73697619D01*
X156322380Y-73935714D01*
X156274761Y-74030952D01*
X156227142Y-74078571D01*
X155322380Y-78009523D02*
X156036666Y-78009523D01*
X156179523Y-78057142D01*
X156274761Y-78152380D01*
X156322380Y-78295238D01*
X156322380Y-78390476D01*
X155322380Y-77628571D02*
X155322380Y-77009523D01*
X155703333Y-77342857D01*
X155703333Y-77200000D01*
X155750952Y-77104761D01*
X155798571Y-77057142D01*
X155893809Y-77009523D01*
X156131904Y-77009523D01*
X156227142Y-77057142D01*
X156274761Y-77104761D01*
X156322380Y-77200000D01*
X156322380Y-77485714D01*
X156274761Y-77580952D01*
X156227142Y-77628571D01*
X155322380Y-76152380D02*
X155322380Y-76342857D01*
X155370000Y-76438095D01*
X155417619Y-76485714D01*
X155560476Y-76580952D01*
X155750952Y-76628571D01*
X156131904Y-76628571D01*
X156227142Y-76580952D01*
X156274761Y-76533333D01*
X156322380Y-76438095D01*
X156322380Y-76247619D01*
X156274761Y-76152380D01*
X156227142Y-76104761D01*
X156131904Y-76057142D01*
X155893809Y-76057142D01*
X155798571Y-76104761D01*
X155750952Y-76152380D01*
X155703333Y-76247619D01*
X155703333Y-76438095D01*
X155750952Y-76533333D01*
X155798571Y-76580952D01*
X155893809Y-76628571D01*
X155322380Y-80559523D02*
X156036666Y-80559523D01*
X156179523Y-80607142D01*
X156274761Y-80702380D01*
X156322380Y-80845238D01*
X156322380Y-80940476D01*
X155322380Y-80178571D02*
X155322380Y-79559523D01*
X155703333Y-79892857D01*
X155703333Y-79750000D01*
X155750952Y-79654761D01*
X155798571Y-79607142D01*
X155893809Y-79559523D01*
X156131904Y-79559523D01*
X156227142Y-79607142D01*
X156274761Y-79654761D01*
X156322380Y-79750000D01*
X156322380Y-80035714D01*
X156274761Y-80130952D01*
X156227142Y-80178571D01*
X155322380Y-79226190D02*
X155322380Y-78559523D01*
X156322380Y-78988095D01*
X155322380Y-83109523D02*
X156036666Y-83109523D01*
X156179523Y-83157142D01*
X156274761Y-83252380D01*
X156322380Y-83395238D01*
X156322380Y-83490476D01*
X155322380Y-82728571D02*
X155322380Y-82109523D01*
X155703333Y-82442857D01*
X155703333Y-82300000D01*
X155750952Y-82204761D01*
X155798571Y-82157142D01*
X155893809Y-82109523D01*
X156131904Y-82109523D01*
X156227142Y-82157142D01*
X156274761Y-82204761D01*
X156322380Y-82300000D01*
X156322380Y-82585714D01*
X156274761Y-82680952D01*
X156227142Y-82728571D01*
X155750952Y-81538095D02*
X155703333Y-81633333D01*
X155655714Y-81680952D01*
X155560476Y-81728571D01*
X155512857Y-81728571D01*
X155417619Y-81680952D01*
X155370000Y-81633333D01*
X155322380Y-81538095D01*
X155322380Y-81347619D01*
X155370000Y-81252380D01*
X155417619Y-81204761D01*
X155512857Y-81157142D01*
X155560476Y-81157142D01*
X155655714Y-81204761D01*
X155703333Y-81252380D01*
X155750952Y-81347619D01*
X155750952Y-81538095D01*
X155798571Y-81633333D01*
X155846190Y-81680952D01*
X155941428Y-81728571D01*
X156131904Y-81728571D01*
X156227142Y-81680952D01*
X156274761Y-81633333D01*
X156322380Y-81538095D01*
X156322380Y-81347619D01*
X156274761Y-81252380D01*
X156227142Y-81204761D01*
X156131904Y-81157142D01*
X155941428Y-81157142D01*
X155846190Y-81204761D01*
X155798571Y-81252380D01*
X155750952Y-81347619D01*
X155272380Y-85659523D02*
X155986666Y-85659523D01*
X156129523Y-85707142D01*
X156224761Y-85802380D01*
X156272380Y-85945238D01*
X156272380Y-86040476D01*
X155272380Y-85278571D02*
X155272380Y-84659523D01*
X155653333Y-84992857D01*
X155653333Y-84850000D01*
X155700952Y-84754761D01*
X155748571Y-84707142D01*
X155843809Y-84659523D01*
X156081904Y-84659523D01*
X156177142Y-84707142D01*
X156224761Y-84754761D01*
X156272380Y-84850000D01*
X156272380Y-85135714D01*
X156224761Y-85230952D01*
X156177142Y-85278571D01*
X156272380Y-84183333D02*
X156272380Y-83992857D01*
X156224761Y-83897619D01*
X156177142Y-83850000D01*
X156034285Y-83754761D01*
X155843809Y-83707142D01*
X155462857Y-83707142D01*
X155367619Y-83754761D01*
X155320000Y-83802380D01*
X155272380Y-83897619D01*
X155272380Y-84088095D01*
X155320000Y-84183333D01*
X155367619Y-84230952D01*
X155462857Y-84278571D01*
X155700952Y-84278571D01*
X155796190Y-84230952D01*
X155843809Y-84183333D01*
X155891428Y-84088095D01*
X155891428Y-83897619D01*
X155843809Y-83802380D01*
X155796190Y-83754761D01*
X155700952Y-83707142D01*
X155272380Y-88209523D02*
X155986666Y-88209523D01*
X156129523Y-88257142D01*
X156224761Y-88352380D01*
X156272380Y-88495238D01*
X156272380Y-88590476D01*
X155605714Y-87304761D02*
X156272380Y-87304761D01*
X155224761Y-87542857D02*
X155939047Y-87780952D01*
X155939047Y-87161904D01*
X155272380Y-86590476D02*
X155272380Y-86495238D01*
X155320000Y-86400000D01*
X155367619Y-86352380D01*
X155462857Y-86304761D01*
X155653333Y-86257142D01*
X155891428Y-86257142D01*
X156081904Y-86304761D01*
X156177142Y-86352380D01*
X156224761Y-86400000D01*
X156272380Y-86495238D01*
X156272380Y-86590476D01*
X156224761Y-86685714D01*
X156177142Y-86733333D01*
X156081904Y-86780952D01*
X155891428Y-86828571D01*
X155653333Y-86828571D01*
X155462857Y-86780952D01*
X155367619Y-86733333D01*
X155320000Y-86685714D01*
X155272380Y-86590476D01*
X155272380Y-90759523D02*
X155986666Y-90759523D01*
X156129523Y-90807142D01*
X156224761Y-90902380D01*
X156272380Y-91045238D01*
X156272380Y-91140476D01*
X155605714Y-89854761D02*
X156272380Y-89854761D01*
X155224761Y-90092857D02*
X155939047Y-90330952D01*
X155939047Y-89711904D01*
X156272380Y-88807142D02*
X156272380Y-89378571D01*
X156272380Y-89092857D02*
X155272380Y-89092857D01*
X155415238Y-89188095D01*
X155510476Y-89283333D01*
X155558095Y-89378571D01*
X155272380Y-93309523D02*
X155986666Y-93309523D01*
X156129523Y-93357142D01*
X156224761Y-93452380D01*
X156272380Y-93595238D01*
X156272380Y-93690476D01*
X155605714Y-92404761D02*
X156272380Y-92404761D01*
X155224761Y-92642857D02*
X155939047Y-92880952D01*
X155939047Y-92261904D01*
X155367619Y-91928571D02*
X155320000Y-91880952D01*
X155272380Y-91785714D01*
X155272380Y-91547619D01*
X155320000Y-91452380D01*
X155367619Y-91404761D01*
X155462857Y-91357142D01*
X155558095Y-91357142D01*
X155700952Y-91404761D01*
X156272380Y-91976190D01*
X156272380Y-91357142D01*
X143452380Y-75016666D02*
X142976190Y-75350000D01*
X143452380Y-75588095D02*
X142452380Y-75588095D01*
X142452380Y-75207142D01*
X142500000Y-75111904D01*
X142547619Y-75064285D01*
X142642857Y-75016666D01*
X142785714Y-75016666D01*
X142880952Y-75064285D01*
X142928571Y-75111904D01*
X142976190Y-75207142D01*
X142976190Y-75588095D01*
X142785714Y-74159523D02*
X143452380Y-74159523D01*
X142404761Y-74397619D02*
X143119047Y-74635714D01*
X143119047Y-74016666D01*
X140852380Y-75016666D02*
X140376190Y-75350000D01*
X140852380Y-75588095D02*
X139852380Y-75588095D01*
X139852380Y-75207142D01*
X139900000Y-75111904D01*
X139947619Y-75064285D01*
X140042857Y-75016666D01*
X140185714Y-75016666D01*
X140280952Y-75064285D01*
X140328571Y-75111904D01*
X140376190Y-75207142D01*
X140376190Y-75588095D01*
X139852380Y-74111904D02*
X139852380Y-74588095D01*
X140328571Y-74635714D01*
X140280952Y-74588095D01*
X140233333Y-74492857D01*
X140233333Y-74254761D01*
X140280952Y-74159523D01*
X140328571Y-74111904D01*
X140423809Y-74064285D01*
X140661904Y-74064285D01*
X140757142Y-74111904D01*
X140804761Y-74159523D01*
X140852380Y-74254761D01*
X140852380Y-74492857D01*
X140804761Y-74588095D01*
X140757142Y-74635714D01*
X138402380Y-75016666D02*
X137926190Y-75350000D01*
X138402380Y-75588095D02*
X137402380Y-75588095D01*
X137402380Y-75207142D01*
X137450000Y-75111904D01*
X137497619Y-75064285D01*
X137592857Y-75016666D01*
X137735714Y-75016666D01*
X137830952Y-75064285D01*
X137878571Y-75111904D01*
X137926190Y-75207142D01*
X137926190Y-75588095D01*
X137402380Y-74159523D02*
X137402380Y-74350000D01*
X137450000Y-74445238D01*
X137497619Y-74492857D01*
X137640476Y-74588095D01*
X137830952Y-74635714D01*
X138211904Y-74635714D01*
X138307142Y-74588095D01*
X138354761Y-74540476D01*
X138402380Y-74445238D01*
X138402380Y-74254761D01*
X138354761Y-74159523D01*
X138307142Y-74111904D01*
X138211904Y-74064285D01*
X137973809Y-74064285D01*
X137878571Y-74111904D01*
X137830952Y-74159523D01*
X137783333Y-74254761D01*
X137783333Y-74445238D01*
X137830952Y-74540476D01*
X137878571Y-74588095D01*
X137973809Y-74635714D01*
X137752380Y-110742857D02*
X137276190Y-111076190D01*
X137752380Y-111314285D02*
X136752380Y-111314285D01*
X136752380Y-110933333D01*
X136800000Y-110838095D01*
X136847619Y-110790476D01*
X136942857Y-110742857D01*
X137085714Y-110742857D01*
X137180952Y-110790476D01*
X137228571Y-110838095D01*
X137276190Y-110933333D01*
X137276190Y-111314285D01*
X137752380Y-109790476D02*
X137752380Y-110361904D01*
X137752380Y-110076190D02*
X136752380Y-110076190D01*
X136895238Y-110171428D01*
X136990476Y-110266666D01*
X137038095Y-110361904D01*
X136752380Y-108933333D02*
X136752380Y-109123809D01*
X136800000Y-109219047D01*
X136847619Y-109266666D01*
X136990476Y-109361904D01*
X137180952Y-109409523D01*
X137561904Y-109409523D01*
X137657142Y-109361904D01*
X137704761Y-109314285D01*
X137752380Y-109219047D01*
X137752380Y-109028571D01*
X137704761Y-108933333D01*
X137657142Y-108885714D01*
X137561904Y-108838095D01*
X137323809Y-108838095D01*
X137228571Y-108885714D01*
X137180952Y-108933333D01*
X137133333Y-109028571D01*
X137133333Y-109219047D01*
X137180952Y-109314285D01*
X137228571Y-109361904D01*
X137323809Y-109409523D01*
X142152380Y-110742857D02*
X141676190Y-111076190D01*
X142152380Y-111314285D02*
X141152380Y-111314285D01*
X141152380Y-110933333D01*
X141200000Y-110838095D01*
X141247619Y-110790476D01*
X141342857Y-110742857D01*
X141485714Y-110742857D01*
X141580952Y-110790476D01*
X141628571Y-110838095D01*
X141676190Y-110933333D01*
X141676190Y-111314285D01*
X142152380Y-109790476D02*
X142152380Y-110361904D01*
X142152380Y-110076190D02*
X141152380Y-110076190D01*
X141295238Y-110171428D01*
X141390476Y-110266666D01*
X141438095Y-110361904D01*
X141152380Y-109457142D02*
X141152380Y-108790476D01*
X142152380Y-109219047D01*
X146652380Y-110742857D02*
X146176190Y-111076190D01*
X146652380Y-111314285D02*
X145652380Y-111314285D01*
X145652380Y-110933333D01*
X145700000Y-110838095D01*
X145747619Y-110790476D01*
X145842857Y-110742857D01*
X145985714Y-110742857D01*
X146080952Y-110790476D01*
X146128571Y-110838095D01*
X146176190Y-110933333D01*
X146176190Y-111314285D01*
X146652380Y-109790476D02*
X146652380Y-110361904D01*
X146652380Y-110076190D02*
X145652380Y-110076190D01*
X145795238Y-110171428D01*
X145890476Y-110266666D01*
X145938095Y-110361904D01*
X146080952Y-109219047D02*
X146033333Y-109314285D01*
X145985714Y-109361904D01*
X145890476Y-109409523D01*
X145842857Y-109409523D01*
X145747619Y-109361904D01*
X145700000Y-109314285D01*
X145652380Y-109219047D01*
X145652380Y-109028571D01*
X145700000Y-108933333D01*
X145747619Y-108885714D01*
X145842857Y-108838095D01*
X145890476Y-108838095D01*
X145985714Y-108885714D01*
X146033333Y-108933333D01*
X146080952Y-109028571D01*
X146080952Y-109219047D01*
X146128571Y-109314285D01*
X146176190Y-109361904D01*
X146271428Y-109409523D01*
X146461904Y-109409523D01*
X146557142Y-109361904D01*
X146604761Y-109314285D01*
X146652380Y-109219047D01*
X146652380Y-109028571D01*
X146604761Y-108933333D01*
X146557142Y-108885714D01*
X146461904Y-108838095D01*
X146271428Y-108838095D01*
X146176190Y-108885714D01*
X146128571Y-108933333D01*
X146080952Y-109028571D01*
X150952380Y-110742857D02*
X150476190Y-111076190D01*
X150952380Y-111314285D02*
X149952380Y-111314285D01*
X149952380Y-110933333D01*
X150000000Y-110838095D01*
X150047619Y-110790476D01*
X150142857Y-110742857D01*
X150285714Y-110742857D01*
X150380952Y-110790476D01*
X150428571Y-110838095D01*
X150476190Y-110933333D01*
X150476190Y-111314285D01*
X150952380Y-109790476D02*
X150952380Y-110361904D01*
X150952380Y-110076190D02*
X149952380Y-110076190D01*
X150095238Y-110171428D01*
X150190476Y-110266666D01*
X150238095Y-110361904D01*
X150952380Y-109314285D02*
X150952380Y-109123809D01*
X150904761Y-109028571D01*
X150857142Y-108980952D01*
X150714285Y-108885714D01*
X150523809Y-108838095D01*
X150142857Y-108838095D01*
X150047619Y-108885714D01*
X150000000Y-108933333D01*
X149952380Y-109028571D01*
X149952380Y-109219047D01*
X150000000Y-109314285D01*
X150047619Y-109361904D01*
X150142857Y-109409523D01*
X150380952Y-109409523D01*
X150476190Y-109361904D01*
X150523809Y-109314285D01*
X150571428Y-109219047D01*
X150571428Y-109028571D01*
X150523809Y-108933333D01*
X150476190Y-108885714D01*
X150380952Y-108838095D01*
X135802380Y-75492857D02*
X135326190Y-75826190D01*
X135802380Y-76064285D02*
X134802380Y-76064285D01*
X134802380Y-75683333D01*
X134850000Y-75588095D01*
X134897619Y-75540476D01*
X134992857Y-75492857D01*
X135135714Y-75492857D01*
X135230952Y-75540476D01*
X135278571Y-75588095D01*
X135326190Y-75683333D01*
X135326190Y-76064285D01*
X134897619Y-75111904D02*
X134850000Y-75064285D01*
X134802380Y-74969047D01*
X134802380Y-74730952D01*
X134850000Y-74635714D01*
X134897619Y-74588095D01*
X134992857Y-74540476D01*
X135088095Y-74540476D01*
X135230952Y-74588095D01*
X135802380Y-75159523D01*
X135802380Y-74540476D01*
X134802380Y-73921428D02*
X134802380Y-73826190D01*
X134850000Y-73730952D01*
X134897619Y-73683333D01*
X134992857Y-73635714D01*
X135183333Y-73588095D01*
X135421428Y-73588095D01*
X135611904Y-73635714D01*
X135707142Y-73683333D01*
X135754761Y-73730952D01*
X135802380Y-73826190D01*
X135802380Y-73921428D01*
X135754761Y-74016666D01*
X135707142Y-74064285D01*
X135611904Y-74111904D01*
X135421428Y-74159523D01*
X135183333Y-74159523D01*
X134992857Y-74111904D01*
X134897619Y-74064285D01*
X134850000Y-74016666D01*
X134802380Y-73921428D01*
X133302380Y-75492857D02*
X132826190Y-75826190D01*
X133302380Y-76064285D02*
X132302380Y-76064285D01*
X132302380Y-75683333D01*
X132350000Y-75588095D01*
X132397619Y-75540476D01*
X132492857Y-75492857D01*
X132635714Y-75492857D01*
X132730952Y-75540476D01*
X132778571Y-75588095D01*
X132826190Y-75683333D01*
X132826190Y-76064285D01*
X132397619Y-75111904D02*
X132350000Y-75064285D01*
X132302380Y-74969047D01*
X132302380Y-74730952D01*
X132350000Y-74635714D01*
X132397619Y-74588095D01*
X132492857Y-74540476D01*
X132588095Y-74540476D01*
X132730952Y-74588095D01*
X133302380Y-75159523D01*
X133302380Y-74540476D01*
X133302380Y-73588095D02*
X133302380Y-74159523D01*
X133302380Y-73873809D02*
X132302380Y-73873809D01*
X132445238Y-73969047D01*
X132540476Y-74064285D01*
X132588095Y-74159523D01*
X130802380Y-75492857D02*
X130326190Y-75826190D01*
X130802380Y-76064285D02*
X129802380Y-76064285D01*
X129802380Y-75683333D01*
X129850000Y-75588095D01*
X129897619Y-75540476D01*
X129992857Y-75492857D01*
X130135714Y-75492857D01*
X130230952Y-75540476D01*
X130278571Y-75588095D01*
X130326190Y-75683333D01*
X130326190Y-76064285D01*
X129897619Y-75111904D02*
X129850000Y-75064285D01*
X129802380Y-74969047D01*
X129802380Y-74730952D01*
X129850000Y-74635714D01*
X129897619Y-74588095D01*
X129992857Y-74540476D01*
X130088095Y-74540476D01*
X130230952Y-74588095D01*
X130802380Y-75159523D01*
X130802380Y-74540476D01*
X129897619Y-74159523D02*
X129850000Y-74111904D01*
X129802380Y-74016666D01*
X129802380Y-73778571D01*
X129850000Y-73683333D01*
X129897619Y-73635714D01*
X129992857Y-73588095D01*
X130088095Y-73588095D01*
X130230952Y-73635714D01*
X130802380Y-74207142D01*
X130802380Y-73588095D01*
X140052380Y-110742857D02*
X139576190Y-111076190D01*
X140052380Y-111314285D02*
X139052380Y-111314285D01*
X139052380Y-110933333D01*
X139100000Y-110838095D01*
X139147619Y-110790476D01*
X139242857Y-110742857D01*
X139385714Y-110742857D01*
X139480952Y-110790476D01*
X139528571Y-110838095D01*
X139576190Y-110933333D01*
X139576190Y-111314285D01*
X139147619Y-110361904D02*
X139100000Y-110314285D01*
X139052380Y-110219047D01*
X139052380Y-109980952D01*
X139100000Y-109885714D01*
X139147619Y-109838095D01*
X139242857Y-109790476D01*
X139338095Y-109790476D01*
X139480952Y-109838095D01*
X140052380Y-110409523D01*
X140052380Y-109790476D01*
X139052380Y-109457142D02*
X139052380Y-108838095D01*
X139433333Y-109171428D01*
X139433333Y-109028571D01*
X139480952Y-108933333D01*
X139528571Y-108885714D01*
X139623809Y-108838095D01*
X139861904Y-108838095D01*
X139957142Y-108885714D01*
X140004761Y-108933333D01*
X140052380Y-109028571D01*
X140052380Y-109314285D01*
X140004761Y-109409523D01*
X139957142Y-109457142D01*
X144352380Y-110742857D02*
X143876190Y-111076190D01*
X144352380Y-111314285D02*
X143352380Y-111314285D01*
X143352380Y-110933333D01*
X143400000Y-110838095D01*
X143447619Y-110790476D01*
X143542857Y-110742857D01*
X143685714Y-110742857D01*
X143780952Y-110790476D01*
X143828571Y-110838095D01*
X143876190Y-110933333D01*
X143876190Y-111314285D01*
X143447619Y-110361904D02*
X143400000Y-110314285D01*
X143352380Y-110219047D01*
X143352380Y-109980952D01*
X143400000Y-109885714D01*
X143447619Y-109838095D01*
X143542857Y-109790476D01*
X143638095Y-109790476D01*
X143780952Y-109838095D01*
X144352380Y-110409523D01*
X144352380Y-109790476D01*
X143685714Y-108933333D02*
X144352380Y-108933333D01*
X143304761Y-109171428D02*
X144019047Y-109409523D01*
X144019047Y-108790476D01*
X148752380Y-110742857D02*
X148276190Y-111076190D01*
X148752380Y-111314285D02*
X147752380Y-111314285D01*
X147752380Y-110933333D01*
X147800000Y-110838095D01*
X147847619Y-110790476D01*
X147942857Y-110742857D01*
X148085714Y-110742857D01*
X148180952Y-110790476D01*
X148228571Y-110838095D01*
X148276190Y-110933333D01*
X148276190Y-111314285D01*
X147847619Y-110361904D02*
X147800000Y-110314285D01*
X147752380Y-110219047D01*
X147752380Y-109980952D01*
X147800000Y-109885714D01*
X147847619Y-109838095D01*
X147942857Y-109790476D01*
X148038095Y-109790476D01*
X148180952Y-109838095D01*
X148752380Y-110409523D01*
X148752380Y-109790476D01*
X147752380Y-108885714D02*
X147752380Y-109361904D01*
X148228571Y-109409523D01*
X148180952Y-109361904D01*
X148133333Y-109266666D01*
X148133333Y-109028571D01*
X148180952Y-108933333D01*
X148228571Y-108885714D01*
X148323809Y-108838095D01*
X148561904Y-108838095D01*
X148657142Y-108885714D01*
X148704761Y-108933333D01*
X148752380Y-109028571D01*
X148752380Y-109266666D01*
X148704761Y-109361904D01*
X148657142Y-109409523D01*
X153152380Y-110842857D02*
X152676190Y-111176190D01*
X153152380Y-111414285D02*
X152152380Y-111414285D01*
X152152380Y-111033333D01*
X152200000Y-110938095D01*
X152247619Y-110890476D01*
X152342857Y-110842857D01*
X152485714Y-110842857D01*
X152580952Y-110890476D01*
X152628571Y-110938095D01*
X152676190Y-111033333D01*
X152676190Y-111414285D01*
X152247619Y-110461904D02*
X152200000Y-110414285D01*
X152152380Y-110319047D01*
X152152380Y-110080952D01*
X152200000Y-109985714D01*
X152247619Y-109938095D01*
X152342857Y-109890476D01*
X152438095Y-109890476D01*
X152580952Y-109938095D01*
X153152380Y-110509523D01*
X153152380Y-109890476D01*
X152152380Y-109033333D02*
X152152380Y-109223809D01*
X152200000Y-109319047D01*
X152247619Y-109366666D01*
X152390476Y-109461904D01*
X152580952Y-109509523D01*
X152961904Y-109509523D01*
X153057142Y-109461904D01*
X153104761Y-109414285D01*
X153152380Y-109319047D01*
X153152380Y-109128571D01*
X153104761Y-109033333D01*
X153057142Y-108985714D01*
X152961904Y-108938095D01*
X152723809Y-108938095D01*
X152628571Y-108985714D01*
X152580952Y-109033333D01*
X152533333Y-109128571D01*
X152533333Y-109319047D01*
X152580952Y-109414285D01*
X152628571Y-109461904D01*
X152723809Y-109509523D01*
X126752380Y-75492857D02*
X126276190Y-75826190D01*
X126752380Y-76064285D02*
X125752380Y-76064285D01*
X125752380Y-75683333D01*
X125800000Y-75588095D01*
X125847619Y-75540476D01*
X125942857Y-75492857D01*
X126085714Y-75492857D01*
X126180952Y-75540476D01*
X126228571Y-75588095D01*
X126276190Y-75683333D01*
X126276190Y-76064285D01*
X125752380Y-75159523D02*
X125752380Y-74540476D01*
X126133333Y-74873809D01*
X126133333Y-74730952D01*
X126180952Y-74635714D01*
X126228571Y-74588095D01*
X126323809Y-74540476D01*
X126561904Y-74540476D01*
X126657142Y-74588095D01*
X126704761Y-74635714D01*
X126752380Y-74730952D01*
X126752380Y-75016666D01*
X126704761Y-75111904D01*
X126657142Y-75159523D01*
X126180952Y-73969047D02*
X126133333Y-74064285D01*
X126085714Y-74111904D01*
X125990476Y-74159523D01*
X125942857Y-74159523D01*
X125847619Y-74111904D01*
X125800000Y-74064285D01*
X125752380Y-73969047D01*
X125752380Y-73778571D01*
X125800000Y-73683333D01*
X125847619Y-73635714D01*
X125942857Y-73588095D01*
X125990476Y-73588095D01*
X126085714Y-73635714D01*
X126133333Y-73683333D01*
X126180952Y-73778571D01*
X126180952Y-73969047D01*
X126228571Y-74064285D01*
X126276190Y-74111904D01*
X126371428Y-74159523D01*
X126561904Y-74159523D01*
X126657142Y-74111904D01*
X126704761Y-74064285D01*
X126752380Y-73969047D01*
X126752380Y-73778571D01*
X126704761Y-73683333D01*
X126657142Y-73635714D01*
X126561904Y-73588095D01*
X126371428Y-73588095D01*
X126276190Y-73635714D01*
X126228571Y-73683333D01*
X126180952Y-73778571D01*
X124152380Y-75492857D02*
X123676190Y-75826190D01*
X124152380Y-76064285D02*
X123152380Y-76064285D01*
X123152380Y-75683333D01*
X123200000Y-75588095D01*
X123247619Y-75540476D01*
X123342857Y-75492857D01*
X123485714Y-75492857D01*
X123580952Y-75540476D01*
X123628571Y-75588095D01*
X123676190Y-75683333D01*
X123676190Y-76064285D01*
X123152380Y-75159523D02*
X123152380Y-74540476D01*
X123533333Y-74873809D01*
X123533333Y-74730952D01*
X123580952Y-74635714D01*
X123628571Y-74588095D01*
X123723809Y-74540476D01*
X123961904Y-74540476D01*
X124057142Y-74588095D01*
X124104761Y-74635714D01*
X124152380Y-74730952D01*
X124152380Y-75016666D01*
X124104761Y-75111904D01*
X124057142Y-75159523D01*
X124152380Y-74064285D02*
X124152380Y-73873809D01*
X124104761Y-73778571D01*
X124057142Y-73730952D01*
X123914285Y-73635714D01*
X123723809Y-73588095D01*
X123342857Y-73588095D01*
X123247619Y-73635714D01*
X123200000Y-73683333D01*
X123152380Y-73778571D01*
X123152380Y-73969047D01*
X123200000Y-74064285D01*
X123247619Y-74111904D01*
X123342857Y-74159523D01*
X123580952Y-74159523D01*
X123676190Y-74111904D01*
X123723809Y-74064285D01*
X123771428Y-73969047D01*
X123771428Y-73778571D01*
X123723809Y-73683333D01*
X123676190Y-73635714D01*
X123580952Y-73588095D01*
X121502380Y-75492857D02*
X121026190Y-75826190D01*
X121502380Y-76064285D02*
X120502380Y-76064285D01*
X120502380Y-75683333D01*
X120550000Y-75588095D01*
X120597619Y-75540476D01*
X120692857Y-75492857D01*
X120835714Y-75492857D01*
X120930952Y-75540476D01*
X120978571Y-75588095D01*
X121026190Y-75683333D01*
X121026190Y-76064285D01*
X120835714Y-74635714D02*
X121502380Y-74635714D01*
X120454761Y-74873809D02*
X121169047Y-75111904D01*
X121169047Y-74492857D01*
X120502380Y-73921428D02*
X120502380Y-73826190D01*
X120550000Y-73730952D01*
X120597619Y-73683333D01*
X120692857Y-73635714D01*
X120883333Y-73588095D01*
X121121428Y-73588095D01*
X121311904Y-73635714D01*
X121407142Y-73683333D01*
X121454761Y-73730952D01*
X121502380Y-73826190D01*
X121502380Y-73921428D01*
X121454761Y-74016666D01*
X121407142Y-74064285D01*
X121311904Y-74111904D01*
X121121428Y-74159523D01*
X120883333Y-74159523D01*
X120692857Y-74111904D01*
X120597619Y-74064285D01*
X120550000Y-74016666D01*
X120502380Y-73921428D01*
M02*
