G04 #@! TF.GenerationSoftware,KiCad,Pcbnew,(5.1.0-0)*
G04 #@! TF.CreationDate,2019-04-24T12:09:54-04:00*
G04 #@! TF.ProjectId,TR19-COMP-PD_rev2,54523139-2d43-44f4-9d50-2d50445f7265,rev?*
G04 #@! TF.SameCoordinates,Original*
G04 #@! TF.FileFunction,Copper,L1,Top*
G04 #@! TF.FilePolarity,Positive*
%FSLAX46Y46*%
G04 Gerber Fmt 4.6, Leading zero omitted, Abs format (unit mm)*
G04 Created by KiCad (PCBNEW (5.1.0-0)) date 2019-04-24 12:09:54*
%MOMM*%
%LPD*%
G04 APERTURE LIST*
%ADD10R,2.200000X1.200000*%
%ADD11O,1.524000X2.540000*%
%ADD12C,1.524000*%
%ADD13O,1.700000X1.700000*%
%ADD14R,1.700000X1.700000*%
%ADD15C,3.000000*%
%ADD16R,3.000000X3.000000*%
%ADD17R,1.700000X0.900000*%
%ADD18C,0.800000*%
%ADD19C,0.500000*%
%ADD20C,0.750000*%
%ADD21C,1.000000*%
%ADD22C,1.500000*%
%ADD23C,0.254000*%
G04 APERTURE END LIST*
D10*
X127472000Y-92340000D03*
X127472000Y-97420000D03*
X127472000Y-102500000D03*
X127472000Y-87260000D03*
X90134000Y-102500000D03*
X90134000Y-97420000D03*
X90134000Y-87260000D03*
D11*
X155030000Y-70632001D03*
X157570000Y-70632001D03*
X160110000Y-70632001D03*
X162650000Y-70632001D03*
X165190000Y-70632001D03*
X167730000Y-70632001D03*
X170270000Y-70632001D03*
X172810000Y-70632001D03*
X177890000Y-118892001D03*
X175350000Y-118892001D03*
X172810000Y-118892001D03*
X170270000Y-118892001D03*
X160110000Y-118892001D03*
X155030000Y-118892001D03*
X152490000Y-118892001D03*
X162650000Y-118892001D03*
X165190000Y-118892001D03*
X167730000Y-118892001D03*
X149950000Y-118892001D03*
X147410000Y-118892001D03*
X144870000Y-118892001D03*
X137250000Y-118892001D03*
X139790000Y-118892001D03*
X142330000Y-118892001D03*
X132170000Y-118892001D03*
X129630000Y-118892001D03*
X127090000Y-118892001D03*
X122010000Y-118892001D03*
X119470000Y-118892001D03*
X149950000Y-70632001D03*
X147410000Y-70632001D03*
X144870000Y-70632001D03*
X142330000Y-70632001D03*
X139790000Y-70632001D03*
X137250000Y-70632001D03*
X134710000Y-70632001D03*
X132170000Y-70632001D03*
X128106000Y-70632001D03*
X125566000Y-70632001D03*
X123026000Y-70632001D03*
X120486000Y-70632001D03*
X117946000Y-70632001D03*
X115406000Y-70632001D03*
X112866000Y-70632001D03*
X110326000Y-70632001D03*
X124550000Y-118892001D03*
D12*
X180430000Y-73172001D03*
X182970000Y-73172001D03*
X180430000Y-75712001D03*
X182970000Y-75712001D03*
X180430000Y-78252001D03*
X182970000Y-78252001D03*
X180430000Y-80792001D03*
X182970000Y-80792001D03*
X180430000Y-70632001D03*
X182970000Y-70632001D03*
X182970000Y-83332001D03*
X180430000Y-83332001D03*
X180430000Y-85872001D03*
X182970000Y-85872001D03*
X180430000Y-88412001D03*
X182970000Y-88412001D03*
X180430000Y-90952001D03*
X182970000Y-90952001D03*
X180430000Y-93492001D03*
X182970000Y-93492001D03*
X180430000Y-96032001D03*
X182970000Y-96032001D03*
X180430000Y-98572001D03*
X182970000Y-98572001D03*
X180430000Y-101112001D03*
X182970000Y-101112001D03*
X180430000Y-103652001D03*
X182970000Y-103652001D03*
X180430000Y-106192001D03*
X182970000Y-106192001D03*
X180430000Y-108732001D03*
X182970000Y-108732001D03*
X180430000Y-111272001D03*
X182970000Y-111272001D03*
X180430000Y-113812001D03*
X182970000Y-113812001D03*
D11*
X116930000Y-118892001D03*
X114390000Y-118892001D03*
X107786000Y-70632001D03*
X105246000Y-70632001D03*
X172810000Y-70632001D03*
D13*
X99590000Y-75000000D03*
D14*
X97050000Y-75000000D03*
D13*
X134450000Y-93850000D03*
D14*
X134450000Y-91310000D03*
D13*
X140750000Y-93890000D03*
D14*
X140750000Y-91350000D03*
D13*
X111500000Y-80200000D03*
X114040000Y-80200000D03*
D14*
X116580000Y-80200000D03*
X116580000Y-77100000D03*
D13*
X114040000Y-77100000D03*
X111500000Y-77100000D03*
X111520000Y-74000000D03*
X114060000Y-74000000D03*
D14*
X116600000Y-74000000D03*
D15*
X90150000Y-78740000D03*
D16*
X90150000Y-75100000D03*
D13*
X139750000Y-78900000D03*
X142290000Y-78900000D03*
X144830000Y-78900000D03*
D14*
X147370000Y-78900000D03*
X137180000Y-78900000D03*
D13*
X134640000Y-78900000D03*
X132100000Y-78900000D03*
X129560000Y-78900000D03*
X119360000Y-78900000D03*
X121900000Y-78900000D03*
X124440000Y-78900000D03*
D14*
X126980000Y-78900000D03*
D13*
X131900000Y-107100000D03*
X131900000Y-104560000D03*
D14*
X131900000Y-102020000D03*
X135200000Y-102020000D03*
D13*
X135200000Y-104560000D03*
X135200000Y-107100000D03*
X138500000Y-107100000D03*
X138500000Y-104560000D03*
D14*
X138500000Y-102020000D03*
X141700000Y-102020000D03*
D13*
X141700000Y-104560000D03*
X141700000Y-107100000D03*
X175340000Y-73200000D03*
D14*
X172800000Y-73200000D03*
D13*
X175340000Y-76250000D03*
D14*
X172800000Y-76250000D03*
D13*
X175340000Y-79300000D03*
D14*
X172800000Y-79300000D03*
X172800000Y-82350000D03*
D13*
X175340000Y-82350000D03*
D14*
X172800000Y-85400000D03*
D13*
X175340000Y-85400000D03*
X175340000Y-88450000D03*
D14*
X172800000Y-88450000D03*
D13*
X175350000Y-91500000D03*
D14*
X172810000Y-91500000D03*
D13*
X175350000Y-94550000D03*
D14*
X172810000Y-94550000D03*
D13*
X175350000Y-97600000D03*
D14*
X172810000Y-97600000D03*
D13*
X144900000Y-107100000D03*
X144900000Y-104560000D03*
D14*
X144900000Y-102020000D03*
X148100000Y-102000000D03*
D13*
X148100000Y-104540000D03*
X148100000Y-107080000D03*
X151300000Y-107080000D03*
X151300000Y-104540000D03*
D14*
X151300000Y-102000000D03*
X154500000Y-102020000D03*
D13*
X154500000Y-104560000D03*
X154500000Y-107100000D03*
X175350000Y-100650000D03*
D14*
X172810000Y-100650000D03*
X172810000Y-103700000D03*
D13*
X175350000Y-103700000D03*
D14*
X172810000Y-106750000D03*
D13*
X175350000Y-106750000D03*
D14*
X172850000Y-109800000D03*
D13*
X175390000Y-109800000D03*
D14*
X172860000Y-112850000D03*
D13*
X175400000Y-112850000D03*
D14*
X172850000Y-115900000D03*
D13*
X175390000Y-115900000D03*
X180450000Y-117250000D03*
D14*
X180450000Y-119790000D03*
D13*
X160740000Y-74650000D03*
D14*
X158200000Y-74650000D03*
D13*
X160740000Y-77200000D03*
D14*
X158200000Y-77200000D03*
D13*
X160740000Y-79750000D03*
D14*
X158200000Y-79750000D03*
D13*
X160740000Y-82300000D03*
D14*
X158200000Y-82300000D03*
X158150000Y-84850000D03*
D13*
X160690000Y-84850000D03*
D14*
X158150000Y-87400000D03*
D13*
X160690000Y-87400000D03*
D14*
X158150000Y-89950000D03*
D13*
X160690000Y-89950000D03*
D14*
X158150000Y-92500000D03*
D13*
X160690000Y-92500000D03*
D17*
X144850000Y-76300000D03*
X144850000Y-73400000D03*
X142250000Y-73400000D03*
X142250000Y-76300000D03*
X139800000Y-76300000D03*
X139800000Y-73400000D03*
X137200000Y-112300000D03*
X137200000Y-115200000D03*
X141600000Y-112300000D03*
X141600000Y-115200000D03*
X146000000Y-112300000D03*
X146000000Y-115200000D03*
X150400000Y-112300000D03*
X150400000Y-115200000D03*
X137200000Y-76300000D03*
X137200000Y-73400000D03*
X134700000Y-73400000D03*
X134700000Y-76300000D03*
X132200000Y-76300000D03*
X132200000Y-73400000D03*
X139400000Y-112300000D03*
X139400000Y-115200000D03*
X143800000Y-112300000D03*
X143800000Y-115200000D03*
X148200000Y-112300000D03*
X148200000Y-115200000D03*
X152600000Y-112300000D03*
X152600000Y-115200000D03*
X128150000Y-76300000D03*
X128150000Y-73400000D03*
X125550000Y-73400000D03*
X125550000Y-76300000D03*
X122900000Y-76300000D03*
X122900000Y-73400000D03*
D18*
X139400000Y-113700000D03*
X143800000Y-113700000D03*
X148200000Y-113700000D03*
X152600000Y-113700000D03*
X123750000Y-98750002D03*
X164650000Y-91800000D03*
X164700000Y-88600000D03*
X164800000Y-94650000D03*
X164700000Y-82850000D03*
X164800000Y-79700000D03*
X164700000Y-76600000D03*
X164750000Y-73400000D03*
X152600000Y-69400000D03*
X181700000Y-68900000D03*
X184700000Y-77100000D03*
X184650000Y-84550000D03*
X184800000Y-92350000D03*
X154300000Y-94550000D03*
X154200000Y-72800000D03*
X164650000Y-86000000D03*
X97000000Y-93450000D03*
D19*
X179217999Y-112484002D02*
X179668001Y-112034000D01*
X179217999Y-114815918D02*
X179217999Y-112484002D01*
X179668001Y-112034000D02*
X180430000Y-111272001D01*
X180450000Y-116047919D02*
X179217999Y-114815918D01*
X180450000Y-117250000D02*
X180450000Y-116047919D01*
X178517989Y-110882011D02*
X180430000Y-108970000D01*
X180430000Y-108970000D02*
X180430000Y-108732001D01*
X178517989Y-112832011D02*
X178517989Y-110882011D01*
X175450000Y-115900000D02*
X178517989Y-112832011D01*
X175400000Y-112850000D02*
X176800000Y-112850000D01*
X179668001Y-106954000D02*
X180430000Y-106192001D01*
X177817979Y-108804022D02*
X179668001Y-106954000D01*
X177817979Y-111832021D02*
X177817979Y-108804022D01*
X176800000Y-112850000D02*
X177817979Y-111832021D01*
X177085988Y-106996013D02*
X179668001Y-104414000D01*
X177085988Y-108104012D02*
X177085988Y-106996013D01*
X179668001Y-104414000D02*
X180430000Y-103652001D01*
X175390000Y-109800000D02*
X177085988Y-108104012D01*
X180430000Y-101670000D02*
X180430000Y-101112001D01*
X175350000Y-106750000D02*
X180430000Y-101670000D01*
X180430000Y-98620000D02*
X180430000Y-98572001D01*
X175350000Y-103700000D02*
X180430000Y-98620000D01*
X179967999Y-96032001D02*
X180430000Y-96032001D01*
X175350000Y-100650000D02*
X179967999Y-96032001D01*
X179457999Y-93492001D02*
X180430000Y-93492001D01*
X175350000Y-97600000D02*
X179457999Y-93492001D01*
X178947999Y-90952001D02*
X180430000Y-90952001D01*
X175350000Y-94550000D02*
X178947999Y-90952001D01*
X177342001Y-91500000D02*
X180430000Y-88412001D01*
X175350000Y-91500000D02*
X177342001Y-91500000D01*
X177852001Y-88450000D02*
X180430000Y-85872001D01*
X175340000Y-88450000D02*
X177852001Y-88450000D01*
X178362001Y-85400000D02*
X180430000Y-83332001D01*
X175340000Y-85400000D02*
X178362001Y-85400000D01*
X178872001Y-82350000D02*
X180430000Y-80792001D01*
X175340000Y-82350000D02*
X178872001Y-82350000D01*
X179382001Y-79300000D02*
X180430000Y-78252001D01*
X175400000Y-79300000D02*
X179382001Y-79300000D01*
X179892001Y-76250000D02*
X180430000Y-75712001D01*
X175400000Y-76250000D02*
X179892001Y-76250000D01*
X180402001Y-73200000D02*
X180430000Y-73172001D01*
X175400000Y-73200000D02*
X180402001Y-73200000D01*
X114060000Y-71978001D02*
X115406000Y-70632001D01*
X114060000Y-74000000D02*
X114060000Y-71978001D01*
X114040000Y-77100000D02*
X115640000Y-75500000D01*
X117610002Y-75500000D02*
X118200000Y-74910002D01*
X115640000Y-75500000D02*
X117610002Y-75500000D01*
X118200000Y-74910002D02*
X118200000Y-72700000D01*
X117946000Y-72446000D02*
X117946000Y-70632001D01*
X118200000Y-72700000D02*
X117946000Y-72446000D01*
X117400000Y-78700000D02*
X120486000Y-75614000D01*
X120486000Y-75614000D02*
X120486000Y-70632001D01*
X115540000Y-78700000D02*
X117400000Y-78700000D01*
X114040000Y-80200000D02*
X115540000Y-78700000D01*
X122900000Y-70758001D02*
X123026000Y-70632001D01*
X122900000Y-73400000D02*
X122900000Y-70758001D01*
X125550000Y-70648001D02*
X125566000Y-70632001D01*
X125550000Y-73400000D02*
X125550000Y-70648001D01*
X128150000Y-70676001D02*
X128106000Y-70632001D01*
X128150000Y-73400000D02*
X128150000Y-70676001D01*
X132200000Y-70662001D02*
X132170000Y-70632001D01*
X132200000Y-73400000D02*
X132200000Y-70662001D01*
X134700000Y-70642001D02*
X134710000Y-70632001D01*
X134700000Y-73400000D02*
X134700000Y-70642001D01*
X137200000Y-70682001D02*
X137250000Y-70632001D01*
X137200000Y-73400000D02*
X137200000Y-70682001D01*
X139800000Y-70642001D02*
X139790000Y-70632001D01*
X139800000Y-73400000D02*
X139800000Y-70642001D01*
X142250000Y-70712001D02*
X142330000Y-70632001D01*
X142250000Y-73400000D02*
X142250000Y-70712001D01*
X144850000Y-70652001D02*
X144870000Y-70632001D01*
X144850000Y-73400000D02*
X144850000Y-70652001D01*
X172860000Y-73200000D02*
X172860000Y-76250000D01*
X172860000Y-76250000D02*
X172860000Y-79300000D01*
X172860000Y-82290000D02*
X172800000Y-82350000D01*
X172860000Y-79300000D02*
X172860000Y-82290000D01*
D20*
X122010000Y-120912001D02*
X123197999Y-122100000D01*
X122010000Y-118892001D02*
X122010000Y-120912001D01*
X154503184Y-122100000D02*
X160703184Y-115900000D01*
X123197999Y-122100000D02*
X154503184Y-122100000D01*
X179740000Y-122100000D02*
X154503184Y-122100000D01*
X180450000Y-121390000D02*
X179740000Y-122100000D01*
X180450000Y-119790000D02*
X180450000Y-121390000D01*
X160703184Y-115900000D02*
X171250000Y-115900000D01*
X171250000Y-115900000D02*
X172850000Y-115900000D01*
D21*
X172850000Y-112860000D02*
X172860000Y-112850000D01*
X172850000Y-115900000D02*
X172850000Y-112860000D01*
X172860000Y-109810000D02*
X172850000Y-109800000D01*
X172860000Y-112850000D02*
X172860000Y-109810000D01*
X172850000Y-106790000D02*
X172810000Y-106750000D01*
X172850000Y-109800000D02*
X172850000Y-106790000D01*
X172810000Y-106750000D02*
X172810000Y-103700000D01*
X172810000Y-103700000D02*
X172810000Y-100650000D01*
X172810000Y-100650000D02*
X172810000Y-97600000D01*
X172810000Y-97600000D02*
X172810000Y-94550000D01*
X172810000Y-94550000D02*
X172810000Y-91500000D01*
X172810000Y-88460000D02*
X172800000Y-88450000D01*
X172810000Y-91500000D02*
X172810000Y-88460000D01*
X172800000Y-88450000D02*
X172800000Y-85400000D01*
X172800000Y-85400000D02*
X172800000Y-82350000D01*
X172800000Y-82350000D02*
X172800000Y-79300000D01*
X172800000Y-79300000D02*
X172800000Y-76250000D01*
X172800000Y-76250000D02*
X172800000Y-73200000D01*
D19*
X111500000Y-80200000D02*
X111500000Y-77100000D01*
X111500000Y-74020000D02*
X111520000Y-74000000D01*
X111500000Y-77100000D02*
X111500000Y-74020000D01*
X139400000Y-112300000D02*
X139400000Y-113700000D01*
X143800000Y-112300000D02*
X143800000Y-113700000D01*
X148200000Y-112300000D02*
X148200000Y-113700000D01*
X152600000Y-112300000D02*
X152600000Y-113700000D01*
D21*
X127472000Y-97420000D02*
X125080002Y-97420000D01*
X125080002Y-97420000D02*
X124149999Y-98350003D01*
X124149999Y-98350003D02*
X123750000Y-98750002D01*
D20*
X132170000Y-118384001D02*
X132170000Y-118892001D01*
D22*
X90150000Y-87244000D02*
X90134000Y-87260000D01*
X90150000Y-78740000D02*
X90150000Y-87244000D01*
D21*
X102807999Y-87260000D02*
X90134000Y-87260000D01*
X132170000Y-116622001D02*
X102807999Y-87260000D01*
X132170000Y-118892001D02*
X132170000Y-116622001D01*
D19*
X146000000Y-115200000D02*
X148200000Y-115200000D01*
X145910002Y-115200000D02*
X146000000Y-115200000D01*
X142330000Y-118780002D02*
X145910002Y-115200000D01*
X142330000Y-118892001D02*
X142330000Y-118780002D01*
X141600000Y-115200000D02*
X143800000Y-115200000D01*
X139790000Y-117010000D02*
X141600000Y-115200000D01*
X139790000Y-118892001D02*
X139790000Y-117010000D01*
X137200000Y-115200000D02*
X139400000Y-115200000D01*
X137200000Y-118842001D02*
X137250000Y-118892001D01*
X137200000Y-115200000D02*
X137200000Y-118842001D01*
X150400000Y-115200000D02*
X152600000Y-115200000D01*
X144870000Y-118384001D02*
X146454001Y-116800000D01*
X144870000Y-118892001D02*
X144870000Y-118384001D01*
X150400000Y-116150000D02*
X150400000Y-115200000D01*
X149750000Y-116800000D02*
X150400000Y-116150000D01*
X146454001Y-116800000D02*
X149750000Y-116800000D01*
D22*
X87534000Y-77716000D02*
X87534000Y-98234000D01*
X90150000Y-75100000D02*
X87534000Y-77716000D01*
X87534000Y-98234000D02*
X90100000Y-100800000D01*
X90100000Y-102466000D02*
X90134000Y-102500000D01*
X90100000Y-100800000D02*
X90100000Y-102466000D01*
D19*
X90250000Y-75000000D02*
X90150000Y-75100000D01*
X97050000Y-75000000D02*
X90250000Y-75000000D01*
D21*
X131590000Y-101710000D02*
X131900000Y-102020000D01*
X133247919Y-93850000D02*
X134450000Y-93850000D01*
X132462000Y-93850000D02*
X133247919Y-93850000D01*
X127472000Y-88860000D02*
X132462000Y-93850000D01*
X127472000Y-87260000D02*
X127472000Y-88860000D01*
X140710000Y-93850000D02*
X140750000Y-93890000D01*
X134450000Y-93850000D02*
X140710000Y-93850000D01*
X140750000Y-93890000D02*
X140750000Y-96700000D01*
X141700000Y-97650000D02*
X141700000Y-102020000D01*
X140750000Y-96700000D02*
X141700000Y-97650000D01*
X131900000Y-102020000D02*
X135200000Y-102020000D01*
X135200000Y-102020000D02*
X138500000Y-102020000D01*
X138500000Y-102020000D02*
X141700000Y-102020000D01*
X141700000Y-102020000D02*
X144900000Y-102020000D01*
X148080000Y-102020000D02*
X148100000Y-102000000D01*
X144900000Y-102020000D02*
X148080000Y-102020000D01*
X151300000Y-102000000D02*
X148100000Y-102000000D01*
X151320000Y-102020000D02*
X151300000Y-102000000D01*
X154500000Y-102020000D02*
X151320000Y-102020000D01*
D19*
X183677999Y-73172001D02*
X182970000Y-73172001D01*
X183700000Y-73150000D02*
X183677999Y-73172001D01*
X182972001Y-78250000D02*
X182970000Y-78252001D01*
X90134000Y-97420000D02*
X93030000Y-97420000D01*
X93030000Y-97420000D02*
X97000000Y-93450000D01*
X99600000Y-75010000D02*
X99590000Y-75000000D01*
X144850000Y-76380000D02*
X147370000Y-78900000D01*
X144850000Y-76300000D02*
X144850000Y-76380000D01*
X142250000Y-76320000D02*
X144830000Y-78900000D01*
X142250000Y-76300000D02*
X142250000Y-76320000D01*
X139800000Y-76410000D02*
X142290000Y-78900000D01*
X139800000Y-76300000D02*
X139800000Y-76410000D01*
X132749999Y-105409999D02*
X131900000Y-104560000D01*
X133200001Y-105860001D02*
X132749999Y-105409999D01*
X133200001Y-107350001D02*
X133200001Y-105860001D01*
X137200000Y-111350000D02*
X133200001Y-107350001D01*
X137200000Y-112300000D02*
X137200000Y-111350000D01*
X136500001Y-105860001D02*
X136049999Y-105409999D01*
X136500001Y-107300001D02*
X136500001Y-105860001D01*
X136049999Y-105409999D02*
X135200000Y-104560000D01*
X141500000Y-112300000D02*
X136500001Y-107300001D01*
X141600000Y-112300000D02*
X141500000Y-112300000D01*
X139349999Y-105409999D02*
X138500000Y-104560000D01*
X141076000Y-109000000D02*
X139800001Y-107724001D01*
X139800001Y-105860001D02*
X139349999Y-105409999D01*
X143650000Y-109000000D02*
X141076000Y-109000000D01*
X139800001Y-107724001D02*
X139800001Y-105860001D01*
X146000000Y-111350000D02*
X143650000Y-109000000D01*
X146000000Y-112300000D02*
X146000000Y-111350000D01*
X142549999Y-105409999D02*
X141700000Y-104560000D01*
X143000001Y-105860001D02*
X142549999Y-105409999D01*
X143000001Y-107124003D02*
X143000001Y-105860001D01*
X144875998Y-109000000D02*
X143000001Y-107124003D01*
X148050000Y-109000000D02*
X144875998Y-109000000D01*
X150400000Y-111350000D02*
X148050000Y-109000000D01*
X150400000Y-112300000D02*
X150400000Y-111350000D01*
X137180000Y-76320000D02*
X137200000Y-76300000D01*
X137180000Y-78900000D02*
X137180000Y-76320000D01*
X134640000Y-76360000D02*
X134700000Y-76300000D01*
X134640000Y-78900000D02*
X134640000Y-76360000D01*
X132100000Y-76400000D02*
X132200000Y-76300000D01*
X132100000Y-78900000D02*
X132100000Y-76400000D01*
X126980000Y-77470000D02*
X128150000Y-76300000D01*
X126980000Y-78900000D02*
X126980000Y-77470000D01*
X124440000Y-77410000D02*
X125550000Y-76300000D01*
X124440000Y-78900000D02*
X124440000Y-77410000D01*
X122900000Y-77900000D02*
X121900000Y-78900000D01*
X122900000Y-76300000D02*
X122900000Y-77900000D01*
D23*
G36*
X183966504Y-68046385D02*
G01*
X184227593Y-68103181D01*
X184477940Y-68196556D01*
X184712445Y-68324605D01*
X184926338Y-68484724D01*
X185115276Y-68673662D01*
X185275395Y-68887555D01*
X185403444Y-69122060D01*
X185496819Y-69372407D01*
X185553615Y-69633496D01*
X185573000Y-69904530D01*
X185573000Y-93445470D01*
X185553615Y-93716504D01*
X185496819Y-93977593D01*
X185403444Y-94227940D01*
X185275395Y-94462445D01*
X185115276Y-94676338D01*
X184926338Y-94865276D01*
X184712445Y-95025395D01*
X184477940Y-95153444D01*
X184227593Y-95246819D01*
X184138469Y-95266207D01*
X184055120Y-95141466D01*
X183860535Y-94946881D01*
X183631727Y-94793996D01*
X183554485Y-94762001D01*
X183631727Y-94730006D01*
X183860535Y-94577121D01*
X184055120Y-94382536D01*
X184208005Y-94153728D01*
X184313314Y-93899491D01*
X184367000Y-93629593D01*
X184367000Y-93354409D01*
X184313314Y-93084511D01*
X184208005Y-92830274D01*
X184055120Y-92601466D01*
X183860535Y-92406881D01*
X183631727Y-92253996D01*
X183554485Y-92222001D01*
X183631727Y-92190006D01*
X183860535Y-92037121D01*
X184055120Y-91842536D01*
X184208005Y-91613728D01*
X184313314Y-91359491D01*
X184367000Y-91089593D01*
X184367000Y-90814409D01*
X184313314Y-90544511D01*
X184208005Y-90290274D01*
X184055120Y-90061466D01*
X183860535Y-89866881D01*
X183631727Y-89713996D01*
X183554485Y-89682001D01*
X183631727Y-89650006D01*
X183860535Y-89497121D01*
X184055120Y-89302536D01*
X184208005Y-89073728D01*
X184313314Y-88819491D01*
X184367000Y-88549593D01*
X184367000Y-88274409D01*
X184313314Y-88004511D01*
X184208005Y-87750274D01*
X184055120Y-87521466D01*
X183860535Y-87326881D01*
X183631727Y-87173996D01*
X183554485Y-87142001D01*
X183631727Y-87110006D01*
X183860535Y-86957121D01*
X184055120Y-86762536D01*
X184208005Y-86533728D01*
X184313314Y-86279491D01*
X184367000Y-86009593D01*
X184367000Y-85734409D01*
X184313314Y-85464511D01*
X184208005Y-85210274D01*
X184055120Y-84981466D01*
X183860535Y-84786881D01*
X183631727Y-84633996D01*
X183554485Y-84602001D01*
X183631727Y-84570006D01*
X183860535Y-84417121D01*
X184055120Y-84222536D01*
X184208005Y-83993728D01*
X184313314Y-83739491D01*
X184367000Y-83469593D01*
X184367000Y-83194409D01*
X184313314Y-82924511D01*
X184208005Y-82670274D01*
X184055120Y-82441466D01*
X183860535Y-82246881D01*
X183631727Y-82093996D01*
X183554485Y-82062001D01*
X183631727Y-82030006D01*
X183860535Y-81877121D01*
X184055120Y-81682536D01*
X184208005Y-81453728D01*
X184313314Y-81199491D01*
X184367000Y-80929593D01*
X184367000Y-80654409D01*
X184313314Y-80384511D01*
X184208005Y-80130274D01*
X184055120Y-79901466D01*
X183860535Y-79706881D01*
X183631727Y-79553996D01*
X183554485Y-79522001D01*
X183631727Y-79490006D01*
X183860535Y-79337121D01*
X184055120Y-79142536D01*
X184208005Y-78913728D01*
X184313314Y-78659491D01*
X184367000Y-78389593D01*
X184367000Y-78114409D01*
X184313314Y-77844511D01*
X184208005Y-77590274D01*
X184055120Y-77361466D01*
X183860535Y-77166881D01*
X183631727Y-77013996D01*
X183554485Y-76982001D01*
X183631727Y-76950006D01*
X183860535Y-76797121D01*
X184055120Y-76602536D01*
X184208005Y-76373728D01*
X184313314Y-76119491D01*
X184367000Y-75849593D01*
X184367000Y-75574409D01*
X184313314Y-75304511D01*
X184208005Y-75050274D01*
X184055120Y-74821466D01*
X183860535Y-74626881D01*
X183631727Y-74473996D01*
X183554485Y-74442001D01*
X183631727Y-74410006D01*
X183860535Y-74257121D01*
X184055120Y-74062536D01*
X184147231Y-73924682D01*
X184172058Y-73911412D01*
X184306816Y-73800818D01*
X184334533Y-73767045D01*
X184356532Y-73745046D01*
X184439410Y-73644059D01*
X184521588Y-73490313D01*
X184572194Y-73323490D01*
X184589281Y-73150001D01*
X184572194Y-72976511D01*
X184521588Y-72809687D01*
X184439410Y-72655942D01*
X184328817Y-72521183D01*
X184194058Y-72410590D01*
X184112142Y-72366805D01*
X184055120Y-72281466D01*
X183860535Y-72086881D01*
X183631727Y-71933996D01*
X183554485Y-71902001D01*
X183631727Y-71870006D01*
X183860535Y-71717121D01*
X184055120Y-71522536D01*
X184208005Y-71293728D01*
X184313314Y-71039491D01*
X184367000Y-70769593D01*
X184367000Y-70494409D01*
X184313314Y-70224511D01*
X184208005Y-69970274D01*
X184055120Y-69741466D01*
X183860535Y-69546881D01*
X183631727Y-69393996D01*
X183377490Y-69288687D01*
X183107592Y-69235001D01*
X182832408Y-69235001D01*
X182562510Y-69288687D01*
X182308273Y-69393996D01*
X182079465Y-69546881D01*
X181884880Y-69741466D01*
X181731995Y-69970274D01*
X181700000Y-70047516D01*
X181668005Y-69970274D01*
X181515120Y-69741466D01*
X181320535Y-69546881D01*
X181091727Y-69393996D01*
X180837490Y-69288687D01*
X180567592Y-69235001D01*
X180292408Y-69235001D01*
X180022510Y-69288687D01*
X179768273Y-69393996D01*
X179539465Y-69546881D01*
X179344880Y-69741466D01*
X179191995Y-69970274D01*
X179086686Y-70224511D01*
X179033000Y-70494409D01*
X179033000Y-70769593D01*
X179086686Y-71039491D01*
X179191995Y-71293728D01*
X179344880Y-71522536D01*
X179539465Y-71717121D01*
X179768273Y-71870006D01*
X179845515Y-71902001D01*
X179768273Y-71933996D01*
X179539465Y-72086881D01*
X179344880Y-72281466D01*
X179322473Y-72315000D01*
X176534759Y-72315000D01*
X176395134Y-72144866D01*
X176169014Y-71959294D01*
X175911034Y-71821401D01*
X175631111Y-71736487D01*
X175412950Y-71715000D01*
X175267050Y-71715000D01*
X175048889Y-71736487D01*
X174768966Y-71821401D01*
X174510986Y-71959294D01*
X174284866Y-72144866D01*
X174260393Y-72174687D01*
X174239502Y-72105820D01*
X174180537Y-71995506D01*
X174101185Y-71898815D01*
X174022822Y-71834504D01*
X174106904Y-71677196D01*
X174186786Y-71413861D01*
X174207000Y-71208626D01*
X174207000Y-70055376D01*
X174186786Y-69850141D01*
X174106904Y-69586806D01*
X173977183Y-69344114D01*
X173802607Y-69131393D01*
X173589886Y-68956818D01*
X173347194Y-68827097D01*
X173083859Y-68747215D01*
X172810000Y-68720242D01*
X172536140Y-68747215D01*
X172272805Y-68827097D01*
X172030113Y-68956818D01*
X171817392Y-69131394D01*
X171642817Y-69344115D01*
X171540000Y-69536472D01*
X171437183Y-69344114D01*
X171262607Y-69131393D01*
X171049886Y-68956818D01*
X170807194Y-68827097D01*
X170543859Y-68747215D01*
X170270000Y-68720242D01*
X169996140Y-68747215D01*
X169732805Y-68827097D01*
X169490113Y-68956818D01*
X169277392Y-69131394D01*
X169102817Y-69344115D01*
X169000000Y-69536472D01*
X168897183Y-69344114D01*
X168722607Y-69131393D01*
X168509886Y-68956818D01*
X168267194Y-68827097D01*
X168003859Y-68747215D01*
X167730000Y-68720242D01*
X167456140Y-68747215D01*
X167192805Y-68827097D01*
X166950113Y-68956818D01*
X166737392Y-69131394D01*
X166562817Y-69344115D01*
X166460000Y-69536472D01*
X166357183Y-69344114D01*
X166182607Y-69131393D01*
X165969886Y-68956818D01*
X165727194Y-68827097D01*
X165463859Y-68747215D01*
X165190000Y-68720242D01*
X164916140Y-68747215D01*
X164652805Y-68827097D01*
X164410113Y-68956818D01*
X164197392Y-69131394D01*
X164022817Y-69344115D01*
X163920000Y-69536472D01*
X163817183Y-69344114D01*
X163642607Y-69131393D01*
X163429886Y-68956818D01*
X163187194Y-68827097D01*
X162923859Y-68747215D01*
X162650000Y-68720242D01*
X162376140Y-68747215D01*
X162112805Y-68827097D01*
X161870113Y-68956818D01*
X161657392Y-69131394D01*
X161482817Y-69344115D01*
X161380000Y-69536472D01*
X161277183Y-69344114D01*
X161102607Y-69131393D01*
X160889886Y-68956818D01*
X160647194Y-68827097D01*
X160383859Y-68747215D01*
X160110000Y-68720242D01*
X159836140Y-68747215D01*
X159572805Y-68827097D01*
X159330113Y-68956818D01*
X159117392Y-69131394D01*
X158942817Y-69344115D01*
X158840000Y-69536472D01*
X158737183Y-69344114D01*
X158562607Y-69131393D01*
X158349886Y-68956818D01*
X158107194Y-68827097D01*
X157843859Y-68747215D01*
X157570000Y-68720242D01*
X157296140Y-68747215D01*
X157032805Y-68827097D01*
X156790113Y-68956818D01*
X156577392Y-69131394D01*
X156402817Y-69344115D01*
X156300000Y-69536472D01*
X156197183Y-69344114D01*
X156022607Y-69131393D01*
X155809886Y-68956818D01*
X155567194Y-68827097D01*
X155303859Y-68747215D01*
X155030000Y-68720242D01*
X154756140Y-68747215D01*
X154492805Y-68827097D01*
X154250113Y-68956818D01*
X154037392Y-69131394D01*
X153862817Y-69344115D01*
X153733096Y-69586807D01*
X153653214Y-69850142D01*
X153633000Y-70055377D01*
X153633000Y-71208626D01*
X153653214Y-71413861D01*
X153733096Y-71677196D01*
X153862817Y-71919888D01*
X154037393Y-72132609D01*
X154250114Y-72307184D01*
X154492806Y-72436905D01*
X154756141Y-72516787D01*
X155030000Y-72543760D01*
X155303860Y-72516787D01*
X155567195Y-72436905D01*
X155809887Y-72307184D01*
X156022608Y-72132609D01*
X156197183Y-71919888D01*
X156300000Y-71727530D01*
X156402817Y-71919888D01*
X156577393Y-72132609D01*
X156790114Y-72307184D01*
X157032806Y-72436905D01*
X157296141Y-72516787D01*
X157570000Y-72543760D01*
X157843860Y-72516787D01*
X158107195Y-72436905D01*
X158349887Y-72307184D01*
X158562608Y-72132609D01*
X158737183Y-71919888D01*
X158840000Y-71727530D01*
X158942817Y-71919888D01*
X159117393Y-72132609D01*
X159330114Y-72307184D01*
X159572806Y-72436905D01*
X159836141Y-72516787D01*
X160110000Y-72543760D01*
X160383860Y-72516787D01*
X160647195Y-72436905D01*
X160889887Y-72307184D01*
X161102608Y-72132609D01*
X161277183Y-71919888D01*
X161380000Y-71727530D01*
X161482817Y-71919888D01*
X161657393Y-72132609D01*
X161870114Y-72307184D01*
X162112806Y-72436905D01*
X162376141Y-72516787D01*
X162650000Y-72543760D01*
X162923860Y-72516787D01*
X163187195Y-72436905D01*
X163429887Y-72307184D01*
X163642608Y-72132609D01*
X163817183Y-71919888D01*
X163920000Y-71727530D01*
X164022817Y-71919888D01*
X164197393Y-72132609D01*
X164410114Y-72307184D01*
X164652806Y-72436905D01*
X164916141Y-72516787D01*
X165190000Y-72543760D01*
X165463860Y-72516787D01*
X165727195Y-72436905D01*
X165969887Y-72307184D01*
X166182608Y-72132609D01*
X166357183Y-71919888D01*
X166460000Y-71727530D01*
X166562817Y-71919888D01*
X166737393Y-72132609D01*
X166950114Y-72307184D01*
X167192806Y-72436905D01*
X167456141Y-72516787D01*
X167730000Y-72543760D01*
X168003860Y-72516787D01*
X168267195Y-72436905D01*
X168509887Y-72307184D01*
X168722608Y-72132609D01*
X168897183Y-71919888D01*
X169000000Y-71727530D01*
X169102817Y-71919888D01*
X169277393Y-72132609D01*
X169490114Y-72307184D01*
X169732806Y-72436905D01*
X169996141Y-72516787D01*
X170270000Y-72543760D01*
X170543860Y-72516787D01*
X170807195Y-72436905D01*
X171049887Y-72307184D01*
X171262608Y-72132609D01*
X171437183Y-71919888D01*
X171540000Y-71727530D01*
X171591080Y-71823095D01*
X171498815Y-71898815D01*
X171419463Y-71995506D01*
X171360498Y-72105820D01*
X171324188Y-72225518D01*
X171311928Y-72350000D01*
X171311928Y-74050000D01*
X171324188Y-74174482D01*
X171360498Y-74294180D01*
X171419463Y-74404494D01*
X171498815Y-74501185D01*
X171595506Y-74580537D01*
X171665001Y-74617683D01*
X171665000Y-74832317D01*
X171595506Y-74869463D01*
X171498815Y-74948815D01*
X171419463Y-75045506D01*
X171360498Y-75155820D01*
X171324188Y-75275518D01*
X171311928Y-75400000D01*
X171311928Y-77100000D01*
X171324188Y-77224482D01*
X171360498Y-77344180D01*
X171419463Y-77454494D01*
X171498815Y-77551185D01*
X171595506Y-77630537D01*
X171665001Y-77667683D01*
X171665000Y-77882317D01*
X171595506Y-77919463D01*
X171498815Y-77998815D01*
X171419463Y-78095506D01*
X171360498Y-78205820D01*
X171324188Y-78325518D01*
X171311928Y-78450000D01*
X171311928Y-80150000D01*
X171324188Y-80274482D01*
X171360498Y-80394180D01*
X171419463Y-80504494D01*
X171498815Y-80601185D01*
X171595506Y-80680537D01*
X171665001Y-80717683D01*
X171665000Y-80932317D01*
X171595506Y-80969463D01*
X171498815Y-81048815D01*
X171419463Y-81145506D01*
X171360498Y-81255820D01*
X171324188Y-81375518D01*
X171311928Y-81500000D01*
X171311928Y-83200000D01*
X171324188Y-83324482D01*
X171360498Y-83444180D01*
X171419463Y-83554494D01*
X171498815Y-83651185D01*
X171595506Y-83730537D01*
X171665001Y-83767683D01*
X171665000Y-83982317D01*
X171595506Y-84019463D01*
X171498815Y-84098815D01*
X171419463Y-84195506D01*
X171360498Y-84305820D01*
X171324188Y-84425518D01*
X171311928Y-84550000D01*
X171311928Y-86250000D01*
X171324188Y-86374482D01*
X171360498Y-86494180D01*
X171419463Y-86604494D01*
X171498815Y-86701185D01*
X171595506Y-86780537D01*
X171665001Y-86817683D01*
X171665000Y-87032317D01*
X171595506Y-87069463D01*
X171498815Y-87148815D01*
X171419463Y-87245506D01*
X171360498Y-87355820D01*
X171324188Y-87475518D01*
X171311928Y-87600000D01*
X171311928Y-89300000D01*
X171324188Y-89424482D01*
X171360498Y-89544180D01*
X171419463Y-89654494D01*
X171498815Y-89751185D01*
X171595506Y-89830537D01*
X171675001Y-89873028D01*
X171675000Y-90082317D01*
X171605506Y-90119463D01*
X171508815Y-90198815D01*
X171429463Y-90295506D01*
X171370498Y-90405820D01*
X171334188Y-90525518D01*
X171321928Y-90650000D01*
X171321928Y-92350000D01*
X171334188Y-92474482D01*
X171370498Y-92594180D01*
X171429463Y-92704494D01*
X171508815Y-92801185D01*
X171605506Y-92880537D01*
X171675001Y-92917683D01*
X171675000Y-93132317D01*
X171605506Y-93169463D01*
X171508815Y-93248815D01*
X171429463Y-93345506D01*
X171370498Y-93455820D01*
X171334188Y-93575518D01*
X171321928Y-93700000D01*
X171321928Y-95323000D01*
X153354530Y-95323000D01*
X153083496Y-95303615D01*
X152822407Y-95246819D01*
X152572060Y-95153444D01*
X152337555Y-95025395D01*
X152123662Y-94865276D01*
X151934724Y-94676338D01*
X151774605Y-94462445D01*
X151646556Y-94227940D01*
X151553181Y-93977593D01*
X151496385Y-93716504D01*
X151477000Y-93445470D01*
X151477000Y-84000000D01*
X156661928Y-84000000D01*
X156661928Y-85700000D01*
X156674188Y-85824482D01*
X156710498Y-85944180D01*
X156769463Y-86054494D01*
X156827326Y-86125000D01*
X156769463Y-86195506D01*
X156710498Y-86305820D01*
X156674188Y-86425518D01*
X156661928Y-86550000D01*
X156661928Y-88250000D01*
X156674188Y-88374482D01*
X156710498Y-88494180D01*
X156769463Y-88604494D01*
X156827326Y-88675000D01*
X156769463Y-88745506D01*
X156710498Y-88855820D01*
X156674188Y-88975518D01*
X156661928Y-89100000D01*
X156661928Y-90800000D01*
X156674188Y-90924482D01*
X156710498Y-91044180D01*
X156769463Y-91154494D01*
X156827326Y-91225000D01*
X156769463Y-91295506D01*
X156710498Y-91405820D01*
X156674188Y-91525518D01*
X156661928Y-91650000D01*
X156661928Y-93350000D01*
X156674188Y-93474482D01*
X156710498Y-93594180D01*
X156769463Y-93704494D01*
X156848815Y-93801185D01*
X156945506Y-93880537D01*
X157055820Y-93939502D01*
X157175518Y-93975812D01*
X157300000Y-93988072D01*
X159000000Y-93988072D01*
X159124482Y-93975812D01*
X159244180Y-93939502D01*
X159354494Y-93880537D01*
X159451185Y-93801185D01*
X159530537Y-93704494D01*
X159589502Y-93594180D01*
X159610393Y-93525313D01*
X159634866Y-93555134D01*
X159860986Y-93740706D01*
X160118966Y-93878599D01*
X160398889Y-93963513D01*
X160617050Y-93985000D01*
X160762950Y-93985000D01*
X160981111Y-93963513D01*
X161261034Y-93878599D01*
X161519014Y-93740706D01*
X161745134Y-93555134D01*
X161930706Y-93329014D01*
X162068599Y-93071034D01*
X162153513Y-92791111D01*
X162182185Y-92500000D01*
X162153513Y-92208889D01*
X162068599Y-91928966D01*
X161930706Y-91670986D01*
X161745134Y-91444866D01*
X161519014Y-91259294D01*
X161454854Y-91225000D01*
X161519014Y-91190706D01*
X161745134Y-91005134D01*
X161930706Y-90779014D01*
X162068599Y-90521034D01*
X162153513Y-90241111D01*
X162182185Y-89950000D01*
X162153513Y-89658889D01*
X162068599Y-89378966D01*
X161930706Y-89120986D01*
X161745134Y-88894866D01*
X161519014Y-88709294D01*
X161454854Y-88675000D01*
X161519014Y-88640706D01*
X161745134Y-88455134D01*
X161930706Y-88229014D01*
X162068599Y-87971034D01*
X162153513Y-87691111D01*
X162182185Y-87400000D01*
X162153513Y-87108889D01*
X162068599Y-86828966D01*
X161930706Y-86570986D01*
X161745134Y-86344866D01*
X161519014Y-86159294D01*
X161454854Y-86125000D01*
X161519014Y-86090706D01*
X161745134Y-85905134D01*
X161930706Y-85679014D01*
X162068599Y-85421034D01*
X162153513Y-85141111D01*
X162182185Y-84850000D01*
X162153513Y-84558889D01*
X162068599Y-84278966D01*
X161930706Y-84020986D01*
X161745134Y-83794866D01*
X161519014Y-83609294D01*
X161479854Y-83588363D01*
X161569014Y-83540706D01*
X161795134Y-83355134D01*
X161980706Y-83129014D01*
X162118599Y-82871034D01*
X162203513Y-82591111D01*
X162232185Y-82300000D01*
X162203513Y-82008889D01*
X162118599Y-81728966D01*
X161980706Y-81470986D01*
X161795134Y-81244866D01*
X161569014Y-81059294D01*
X161504854Y-81025000D01*
X161569014Y-80990706D01*
X161795134Y-80805134D01*
X161980706Y-80579014D01*
X162118599Y-80321034D01*
X162203513Y-80041111D01*
X162232185Y-79750000D01*
X162203513Y-79458889D01*
X162118599Y-79178966D01*
X161980706Y-78920986D01*
X161795134Y-78694866D01*
X161569014Y-78509294D01*
X161504854Y-78475000D01*
X161569014Y-78440706D01*
X161795134Y-78255134D01*
X161980706Y-78029014D01*
X162118599Y-77771034D01*
X162203513Y-77491111D01*
X162232185Y-77200000D01*
X162203513Y-76908889D01*
X162118599Y-76628966D01*
X161980706Y-76370986D01*
X161795134Y-76144866D01*
X161569014Y-75959294D01*
X161504854Y-75925000D01*
X161569014Y-75890706D01*
X161795134Y-75705134D01*
X161980706Y-75479014D01*
X162118599Y-75221034D01*
X162203513Y-74941111D01*
X162232185Y-74650000D01*
X162203513Y-74358889D01*
X162118599Y-74078966D01*
X161980706Y-73820986D01*
X161795134Y-73594866D01*
X161569014Y-73409294D01*
X161311034Y-73271401D01*
X161031111Y-73186487D01*
X160812950Y-73165000D01*
X160667050Y-73165000D01*
X160448889Y-73186487D01*
X160168966Y-73271401D01*
X159910986Y-73409294D01*
X159684866Y-73594866D01*
X159660393Y-73624687D01*
X159639502Y-73555820D01*
X159580537Y-73445506D01*
X159501185Y-73348815D01*
X159404494Y-73269463D01*
X159294180Y-73210498D01*
X159174482Y-73174188D01*
X159050000Y-73161928D01*
X157350000Y-73161928D01*
X157225518Y-73174188D01*
X157105820Y-73210498D01*
X156995506Y-73269463D01*
X156898815Y-73348815D01*
X156819463Y-73445506D01*
X156760498Y-73555820D01*
X156724188Y-73675518D01*
X156711928Y-73800000D01*
X156711928Y-75500000D01*
X156724188Y-75624482D01*
X156760498Y-75744180D01*
X156819463Y-75854494D01*
X156877326Y-75925000D01*
X156819463Y-75995506D01*
X156760498Y-76105820D01*
X156724188Y-76225518D01*
X156711928Y-76350000D01*
X156711928Y-78050000D01*
X156724188Y-78174482D01*
X156760498Y-78294180D01*
X156819463Y-78404494D01*
X156877326Y-78475000D01*
X156819463Y-78545506D01*
X156760498Y-78655820D01*
X156724188Y-78775518D01*
X156711928Y-78900000D01*
X156711928Y-80600000D01*
X156724188Y-80724482D01*
X156760498Y-80844180D01*
X156819463Y-80954494D01*
X156877326Y-81025000D01*
X156819463Y-81095506D01*
X156760498Y-81205820D01*
X156724188Y-81325518D01*
X156711928Y-81450000D01*
X156711928Y-83150000D01*
X156724188Y-83274482D01*
X156760498Y-83394180D01*
X156819463Y-83504494D01*
X156853010Y-83545372D01*
X156848815Y-83548815D01*
X156769463Y-83645506D01*
X156710498Y-83755820D01*
X156674188Y-83875518D01*
X156661928Y-84000000D01*
X151477000Y-84000000D01*
X151477000Y-69904530D01*
X151496385Y-69633496D01*
X151553181Y-69372407D01*
X151646556Y-69122060D01*
X151774605Y-68887555D01*
X151934724Y-68673662D01*
X152123662Y-68484724D01*
X152337555Y-68324605D01*
X152572060Y-68196556D01*
X152822407Y-68103181D01*
X153083496Y-68046385D01*
X153354530Y-68027000D01*
X183695470Y-68027000D01*
X183966504Y-68046385D01*
X183966504Y-68046385D01*
G37*
X183966504Y-68046385D02*
X184227593Y-68103181D01*
X184477940Y-68196556D01*
X184712445Y-68324605D01*
X184926338Y-68484724D01*
X185115276Y-68673662D01*
X185275395Y-68887555D01*
X185403444Y-69122060D01*
X185496819Y-69372407D01*
X185553615Y-69633496D01*
X185573000Y-69904530D01*
X185573000Y-93445470D01*
X185553615Y-93716504D01*
X185496819Y-93977593D01*
X185403444Y-94227940D01*
X185275395Y-94462445D01*
X185115276Y-94676338D01*
X184926338Y-94865276D01*
X184712445Y-95025395D01*
X184477940Y-95153444D01*
X184227593Y-95246819D01*
X184138469Y-95266207D01*
X184055120Y-95141466D01*
X183860535Y-94946881D01*
X183631727Y-94793996D01*
X183554485Y-94762001D01*
X183631727Y-94730006D01*
X183860535Y-94577121D01*
X184055120Y-94382536D01*
X184208005Y-94153728D01*
X184313314Y-93899491D01*
X184367000Y-93629593D01*
X184367000Y-93354409D01*
X184313314Y-93084511D01*
X184208005Y-92830274D01*
X184055120Y-92601466D01*
X183860535Y-92406881D01*
X183631727Y-92253996D01*
X183554485Y-92222001D01*
X183631727Y-92190006D01*
X183860535Y-92037121D01*
X184055120Y-91842536D01*
X184208005Y-91613728D01*
X184313314Y-91359491D01*
X184367000Y-91089593D01*
X184367000Y-90814409D01*
X184313314Y-90544511D01*
X184208005Y-90290274D01*
X184055120Y-90061466D01*
X183860535Y-89866881D01*
X183631727Y-89713996D01*
X183554485Y-89682001D01*
X183631727Y-89650006D01*
X183860535Y-89497121D01*
X184055120Y-89302536D01*
X184208005Y-89073728D01*
X184313314Y-88819491D01*
X184367000Y-88549593D01*
X184367000Y-88274409D01*
X184313314Y-88004511D01*
X184208005Y-87750274D01*
X184055120Y-87521466D01*
X183860535Y-87326881D01*
X183631727Y-87173996D01*
X183554485Y-87142001D01*
X183631727Y-87110006D01*
X183860535Y-86957121D01*
X184055120Y-86762536D01*
X184208005Y-86533728D01*
X184313314Y-86279491D01*
X184367000Y-86009593D01*
X184367000Y-85734409D01*
X184313314Y-85464511D01*
X184208005Y-85210274D01*
X184055120Y-84981466D01*
X183860535Y-84786881D01*
X183631727Y-84633996D01*
X183554485Y-84602001D01*
X183631727Y-84570006D01*
X183860535Y-84417121D01*
X184055120Y-84222536D01*
X184208005Y-83993728D01*
X184313314Y-83739491D01*
X184367000Y-83469593D01*
X184367000Y-83194409D01*
X184313314Y-82924511D01*
X184208005Y-82670274D01*
X184055120Y-82441466D01*
X183860535Y-82246881D01*
X183631727Y-82093996D01*
X183554485Y-82062001D01*
X183631727Y-82030006D01*
X183860535Y-81877121D01*
X184055120Y-81682536D01*
X184208005Y-81453728D01*
X184313314Y-81199491D01*
X184367000Y-80929593D01*
X184367000Y-80654409D01*
X184313314Y-80384511D01*
X184208005Y-80130274D01*
X184055120Y-79901466D01*
X183860535Y-79706881D01*
X183631727Y-79553996D01*
X183554485Y-79522001D01*
X183631727Y-79490006D01*
X183860535Y-79337121D01*
X184055120Y-79142536D01*
X184208005Y-78913728D01*
X184313314Y-78659491D01*
X184367000Y-78389593D01*
X184367000Y-78114409D01*
X184313314Y-77844511D01*
X184208005Y-77590274D01*
X184055120Y-77361466D01*
X183860535Y-77166881D01*
X183631727Y-77013996D01*
X183554485Y-76982001D01*
X183631727Y-76950006D01*
X183860535Y-76797121D01*
X184055120Y-76602536D01*
X184208005Y-76373728D01*
X184313314Y-76119491D01*
X184367000Y-75849593D01*
X184367000Y-75574409D01*
X184313314Y-75304511D01*
X184208005Y-75050274D01*
X184055120Y-74821466D01*
X183860535Y-74626881D01*
X183631727Y-74473996D01*
X183554485Y-74442001D01*
X183631727Y-74410006D01*
X183860535Y-74257121D01*
X184055120Y-74062536D01*
X184147231Y-73924682D01*
X184172058Y-73911412D01*
X184306816Y-73800818D01*
X184334533Y-73767045D01*
X184356532Y-73745046D01*
X184439410Y-73644059D01*
X184521588Y-73490313D01*
X184572194Y-73323490D01*
X184589281Y-73150001D01*
X184572194Y-72976511D01*
X184521588Y-72809687D01*
X184439410Y-72655942D01*
X184328817Y-72521183D01*
X184194058Y-72410590D01*
X184112142Y-72366805D01*
X184055120Y-72281466D01*
X183860535Y-72086881D01*
X183631727Y-71933996D01*
X183554485Y-71902001D01*
X183631727Y-71870006D01*
X183860535Y-71717121D01*
X184055120Y-71522536D01*
X184208005Y-71293728D01*
X184313314Y-71039491D01*
X184367000Y-70769593D01*
X184367000Y-70494409D01*
X184313314Y-70224511D01*
X184208005Y-69970274D01*
X184055120Y-69741466D01*
X183860535Y-69546881D01*
X183631727Y-69393996D01*
X183377490Y-69288687D01*
X183107592Y-69235001D01*
X182832408Y-69235001D01*
X182562510Y-69288687D01*
X182308273Y-69393996D01*
X182079465Y-69546881D01*
X181884880Y-69741466D01*
X181731995Y-69970274D01*
X181700000Y-70047516D01*
X181668005Y-69970274D01*
X181515120Y-69741466D01*
X181320535Y-69546881D01*
X181091727Y-69393996D01*
X180837490Y-69288687D01*
X180567592Y-69235001D01*
X180292408Y-69235001D01*
X180022510Y-69288687D01*
X179768273Y-69393996D01*
X179539465Y-69546881D01*
X179344880Y-69741466D01*
X179191995Y-69970274D01*
X179086686Y-70224511D01*
X179033000Y-70494409D01*
X179033000Y-70769593D01*
X179086686Y-71039491D01*
X179191995Y-71293728D01*
X179344880Y-71522536D01*
X179539465Y-71717121D01*
X179768273Y-71870006D01*
X179845515Y-71902001D01*
X179768273Y-71933996D01*
X179539465Y-72086881D01*
X179344880Y-72281466D01*
X179322473Y-72315000D01*
X176534759Y-72315000D01*
X176395134Y-72144866D01*
X176169014Y-71959294D01*
X175911034Y-71821401D01*
X175631111Y-71736487D01*
X175412950Y-71715000D01*
X175267050Y-71715000D01*
X175048889Y-71736487D01*
X174768966Y-71821401D01*
X174510986Y-71959294D01*
X174284866Y-72144866D01*
X174260393Y-72174687D01*
X174239502Y-72105820D01*
X174180537Y-71995506D01*
X174101185Y-71898815D01*
X174022822Y-71834504D01*
X174106904Y-71677196D01*
X174186786Y-71413861D01*
X174207000Y-71208626D01*
X174207000Y-70055376D01*
X174186786Y-69850141D01*
X174106904Y-69586806D01*
X173977183Y-69344114D01*
X173802607Y-69131393D01*
X173589886Y-68956818D01*
X173347194Y-68827097D01*
X173083859Y-68747215D01*
X172810000Y-68720242D01*
X172536140Y-68747215D01*
X172272805Y-68827097D01*
X172030113Y-68956818D01*
X171817392Y-69131394D01*
X171642817Y-69344115D01*
X171540000Y-69536472D01*
X171437183Y-69344114D01*
X171262607Y-69131393D01*
X171049886Y-68956818D01*
X170807194Y-68827097D01*
X170543859Y-68747215D01*
X170270000Y-68720242D01*
X169996140Y-68747215D01*
X169732805Y-68827097D01*
X169490113Y-68956818D01*
X169277392Y-69131394D01*
X169102817Y-69344115D01*
X169000000Y-69536472D01*
X168897183Y-69344114D01*
X168722607Y-69131393D01*
X168509886Y-68956818D01*
X168267194Y-68827097D01*
X168003859Y-68747215D01*
X167730000Y-68720242D01*
X167456140Y-68747215D01*
X167192805Y-68827097D01*
X166950113Y-68956818D01*
X166737392Y-69131394D01*
X166562817Y-69344115D01*
X166460000Y-69536472D01*
X166357183Y-69344114D01*
X166182607Y-69131393D01*
X165969886Y-68956818D01*
X165727194Y-68827097D01*
X165463859Y-68747215D01*
X165190000Y-68720242D01*
X164916140Y-68747215D01*
X164652805Y-68827097D01*
X164410113Y-68956818D01*
X164197392Y-69131394D01*
X164022817Y-69344115D01*
X163920000Y-69536472D01*
X163817183Y-69344114D01*
X163642607Y-69131393D01*
X163429886Y-68956818D01*
X163187194Y-68827097D01*
X162923859Y-68747215D01*
X162650000Y-68720242D01*
X162376140Y-68747215D01*
X162112805Y-68827097D01*
X161870113Y-68956818D01*
X161657392Y-69131394D01*
X161482817Y-69344115D01*
X161380000Y-69536472D01*
X161277183Y-69344114D01*
X161102607Y-69131393D01*
X160889886Y-68956818D01*
X160647194Y-68827097D01*
X160383859Y-68747215D01*
X160110000Y-68720242D01*
X159836140Y-68747215D01*
X159572805Y-68827097D01*
X159330113Y-68956818D01*
X159117392Y-69131394D01*
X158942817Y-69344115D01*
X158840000Y-69536472D01*
X158737183Y-69344114D01*
X158562607Y-69131393D01*
X158349886Y-68956818D01*
X158107194Y-68827097D01*
X157843859Y-68747215D01*
X157570000Y-68720242D01*
X157296140Y-68747215D01*
X157032805Y-68827097D01*
X156790113Y-68956818D01*
X156577392Y-69131394D01*
X156402817Y-69344115D01*
X156300000Y-69536472D01*
X156197183Y-69344114D01*
X156022607Y-69131393D01*
X155809886Y-68956818D01*
X155567194Y-68827097D01*
X155303859Y-68747215D01*
X155030000Y-68720242D01*
X154756140Y-68747215D01*
X154492805Y-68827097D01*
X154250113Y-68956818D01*
X154037392Y-69131394D01*
X153862817Y-69344115D01*
X153733096Y-69586807D01*
X153653214Y-69850142D01*
X153633000Y-70055377D01*
X153633000Y-71208626D01*
X153653214Y-71413861D01*
X153733096Y-71677196D01*
X153862817Y-71919888D01*
X154037393Y-72132609D01*
X154250114Y-72307184D01*
X154492806Y-72436905D01*
X154756141Y-72516787D01*
X155030000Y-72543760D01*
X155303860Y-72516787D01*
X155567195Y-72436905D01*
X155809887Y-72307184D01*
X156022608Y-72132609D01*
X156197183Y-71919888D01*
X156300000Y-71727530D01*
X156402817Y-71919888D01*
X156577393Y-72132609D01*
X156790114Y-72307184D01*
X157032806Y-72436905D01*
X157296141Y-72516787D01*
X157570000Y-72543760D01*
X157843860Y-72516787D01*
X158107195Y-72436905D01*
X158349887Y-72307184D01*
X158562608Y-72132609D01*
X158737183Y-71919888D01*
X158840000Y-71727530D01*
X158942817Y-71919888D01*
X159117393Y-72132609D01*
X159330114Y-72307184D01*
X159572806Y-72436905D01*
X159836141Y-72516787D01*
X160110000Y-72543760D01*
X160383860Y-72516787D01*
X160647195Y-72436905D01*
X160889887Y-72307184D01*
X161102608Y-72132609D01*
X161277183Y-71919888D01*
X161380000Y-71727530D01*
X161482817Y-71919888D01*
X161657393Y-72132609D01*
X161870114Y-72307184D01*
X162112806Y-72436905D01*
X162376141Y-72516787D01*
X162650000Y-72543760D01*
X162923860Y-72516787D01*
X163187195Y-72436905D01*
X163429887Y-72307184D01*
X163642608Y-72132609D01*
X163817183Y-71919888D01*
X163920000Y-71727530D01*
X164022817Y-71919888D01*
X164197393Y-72132609D01*
X164410114Y-72307184D01*
X164652806Y-72436905D01*
X164916141Y-72516787D01*
X165190000Y-72543760D01*
X165463860Y-72516787D01*
X165727195Y-72436905D01*
X165969887Y-72307184D01*
X166182608Y-72132609D01*
X166357183Y-71919888D01*
X166460000Y-71727530D01*
X166562817Y-71919888D01*
X166737393Y-72132609D01*
X166950114Y-72307184D01*
X167192806Y-72436905D01*
X167456141Y-72516787D01*
X167730000Y-72543760D01*
X168003860Y-72516787D01*
X168267195Y-72436905D01*
X168509887Y-72307184D01*
X168722608Y-72132609D01*
X168897183Y-71919888D01*
X169000000Y-71727530D01*
X169102817Y-71919888D01*
X169277393Y-72132609D01*
X169490114Y-72307184D01*
X169732806Y-72436905D01*
X169996141Y-72516787D01*
X170270000Y-72543760D01*
X170543860Y-72516787D01*
X170807195Y-72436905D01*
X171049887Y-72307184D01*
X171262608Y-72132609D01*
X171437183Y-71919888D01*
X171540000Y-71727530D01*
X171591080Y-71823095D01*
X171498815Y-71898815D01*
X171419463Y-71995506D01*
X171360498Y-72105820D01*
X171324188Y-72225518D01*
X171311928Y-72350000D01*
X171311928Y-74050000D01*
X171324188Y-74174482D01*
X171360498Y-74294180D01*
X171419463Y-74404494D01*
X171498815Y-74501185D01*
X171595506Y-74580537D01*
X171665001Y-74617683D01*
X171665000Y-74832317D01*
X171595506Y-74869463D01*
X171498815Y-74948815D01*
X171419463Y-75045506D01*
X171360498Y-75155820D01*
X171324188Y-75275518D01*
X171311928Y-75400000D01*
X171311928Y-77100000D01*
X171324188Y-77224482D01*
X171360498Y-77344180D01*
X171419463Y-77454494D01*
X171498815Y-77551185D01*
X171595506Y-77630537D01*
X171665001Y-77667683D01*
X171665000Y-77882317D01*
X171595506Y-77919463D01*
X171498815Y-77998815D01*
X171419463Y-78095506D01*
X171360498Y-78205820D01*
X171324188Y-78325518D01*
X171311928Y-78450000D01*
X171311928Y-80150000D01*
X171324188Y-80274482D01*
X171360498Y-80394180D01*
X171419463Y-80504494D01*
X171498815Y-80601185D01*
X171595506Y-80680537D01*
X171665001Y-80717683D01*
X171665000Y-80932317D01*
X171595506Y-80969463D01*
X171498815Y-81048815D01*
X171419463Y-81145506D01*
X171360498Y-81255820D01*
X171324188Y-81375518D01*
X171311928Y-81500000D01*
X171311928Y-83200000D01*
X171324188Y-83324482D01*
X171360498Y-83444180D01*
X171419463Y-83554494D01*
X171498815Y-83651185D01*
X171595506Y-83730537D01*
X171665001Y-83767683D01*
X171665000Y-83982317D01*
X171595506Y-84019463D01*
X171498815Y-84098815D01*
X171419463Y-84195506D01*
X171360498Y-84305820D01*
X171324188Y-84425518D01*
X171311928Y-84550000D01*
X171311928Y-86250000D01*
X171324188Y-86374482D01*
X171360498Y-86494180D01*
X171419463Y-86604494D01*
X171498815Y-86701185D01*
X171595506Y-86780537D01*
X171665001Y-86817683D01*
X171665000Y-87032317D01*
X171595506Y-87069463D01*
X171498815Y-87148815D01*
X171419463Y-87245506D01*
X171360498Y-87355820D01*
X171324188Y-87475518D01*
X171311928Y-87600000D01*
X171311928Y-89300000D01*
X171324188Y-89424482D01*
X171360498Y-89544180D01*
X171419463Y-89654494D01*
X171498815Y-89751185D01*
X171595506Y-89830537D01*
X171675001Y-89873028D01*
X171675000Y-90082317D01*
X171605506Y-90119463D01*
X171508815Y-90198815D01*
X171429463Y-90295506D01*
X171370498Y-90405820D01*
X171334188Y-90525518D01*
X171321928Y-90650000D01*
X171321928Y-92350000D01*
X171334188Y-92474482D01*
X171370498Y-92594180D01*
X171429463Y-92704494D01*
X171508815Y-92801185D01*
X171605506Y-92880537D01*
X171675001Y-92917683D01*
X171675000Y-93132317D01*
X171605506Y-93169463D01*
X171508815Y-93248815D01*
X171429463Y-93345506D01*
X171370498Y-93455820D01*
X171334188Y-93575518D01*
X171321928Y-93700000D01*
X171321928Y-95323000D01*
X153354530Y-95323000D01*
X153083496Y-95303615D01*
X152822407Y-95246819D01*
X152572060Y-95153444D01*
X152337555Y-95025395D01*
X152123662Y-94865276D01*
X151934724Y-94676338D01*
X151774605Y-94462445D01*
X151646556Y-94227940D01*
X151553181Y-93977593D01*
X151496385Y-93716504D01*
X151477000Y-93445470D01*
X151477000Y-84000000D01*
X156661928Y-84000000D01*
X156661928Y-85700000D01*
X156674188Y-85824482D01*
X156710498Y-85944180D01*
X156769463Y-86054494D01*
X156827326Y-86125000D01*
X156769463Y-86195506D01*
X156710498Y-86305820D01*
X156674188Y-86425518D01*
X156661928Y-86550000D01*
X156661928Y-88250000D01*
X156674188Y-88374482D01*
X156710498Y-88494180D01*
X156769463Y-88604494D01*
X156827326Y-88675000D01*
X156769463Y-88745506D01*
X156710498Y-88855820D01*
X156674188Y-88975518D01*
X156661928Y-89100000D01*
X156661928Y-90800000D01*
X156674188Y-90924482D01*
X156710498Y-91044180D01*
X156769463Y-91154494D01*
X156827326Y-91225000D01*
X156769463Y-91295506D01*
X156710498Y-91405820D01*
X156674188Y-91525518D01*
X156661928Y-91650000D01*
X156661928Y-93350000D01*
X156674188Y-93474482D01*
X156710498Y-93594180D01*
X156769463Y-93704494D01*
X156848815Y-93801185D01*
X156945506Y-93880537D01*
X157055820Y-93939502D01*
X157175518Y-93975812D01*
X157300000Y-93988072D01*
X159000000Y-93988072D01*
X159124482Y-93975812D01*
X159244180Y-93939502D01*
X159354494Y-93880537D01*
X159451185Y-93801185D01*
X159530537Y-93704494D01*
X159589502Y-93594180D01*
X159610393Y-93525313D01*
X159634866Y-93555134D01*
X159860986Y-93740706D01*
X160118966Y-93878599D01*
X160398889Y-93963513D01*
X160617050Y-93985000D01*
X160762950Y-93985000D01*
X160981111Y-93963513D01*
X161261034Y-93878599D01*
X161519014Y-93740706D01*
X161745134Y-93555134D01*
X161930706Y-93329014D01*
X162068599Y-93071034D01*
X162153513Y-92791111D01*
X162182185Y-92500000D01*
X162153513Y-92208889D01*
X162068599Y-91928966D01*
X161930706Y-91670986D01*
X161745134Y-91444866D01*
X161519014Y-91259294D01*
X161454854Y-91225000D01*
X161519014Y-91190706D01*
X161745134Y-91005134D01*
X161930706Y-90779014D01*
X162068599Y-90521034D01*
X162153513Y-90241111D01*
X162182185Y-89950000D01*
X162153513Y-89658889D01*
X162068599Y-89378966D01*
X161930706Y-89120986D01*
X161745134Y-88894866D01*
X161519014Y-88709294D01*
X161454854Y-88675000D01*
X161519014Y-88640706D01*
X161745134Y-88455134D01*
X161930706Y-88229014D01*
X162068599Y-87971034D01*
X162153513Y-87691111D01*
X162182185Y-87400000D01*
X162153513Y-87108889D01*
X162068599Y-86828966D01*
X161930706Y-86570986D01*
X161745134Y-86344866D01*
X161519014Y-86159294D01*
X161454854Y-86125000D01*
X161519014Y-86090706D01*
X161745134Y-85905134D01*
X161930706Y-85679014D01*
X162068599Y-85421034D01*
X162153513Y-85141111D01*
X162182185Y-84850000D01*
X162153513Y-84558889D01*
X162068599Y-84278966D01*
X161930706Y-84020986D01*
X161745134Y-83794866D01*
X161519014Y-83609294D01*
X161479854Y-83588363D01*
X161569014Y-83540706D01*
X161795134Y-83355134D01*
X161980706Y-83129014D01*
X162118599Y-82871034D01*
X162203513Y-82591111D01*
X162232185Y-82300000D01*
X162203513Y-82008889D01*
X162118599Y-81728966D01*
X161980706Y-81470986D01*
X161795134Y-81244866D01*
X161569014Y-81059294D01*
X161504854Y-81025000D01*
X161569014Y-80990706D01*
X161795134Y-80805134D01*
X161980706Y-80579014D01*
X162118599Y-80321034D01*
X162203513Y-80041111D01*
X162232185Y-79750000D01*
X162203513Y-79458889D01*
X162118599Y-79178966D01*
X161980706Y-78920986D01*
X161795134Y-78694866D01*
X161569014Y-78509294D01*
X161504854Y-78475000D01*
X161569014Y-78440706D01*
X161795134Y-78255134D01*
X161980706Y-78029014D01*
X162118599Y-77771034D01*
X162203513Y-77491111D01*
X162232185Y-77200000D01*
X162203513Y-76908889D01*
X162118599Y-76628966D01*
X161980706Y-76370986D01*
X161795134Y-76144866D01*
X161569014Y-75959294D01*
X161504854Y-75925000D01*
X161569014Y-75890706D01*
X161795134Y-75705134D01*
X161980706Y-75479014D01*
X162118599Y-75221034D01*
X162203513Y-74941111D01*
X162232185Y-74650000D01*
X162203513Y-74358889D01*
X162118599Y-74078966D01*
X161980706Y-73820986D01*
X161795134Y-73594866D01*
X161569014Y-73409294D01*
X161311034Y-73271401D01*
X161031111Y-73186487D01*
X160812950Y-73165000D01*
X160667050Y-73165000D01*
X160448889Y-73186487D01*
X160168966Y-73271401D01*
X159910986Y-73409294D01*
X159684866Y-73594866D01*
X159660393Y-73624687D01*
X159639502Y-73555820D01*
X159580537Y-73445506D01*
X159501185Y-73348815D01*
X159404494Y-73269463D01*
X159294180Y-73210498D01*
X159174482Y-73174188D01*
X159050000Y-73161928D01*
X157350000Y-73161928D01*
X157225518Y-73174188D01*
X157105820Y-73210498D01*
X156995506Y-73269463D01*
X156898815Y-73348815D01*
X156819463Y-73445506D01*
X156760498Y-73555820D01*
X156724188Y-73675518D01*
X156711928Y-73800000D01*
X156711928Y-75500000D01*
X156724188Y-75624482D01*
X156760498Y-75744180D01*
X156819463Y-75854494D01*
X156877326Y-75925000D01*
X156819463Y-75995506D01*
X156760498Y-76105820D01*
X156724188Y-76225518D01*
X156711928Y-76350000D01*
X156711928Y-78050000D01*
X156724188Y-78174482D01*
X156760498Y-78294180D01*
X156819463Y-78404494D01*
X156877326Y-78475000D01*
X156819463Y-78545506D01*
X156760498Y-78655820D01*
X156724188Y-78775518D01*
X156711928Y-78900000D01*
X156711928Y-80600000D01*
X156724188Y-80724482D01*
X156760498Y-80844180D01*
X156819463Y-80954494D01*
X156877326Y-81025000D01*
X156819463Y-81095506D01*
X156760498Y-81205820D01*
X156724188Y-81325518D01*
X156711928Y-81450000D01*
X156711928Y-83150000D01*
X156724188Y-83274482D01*
X156760498Y-83394180D01*
X156819463Y-83504494D01*
X156853010Y-83545372D01*
X156848815Y-83548815D01*
X156769463Y-83645506D01*
X156710498Y-83755820D01*
X156674188Y-83875518D01*
X156661928Y-84000000D01*
X151477000Y-84000000D01*
X151477000Y-69904530D01*
X151496385Y-69633496D01*
X151553181Y-69372407D01*
X151646556Y-69122060D01*
X151774605Y-68887555D01*
X151934724Y-68673662D01*
X152123662Y-68484724D01*
X152337555Y-68324605D01*
X152572060Y-68196556D01*
X152822407Y-68103181D01*
X153083496Y-68046385D01*
X153354530Y-68027000D01*
X183695470Y-68027000D01*
X183966504Y-68046385D01*
M02*
