G04 #@! TF.GenerationSoftware,KiCad,Pcbnew,(5.1.0-0)*
G04 #@! TF.CreationDate,2019-04-24T12:09:54-04:00*
G04 #@! TF.ProjectId,TR19-COMP-PD_rev2,54523139-2d43-44f4-9d50-2d50445f7265,rev?*
G04 #@! TF.SameCoordinates,Original*
G04 #@! TF.FileFunction,Paste,Top*
G04 #@! TF.FilePolarity,Positive*
%FSLAX46Y46*%
G04 Gerber Fmt 4.6, Leading zero omitted, Abs format (unit mm)*
G04 Created by KiCad (PCBNEW (5.1.0-0)) date 2019-04-24 12:09:54*
%MOMM*%
%LPD*%
G04 APERTURE LIST*
%ADD10R,2.200000X1.200000*%
%ADD11R,1.700000X0.900000*%
G04 APERTURE END LIST*
D10*
X127472000Y-92340000D03*
X127472000Y-97420000D03*
X127472000Y-102500000D03*
X127472000Y-87260000D03*
X90134000Y-102500000D03*
X90134000Y-97420000D03*
X90134000Y-87260000D03*
D11*
X144850000Y-76300000D03*
X144850000Y-73400000D03*
X142250000Y-73400000D03*
X142250000Y-76300000D03*
X139800000Y-76300000D03*
X139800000Y-73400000D03*
X137200000Y-112300000D03*
X137200000Y-115200000D03*
X141600000Y-112300000D03*
X141600000Y-115200000D03*
X146000000Y-112300000D03*
X146000000Y-115200000D03*
X150400000Y-112300000D03*
X150400000Y-115200000D03*
X137200000Y-76300000D03*
X137200000Y-73400000D03*
X134700000Y-73400000D03*
X134700000Y-76300000D03*
X132200000Y-76300000D03*
X132200000Y-73400000D03*
X139400000Y-112300000D03*
X139400000Y-115200000D03*
X143800000Y-112300000D03*
X143800000Y-115200000D03*
X148200000Y-112300000D03*
X148200000Y-115200000D03*
X152600000Y-112300000D03*
X152600000Y-115200000D03*
X128150000Y-76300000D03*
X128150000Y-73400000D03*
X125550000Y-73400000D03*
X125550000Y-76300000D03*
X122900000Y-76300000D03*
X122900000Y-73400000D03*
M02*
