M48
; DRILL file {KiCad (5.1.0-0)} date Wednesday, April 24, 2019 at 12:07:15 PM
; FORMAT={-:-/ absolute / metric / decimal}
; #@! TF.CreationDate,2019-04-24T12:07:15-04:00
; #@! TF.GenerationSoftware,Kicad,Pcbnew,(5.1.0-0)
; #@! TF.FileFunction,Plated,1,2,PTH
FMAT,2
METRIC
T1C0.400
T2C1.000
T3C1.016
T4C2.000
%
G90
G05
T1
X97.0Y-93.45
X123.75Y-98.75
X139.4Y-113.7
X143.8Y-113.7
X148.2Y-113.7
X152.6Y-69.4
X152.6Y-113.7
X154.2Y-72.8
X154.3Y-94.55
X164.65Y-86.0
X164.65Y-91.8
X164.7Y-76.6
X164.7Y-82.85
X164.7Y-88.6
X164.75Y-73.4
X164.8Y-79.7
X164.8Y-94.65
X181.7Y-68.9
X184.65Y-84.55
X184.7Y-77.1
X184.8Y-92.35
T2
X172.8Y-76.25
X175.34Y-76.25
X172.81Y-100.65
X175.35Y-100.65
X158.2Y-79.75
X160.74Y-79.75
X140.75Y-91.35
X140.75Y-93.89
X134.45Y-91.31
X134.45Y-93.85
X129.56Y-78.9
X132.1Y-78.9
X134.64Y-78.9
X137.18Y-78.9
X172.8Y-82.35
X175.34Y-82.35
X172.8Y-79.3
X175.34Y-79.3
X172.85Y-115.9
X111.52Y-74.0
X114.06Y-74.0
X116.6Y-74.0
X158.2Y-82.3
X160.74Y-82.3
X158.15Y-92.5
X175.39Y-115.9
X154.5Y-102.02
X154.5Y-104.56
X154.5Y-107.1
X135.2Y-104.56
X139.75Y-78.9
X142.29Y-78.9
X144.83Y-78.9
X147.37Y-78.9
X158.15Y-84.85
X160.69Y-84.85
X135.2Y-102.02
X135.2Y-107.1
X97.05Y-75.0
X99.59Y-75.0
X151.3Y-102.0
X151.3Y-104.54
X151.3Y-107.08
X160.69Y-92.5
X131.9Y-102.02
X131.9Y-104.56
X131.9Y-107.1
X172.8Y-73.2
X175.34Y-73.2
X172.81Y-97.6
X175.35Y-97.6
X148.1Y-102.0
X148.1Y-104.54
X148.1Y-107.08
X172.81Y-94.55
X172.8Y-85.4
X175.34Y-85.4
X180.45Y-117.25
X180.45Y-119.79
X175.35Y-94.55
X158.15Y-87.4
X158.15Y-89.95
X160.69Y-89.95
X172.81Y-91.5
X175.35Y-91.5
X172.85Y-109.8
X175.39Y-109.8
X158.2Y-77.2
X160.74Y-77.2
X172.8Y-88.45
X175.34Y-88.45
X172.86Y-112.85
X175.4Y-112.85
X119.36Y-78.9
X121.9Y-78.9
X124.44Y-78.9
X126.98Y-78.9
X175.35Y-106.75
X141.7Y-102.02
X141.7Y-104.56
X141.7Y-107.1
X160.69Y-87.4
X172.81Y-106.75
X158.2Y-74.65
X160.74Y-74.65
X111.5Y-77.1
X114.04Y-77.1
X116.58Y-77.1
X172.81Y-103.7
X175.35Y-103.7
X138.5Y-102.02
X138.5Y-104.56
X138.5Y-107.1
X144.9Y-102.02
X144.9Y-104.56
X144.9Y-107.1
X111.5Y-80.2
X114.04Y-80.2
X116.58Y-80.2
T3
X105.246Y-70.632
X107.786Y-70.632
X110.326Y-70.632
X112.866Y-70.632
X114.39Y-118.892
X115.406Y-70.632
X116.93Y-118.892
X117.946Y-70.632
X119.47Y-118.892
X120.486Y-70.632
X122.01Y-118.892
X123.026Y-70.632
X124.55Y-118.892
X125.566Y-70.632
X127.09Y-118.892
X128.106Y-70.632
X129.63Y-118.892
X132.17Y-70.632
X132.17Y-118.892
X134.71Y-70.632
X137.25Y-70.632
X137.25Y-118.892
X139.79Y-70.632
X139.79Y-118.892
X142.33Y-70.632
X142.33Y-118.892
X144.87Y-70.632
X144.87Y-118.892
X147.41Y-70.632
X147.41Y-118.892
X149.95Y-70.632
X149.95Y-118.892
X152.49Y-118.892
X155.03Y-70.632
X155.03Y-118.892
X157.57Y-70.632
X160.11Y-70.632
X160.11Y-118.892
X162.65Y-70.632
X162.65Y-118.892
X165.19Y-70.632
X165.19Y-118.892
X167.73Y-70.632
X167.73Y-118.892
X170.27Y-70.632
X170.27Y-118.892
X172.81Y-70.632
X172.81Y-70.632
X172.81Y-118.892
X175.35Y-118.892
X177.89Y-118.892
X180.43Y-70.632
X180.43Y-73.172
X180.43Y-75.712
X180.43Y-78.252
X180.43Y-80.792
X180.43Y-83.332
X180.43Y-85.872
X180.43Y-88.412
X180.43Y-90.952
X180.43Y-93.492
X180.43Y-96.032
X180.43Y-98.572
X180.43Y-101.112
X180.43Y-103.652
X180.43Y-106.192
X180.43Y-108.732
X180.43Y-111.272
X180.43Y-113.812
X182.97Y-70.632
X182.97Y-73.172
X182.97Y-75.712
X182.97Y-78.252
X182.97Y-80.792
X182.97Y-83.332
X182.97Y-85.872
X182.97Y-88.412
X182.97Y-90.952
X182.97Y-93.492
X182.97Y-96.032
X182.97Y-98.572
X182.97Y-101.112
X182.97Y-103.652
X182.97Y-106.192
X182.97Y-108.732
X182.97Y-111.272
X182.97Y-113.812
T4
X90.15Y-75.1
X90.15Y-78.74
T0
M30
