%FSLAX45Y45*%
G04 Gerber Fmt 4.5, Leading zero omitted, Abs format (unit mm)*
G04 Created by KiCad (PCBNEW (5.1.0-0)) date 2019-04-24 12:07:12*
%MOMM*%
%LPD*%
G04 APERTURE LIST*
%ADD10C,0.100000*%
%ADD11C,0.200000*%
%ADD12C,0.300000*%
G04 APERTURE END LIST*
D10*
X8540000Y-6700000D02*
X8540000Y-6785000D01*
X18640000Y-6700000D02*
X8540000Y-6700000D01*
X18640000Y-8140000D02*
X18640000Y-6700000D01*
X18825000Y-8325000D02*
X18640000Y-8140000D01*
X18825000Y-11640000D02*
X18825000Y-8325000D01*
X18625000Y-11845000D02*
X18825000Y-11640000D01*
X18625000Y-12345000D02*
X18625000Y-11845000D01*
X9845000Y-12345000D02*
X18625000Y-12345000D01*
X9845000Y-10875000D02*
X9845000Y-12345000D01*
X8540000Y-10880000D02*
X9845000Y-10880000D01*
X8540000Y-6785000D02*
X8540000Y-10880000D01*
D11*
X9680000Y-9325000D02*
X9720000Y-9365000D01*
X9720000Y-9325000D02*
X9680000Y-9365000D01*
X12355000Y-9855000D02*
X12395000Y-9895000D01*
X12395000Y-9855000D02*
X12355000Y-9895000D01*
X13920000Y-11350000D02*
X13960000Y-11390000D01*
X13960000Y-11350000D02*
X13920000Y-11390000D01*
X14360000Y-11350000D02*
X14400000Y-11390000D01*
X14400000Y-11350000D02*
X14360000Y-11390000D01*
X14800000Y-11350000D02*
X14840000Y-11390000D01*
X14840000Y-11350000D02*
X14800000Y-11390000D01*
X15240000Y-6920000D02*
X15280000Y-6960000D01*
X15280000Y-6920000D02*
X15240000Y-6960000D01*
X15240000Y-11350000D02*
X15280000Y-11390000D01*
X15280000Y-11350000D02*
X15240000Y-11390000D01*
X15400000Y-7260000D02*
X15440000Y-7300000D01*
X15440000Y-7260000D02*
X15400000Y-7300000D01*
X15410000Y-9435000D02*
X15450000Y-9475000D01*
X15450000Y-9435000D02*
X15410000Y-9475000D01*
X16445000Y-8580000D02*
X16485000Y-8620000D01*
X16485000Y-8580000D02*
X16445000Y-8620000D01*
X16445000Y-9160000D02*
X16485000Y-9200000D01*
X16485000Y-9160000D02*
X16445000Y-9200000D01*
X16450000Y-7640000D02*
X16490000Y-7680000D01*
X16490000Y-7640000D02*
X16450000Y-7680000D01*
X16450000Y-8265000D02*
X16490000Y-8305000D01*
X16490000Y-8265000D02*
X16450000Y-8305000D01*
X16450000Y-8840000D02*
X16490000Y-8880000D01*
X16490000Y-8840000D02*
X16450000Y-8880000D01*
X16455000Y-7320000D02*
X16495000Y-7360000D01*
X16495000Y-7320000D02*
X16455000Y-7360000D01*
X16460000Y-7950000D02*
X16500000Y-7990000D01*
X16500000Y-7950000D02*
X16460000Y-7990000D01*
X16460000Y-9445000D02*
X16500000Y-9485000D01*
X16500000Y-9445000D02*
X16460000Y-9485000D01*
X18150000Y-6870000D02*
X18190000Y-6910000D01*
X18190000Y-6870000D02*
X18150000Y-6910000D01*
X18445000Y-8435000D02*
X18485000Y-8475000D01*
X18485000Y-8435000D02*
X18445000Y-8475000D01*
X18450000Y-7690000D02*
X18490000Y-7730000D01*
X18490000Y-7690000D02*
X18450000Y-7730000D01*
X18460000Y-9215000D02*
X18500000Y-9255000D01*
X18500000Y-9215000D02*
X18460000Y-9255000D01*
X17330000Y-7625000D02*
G75*
G03X17330000Y-7625000I-50000J0D01*
G01*
X17584000Y-7625000D02*
G75*
G03X17584000Y-7625000I-50000J0D01*
G01*
X17331000Y-10065000D02*
G75*
G03X17331000Y-10065000I-50000J0D01*
G01*
X17585000Y-10065000D02*
G75*
G03X17585000Y-10065000I-50000J0D01*
G01*
X15870000Y-7975000D02*
G75*
G03X15870000Y-7975000I-50000J0D01*
G01*
X16124000Y-7975000D02*
G75*
G03X16124000Y-7975000I-50000J0D01*
G01*
X14125000Y-9135000D02*
G75*
G03X14125000Y-9135000I-50000J0D01*
G01*
X14125000Y-9389000D02*
G75*
G03X14125000Y-9389000I-50000J0D01*
G01*
X13495000Y-9131000D02*
G75*
G03X13495000Y-9131000I-50000J0D01*
G01*
X13495000Y-9385000D02*
G75*
G03X13495000Y-9385000I-50000J0D01*
G01*
X13006000Y-7890000D02*
G75*
G03X13006000Y-7890000I-50000J0D01*
G01*
X13260000Y-7890000D02*
G75*
G03X13260000Y-7890000I-50000J0D01*
G01*
X13514000Y-7890000D02*
G75*
G03X13514000Y-7890000I-50000J0D01*
G01*
X13768000Y-7890000D02*
G75*
G03X13768000Y-7890000I-50000J0D01*
G01*
X17330000Y-8235000D02*
G75*
G03X17330000Y-8235000I-50000J0D01*
G01*
X17584000Y-8235000D02*
G75*
G03X17584000Y-8235000I-50000J0D01*
G01*
X17330000Y-7930000D02*
G75*
G03X17330000Y-7930000I-50000J0D01*
G01*
X17584000Y-7930000D02*
G75*
G03X17584000Y-7930000I-50000J0D01*
G01*
X17335000Y-11590000D02*
G75*
G03X17335000Y-11590000I-50000J0D01*
G01*
X11202000Y-7400000D02*
G75*
G03X11202000Y-7400000I-50000J0D01*
G01*
X11456000Y-7400000D02*
G75*
G03X11456000Y-7400000I-50000J0D01*
G01*
X11710000Y-7400000D02*
G75*
G03X11710000Y-7400000I-50000J0D01*
G01*
X15870000Y-8230000D02*
G75*
G03X15870000Y-8230000I-50000J0D01*
G01*
X16124000Y-8230000D02*
G75*
G03X16124000Y-8230000I-50000J0D01*
G01*
X15865000Y-9250000D02*
G75*
G03X15865000Y-9250000I-50000J0D01*
G01*
X17589000Y-11590000D02*
G75*
G03X17589000Y-11590000I-50000J0D01*
G01*
X15500000Y-10202000D02*
G75*
G03X15500000Y-10202000I-50000J0D01*
G01*
X15500000Y-10456000D02*
G75*
G03X15500000Y-10456000I-50000J0D01*
G01*
X15500000Y-10710000D02*
G75*
G03X15500000Y-10710000I-50000J0D01*
G01*
X13570000Y-10456000D02*
G75*
G03X13570000Y-10456000I-50000J0D01*
G01*
X14025000Y-7890000D02*
G75*
G03X14025000Y-7890000I-50000J0D01*
G01*
X14279000Y-7890000D02*
G75*
G03X14279000Y-7890000I-50000J0D01*
G01*
X14533000Y-7890000D02*
G75*
G03X14533000Y-7890000I-50000J0D01*
G01*
X14787000Y-7890000D02*
G75*
G03X14787000Y-7890000I-50000J0D01*
G01*
X15865000Y-8485000D02*
G75*
G03X15865000Y-8485000I-50000J0D01*
G01*
X16119000Y-8485000D02*
G75*
G03X16119000Y-8485000I-50000J0D01*
G01*
X13570000Y-10202000D02*
G75*
G03X13570000Y-10202000I-50000J0D01*
G01*
X13570000Y-10710000D02*
G75*
G03X13570000Y-10710000I-50000J0D01*
G01*
X9755000Y-7500000D02*
G75*
G03X9755000Y-7500000I-50000J0D01*
G01*
X10009000Y-7500000D02*
G75*
G03X10009000Y-7500000I-50000J0D01*
G01*
X15180000Y-10200000D02*
G75*
G03X15180000Y-10200000I-50000J0D01*
G01*
X15180000Y-10454000D02*
G75*
G03X15180000Y-10454000I-50000J0D01*
G01*
X15180000Y-10708000D02*
G75*
G03X15180000Y-10708000I-50000J0D01*
G01*
X16119000Y-9250000D02*
G75*
G03X16119000Y-9250000I-50000J0D01*
G01*
X13240000Y-10202000D02*
G75*
G03X13240000Y-10202000I-50000J0D01*
G01*
X13240000Y-10456000D02*
G75*
G03X13240000Y-10456000I-50000J0D01*
G01*
X13240000Y-10710000D02*
G75*
G03X13240000Y-10710000I-50000J0D01*
G01*
X17330000Y-7320000D02*
G75*
G03X17330000Y-7320000I-50000J0D01*
G01*
X17584000Y-7320000D02*
G75*
G03X17584000Y-7320000I-50000J0D01*
G01*
X17331000Y-9760000D02*
G75*
G03X17331000Y-9760000I-50000J0D01*
G01*
X17585000Y-9760000D02*
G75*
G03X17585000Y-9760000I-50000J0D01*
G01*
X14860000Y-10200000D02*
G75*
G03X14860000Y-10200000I-50000J0D01*
G01*
X14860000Y-10454000D02*
G75*
G03X14860000Y-10454000I-50000J0D01*
G01*
X14860000Y-10708000D02*
G75*
G03X14860000Y-10708000I-50000J0D01*
G01*
X17331000Y-9455000D02*
G75*
G03X17331000Y-9455000I-50000J0D01*
G01*
X17330000Y-8540000D02*
G75*
G03X17330000Y-8540000I-50000J0D01*
G01*
X17584000Y-8540000D02*
G75*
G03X17584000Y-8540000I-50000J0D01*
G01*
X18095000Y-11725000D02*
G75*
G03X18095000Y-11725000I-50000J0D01*
G01*
X18095000Y-11979000D02*
G75*
G03X18095000Y-11979000I-50000J0D01*
G01*
X17585000Y-9455000D02*
G75*
G03X17585000Y-9455000I-50000J0D01*
G01*
X15865000Y-8740000D02*
G75*
G03X15865000Y-8740000I-50000J0D01*
G01*
X15865000Y-8995000D02*
G75*
G03X15865000Y-8995000I-50000J0D01*
G01*
X16119000Y-8995000D02*
G75*
G03X16119000Y-8995000I-50000J0D01*
G01*
X17331000Y-9150000D02*
G75*
G03X17331000Y-9150000I-50000J0D01*
G01*
X17585000Y-9150000D02*
G75*
G03X17585000Y-9150000I-50000J0D01*
G01*
X17335000Y-10980000D02*
G75*
G03X17335000Y-10980000I-50000J0D01*
G01*
X17589000Y-10980000D02*
G75*
G03X17589000Y-10980000I-50000J0D01*
G01*
X15870000Y-7720000D02*
G75*
G03X15870000Y-7720000I-50000J0D01*
G01*
X16124000Y-7720000D02*
G75*
G03X16124000Y-7720000I-50000J0D01*
G01*
X17330000Y-8845000D02*
G75*
G03X17330000Y-8845000I-50000J0D01*
G01*
X17584000Y-8845000D02*
G75*
G03X17584000Y-8845000I-50000J0D01*
G01*
X17336000Y-11285000D02*
G75*
G03X17336000Y-11285000I-50000J0D01*
G01*
X17590000Y-11285000D02*
G75*
G03X17590000Y-11285000I-50000J0D01*
G01*
X11986000Y-7890000D02*
G75*
G03X11986000Y-7890000I-50000J0D01*
G01*
X12240000Y-7890000D02*
G75*
G03X12240000Y-7890000I-50000J0D01*
G01*
X12494000Y-7890000D02*
G75*
G03X12494000Y-7890000I-50000J0D01*
G01*
X12748000Y-7890000D02*
G75*
G03X12748000Y-7890000I-50000J0D01*
G01*
X17585000Y-10675000D02*
G75*
G03X17585000Y-10675000I-50000J0D01*
G01*
X14220000Y-10202000D02*
G75*
G03X14220000Y-10202000I-50000J0D01*
G01*
X14220000Y-10456000D02*
G75*
G03X14220000Y-10456000I-50000J0D01*
G01*
X14220000Y-10710000D02*
G75*
G03X14220000Y-10710000I-50000J0D01*
G01*
X16119000Y-8740000D02*
G75*
G03X16119000Y-8740000I-50000J0D01*
G01*
X17331000Y-10675000D02*
G75*
G03X17331000Y-10675000I-50000J0D01*
G01*
X15870000Y-7465000D02*
G75*
G03X15870000Y-7465000I-50000J0D01*
G01*
X16124000Y-7465000D02*
G75*
G03X16124000Y-7465000I-50000J0D01*
G01*
X11200000Y-7710000D02*
G75*
G03X11200000Y-7710000I-50000J0D01*
G01*
X11454000Y-7710000D02*
G75*
G03X11454000Y-7710000I-50000J0D01*
G01*
X11708000Y-7710000D02*
G75*
G03X11708000Y-7710000I-50000J0D01*
G01*
X17331000Y-10370000D02*
G75*
G03X17331000Y-10370000I-50000J0D01*
G01*
X17585000Y-10370000D02*
G75*
G03X17585000Y-10370000I-50000J0D01*
G01*
X13900000Y-10202000D02*
G75*
G03X13900000Y-10202000I-50000J0D01*
G01*
X13900000Y-10456000D02*
G75*
G03X13900000Y-10456000I-50000J0D01*
G01*
X13900000Y-10710000D02*
G75*
G03X13900000Y-10710000I-50000J0D01*
G01*
X14540000Y-10202000D02*
G75*
G03X14540000Y-10202000I-50000J0D01*
G01*
X14540000Y-10456000D02*
G75*
G03X14540000Y-10456000I-50000J0D01*
G01*
X14540000Y-10710000D02*
G75*
G03X14540000Y-10710000I-50000J0D01*
G01*
X11200000Y-8020000D02*
G75*
G03X11200000Y-8020000I-50000J0D01*
G01*
X11454000Y-8020000D02*
G75*
G03X11454000Y-8020000I-50000J0D01*
G01*
X11708000Y-8020000D02*
G75*
G03X11708000Y-8020000I-50000J0D01*
G01*
X10524600Y-7012400D02*
X10524600Y-7114000D01*
X10473800Y-7063200D02*
X10575400Y-7063200D01*
X10778600Y-7012400D02*
X10778600Y-7114000D01*
X10727800Y-7063200D02*
X10829400Y-7063200D01*
X11032600Y-7012400D02*
X11032600Y-7114000D01*
X10981800Y-7063200D02*
X11083400Y-7063200D01*
X11286600Y-7012400D02*
X11286600Y-7114000D01*
X11235800Y-7063200D02*
X11337400Y-7063200D01*
X11439000Y-11838400D02*
X11439000Y-11940000D01*
X11388200Y-11889200D02*
X11489800Y-11889200D01*
X11540600Y-7012400D02*
X11540600Y-7114000D01*
X11489800Y-7063200D02*
X11591400Y-7063200D01*
X11693000Y-11838400D02*
X11693000Y-11940000D01*
X11642200Y-11889200D02*
X11743800Y-11889200D01*
X11794600Y-7012400D02*
X11794600Y-7114000D01*
X11743800Y-7063200D02*
X11845400Y-7063200D01*
X11947000Y-11838400D02*
X11947000Y-11940000D01*
X11896200Y-11889200D02*
X11997800Y-11889200D01*
X12048600Y-7012400D02*
X12048600Y-7114000D01*
X11997800Y-7063200D02*
X12099400Y-7063200D01*
X12201000Y-11838400D02*
X12201000Y-11940000D01*
X12150200Y-11889200D02*
X12251800Y-11889200D01*
X12302600Y-7012400D02*
X12302600Y-7114000D01*
X12251800Y-7063200D02*
X12353400Y-7063200D01*
X12455000Y-11838400D02*
X12455000Y-11940000D01*
X12404200Y-11889200D02*
X12505800Y-11889200D01*
X12556600Y-7012400D02*
X12556600Y-7114000D01*
X12505800Y-7063200D02*
X12607400Y-7063200D01*
X12709000Y-11838400D02*
X12709000Y-11940000D01*
X12658200Y-11889200D02*
X12759800Y-11889200D01*
X12810600Y-7012400D02*
X12810600Y-7114000D01*
X12759800Y-7063200D02*
X12861400Y-7063200D01*
X12963000Y-11838400D02*
X12963000Y-11940000D01*
X12912200Y-11889200D02*
X13013800Y-11889200D01*
X13217000Y-7012400D02*
X13217000Y-7114000D01*
X13166200Y-7063200D02*
X13267800Y-7063200D01*
X13217000Y-11838400D02*
X13217000Y-11940000D01*
X13166200Y-11889200D02*
X13267800Y-11889200D01*
X13471000Y-7012400D02*
X13471000Y-7114000D01*
X13420200Y-7063200D02*
X13521800Y-7063200D01*
X13725000Y-7012400D02*
X13725000Y-7114000D01*
X13674200Y-7063200D02*
X13775800Y-7063200D01*
X13725000Y-11838400D02*
X13725000Y-11940000D01*
X13674200Y-11889200D02*
X13775800Y-11889200D01*
X13979000Y-7012400D02*
X13979000Y-7114000D01*
X13928200Y-7063200D02*
X14029800Y-7063200D01*
X13979000Y-11838400D02*
X13979000Y-11940000D01*
X13928200Y-11889200D02*
X14029800Y-11889200D01*
X14233000Y-7012400D02*
X14233000Y-7114000D01*
X14182200Y-7063200D02*
X14283800Y-7063200D01*
X14233000Y-11838400D02*
X14233000Y-11940000D01*
X14182200Y-11889200D02*
X14283800Y-11889200D01*
X14487000Y-7012400D02*
X14487000Y-7114000D01*
X14436200Y-7063200D02*
X14537800Y-7063200D01*
X14487000Y-11838400D02*
X14487000Y-11940000D01*
X14436200Y-11889200D02*
X14537800Y-11889200D01*
X14741000Y-7012400D02*
X14741000Y-7114000D01*
X14690200Y-7063200D02*
X14791800Y-7063200D01*
X14741000Y-11838400D02*
X14741000Y-11940000D01*
X14690200Y-11889200D02*
X14791800Y-11889200D01*
X14995000Y-7012400D02*
X14995000Y-7114000D01*
X14944200Y-7063200D02*
X15045800Y-7063200D01*
X14995000Y-11838400D02*
X14995000Y-11940000D01*
X14944200Y-11889200D02*
X15045800Y-11889200D01*
X15249000Y-11838400D02*
X15249000Y-11940000D01*
X15198200Y-11889200D02*
X15299800Y-11889200D01*
X15503000Y-7012400D02*
X15503000Y-7114000D01*
X15452200Y-7063200D02*
X15553800Y-7063200D01*
X15503000Y-11838400D02*
X15503000Y-11940000D01*
X15452200Y-11889200D02*
X15553800Y-11889200D01*
X15757000Y-7012400D02*
X15757000Y-7114000D01*
X15706200Y-7063200D02*
X15807800Y-7063200D01*
X16011000Y-7012400D02*
X16011000Y-7114000D01*
X15960200Y-7063200D02*
X16061800Y-7063200D01*
X16011000Y-11838400D02*
X16011000Y-11940000D01*
X15960200Y-11889200D02*
X16061800Y-11889200D01*
X16265000Y-7012400D02*
X16265000Y-7114000D01*
X16214200Y-7063200D02*
X16315800Y-7063200D01*
X16265000Y-11838400D02*
X16265000Y-11940000D01*
X16214200Y-11889200D02*
X16315800Y-11889200D01*
X16519000Y-7012400D02*
X16519000Y-7114000D01*
X16468200Y-7063200D02*
X16569800Y-7063200D01*
X16519000Y-11838400D02*
X16519000Y-11940000D01*
X16468200Y-11889200D02*
X16569800Y-11889200D01*
X16773000Y-7012400D02*
X16773000Y-7114000D01*
X16722200Y-7063200D02*
X16823800Y-7063200D01*
X16773000Y-11838400D02*
X16773000Y-11940000D01*
X16722200Y-11889200D02*
X16823800Y-11889200D01*
X17027000Y-7012400D02*
X17027000Y-7114000D01*
X16976200Y-7063200D02*
X17077800Y-7063200D01*
X17027000Y-11838400D02*
X17027000Y-11940000D01*
X16976200Y-11889200D02*
X17077800Y-11889200D01*
X17281000Y-7012400D02*
X17281000Y-7114000D01*
X17230200Y-7063200D02*
X17331800Y-7063200D01*
X17281000Y-7012400D02*
X17281000Y-7114000D01*
X17230200Y-7063200D02*
X17331800Y-7063200D01*
X17281000Y-11838400D02*
X17281000Y-11940000D01*
X17230200Y-11889200D02*
X17331800Y-11889200D01*
X17535000Y-11838400D02*
X17535000Y-11940000D01*
X17484200Y-11889200D02*
X17585800Y-11889200D01*
X17789000Y-11838400D02*
X17789000Y-11940000D01*
X17738200Y-11889200D02*
X17839800Y-11889200D01*
X18043000Y-7012400D02*
X18043000Y-7114000D01*
X17992200Y-7063200D02*
X18093800Y-7063200D01*
X18043000Y-7266400D02*
X18043000Y-7368000D01*
X17992200Y-7317200D02*
X18093800Y-7317200D01*
X18043000Y-7520400D02*
X18043000Y-7622000D01*
X17992200Y-7571200D02*
X18093800Y-7571200D01*
X18043000Y-7774400D02*
X18043000Y-7876000D01*
X17992200Y-7825200D02*
X18093800Y-7825200D01*
X18043000Y-8028400D02*
X18043000Y-8130000D01*
X17992200Y-8079200D02*
X18093800Y-8079200D01*
X18043000Y-8282400D02*
X18043000Y-8384000D01*
X17992200Y-8333200D02*
X18093800Y-8333200D01*
X18043000Y-8536400D02*
X18043000Y-8638000D01*
X17992200Y-8587200D02*
X18093800Y-8587200D01*
X18043000Y-8790400D02*
X18043000Y-8892000D01*
X17992200Y-8841200D02*
X18093800Y-8841200D01*
X18043000Y-9044400D02*
X18043000Y-9146000D01*
X17992200Y-9095200D02*
X18093800Y-9095200D01*
X18043000Y-9298400D02*
X18043000Y-9400000D01*
X17992200Y-9349200D02*
X18093800Y-9349200D01*
X18043000Y-9552400D02*
X18043000Y-9654000D01*
X17992200Y-9603200D02*
X18093800Y-9603200D01*
X18043000Y-9806400D02*
X18043000Y-9908000D01*
X17992200Y-9857200D02*
X18093800Y-9857200D01*
X18043000Y-10060400D02*
X18043000Y-10162000D01*
X17992200Y-10111200D02*
X18093800Y-10111200D01*
X18043000Y-10314400D02*
X18043000Y-10416000D01*
X17992200Y-10365200D02*
X18093800Y-10365200D01*
X18043000Y-10568400D02*
X18043000Y-10670000D01*
X17992200Y-10619200D02*
X18093800Y-10619200D01*
X18043000Y-10822400D02*
X18043000Y-10924000D01*
X17992200Y-10873200D02*
X18093800Y-10873200D01*
X18043000Y-11076400D02*
X18043000Y-11178000D01*
X17992200Y-11127200D02*
X18093800Y-11127200D01*
X18043000Y-11330400D02*
X18043000Y-11432000D01*
X17992200Y-11381200D02*
X18093800Y-11381200D01*
X18297000Y-7012400D02*
X18297000Y-7114000D01*
X18246200Y-7063200D02*
X18347800Y-7063200D01*
X18297000Y-7266400D02*
X18297000Y-7368000D01*
X18246200Y-7317200D02*
X18347800Y-7317200D01*
X18297000Y-7520400D02*
X18297000Y-7622000D01*
X18246200Y-7571200D02*
X18347800Y-7571200D01*
X18297000Y-7774400D02*
X18297000Y-7876000D01*
X18246200Y-7825200D02*
X18347800Y-7825200D01*
X18297000Y-8028400D02*
X18297000Y-8130000D01*
X18246200Y-8079200D02*
X18347800Y-8079200D01*
X18297000Y-8282400D02*
X18297000Y-8384000D01*
X18246200Y-8333200D02*
X18347800Y-8333200D01*
X18297000Y-8536400D02*
X18297000Y-8638000D01*
X18246200Y-8587200D02*
X18347800Y-8587200D01*
X18297000Y-8790400D02*
X18297000Y-8892000D01*
X18246200Y-8841200D02*
X18347800Y-8841200D01*
X18297000Y-9044400D02*
X18297000Y-9146000D01*
X18246200Y-9095200D02*
X18347800Y-9095200D01*
X18297000Y-9298400D02*
X18297000Y-9400000D01*
X18246200Y-9349200D02*
X18347800Y-9349200D01*
X18297000Y-9552400D02*
X18297000Y-9654000D01*
X18246200Y-9603200D02*
X18347800Y-9603200D01*
X18297000Y-9806400D02*
X18297000Y-9908000D01*
X18246200Y-9857200D02*
X18347800Y-9857200D01*
X18297000Y-10060400D02*
X18297000Y-10162000D01*
X18246200Y-10111200D02*
X18347800Y-10111200D01*
X18297000Y-10314400D02*
X18297000Y-10416000D01*
X18246200Y-10365200D02*
X18347800Y-10365200D01*
X18297000Y-10568400D02*
X18297000Y-10670000D01*
X18246200Y-10619200D02*
X18347800Y-10619200D01*
X18297000Y-10822400D02*
X18297000Y-10924000D01*
X18246200Y-10873200D02*
X18347800Y-10873200D01*
X18297000Y-11076400D02*
X18297000Y-11178000D01*
X18246200Y-11127200D02*
X18347800Y-11127200D01*
X18297000Y-11330400D02*
X18297000Y-11432000D01*
X18246200Y-11381200D02*
X18347800Y-11381200D01*
X9085711Y-7580711D02*
X9085711Y-7439289D01*
X8944289Y-7439289D01*
X8944289Y-7580711D01*
X9085711Y-7580711D01*
X9085711Y-7944711D02*
X9085711Y-7803289D01*
X8944289Y-7803289D01*
X8944289Y-7944711D01*
X9085711Y-7944711D01*
D12*
X8821428Y-12815714D02*
X8821428Y-12515714D01*
X8892857Y-12515714D01*
X8935714Y-12530000D01*
X8964286Y-12558571D01*
X8978571Y-12587143D01*
X8992857Y-12644286D01*
X8992857Y-12687143D01*
X8978571Y-12744286D01*
X8964286Y-12772857D01*
X8935714Y-12801429D01*
X8892857Y-12815714D01*
X8821428Y-12815714D01*
X9121428Y-12815714D02*
X9121428Y-12615714D01*
X9121428Y-12672857D02*
X9135714Y-12644286D01*
X9150000Y-12630000D01*
X9178571Y-12615714D01*
X9207143Y-12615714D01*
X9307143Y-12815714D02*
X9307143Y-12615714D01*
X9307143Y-12515714D02*
X9292857Y-12530000D01*
X9307143Y-12544286D01*
X9321428Y-12530000D01*
X9307143Y-12515714D01*
X9307143Y-12544286D01*
X9492857Y-12815714D02*
X9464286Y-12801429D01*
X9450000Y-12772857D01*
X9450000Y-12515714D01*
X9650000Y-12815714D02*
X9621428Y-12801429D01*
X9607143Y-12772857D01*
X9607143Y-12515714D01*
X9992857Y-12815714D02*
X9992857Y-12515714D01*
X10092857Y-12730000D01*
X10192857Y-12515714D01*
X10192857Y-12815714D01*
X10464286Y-12815714D02*
X10464286Y-12658571D01*
X10450000Y-12630000D01*
X10421428Y-12615714D01*
X10364286Y-12615714D01*
X10335714Y-12630000D01*
X10464286Y-12801429D02*
X10435714Y-12815714D01*
X10364286Y-12815714D01*
X10335714Y-12801429D01*
X10321428Y-12772857D01*
X10321428Y-12744286D01*
X10335714Y-12715714D01*
X10364286Y-12701429D01*
X10435714Y-12701429D01*
X10464286Y-12687143D01*
X10607143Y-12615714D02*
X10607143Y-12915714D01*
X10607143Y-12630000D02*
X10635714Y-12615714D01*
X10692857Y-12615714D01*
X10721428Y-12630000D01*
X10735714Y-12644286D01*
X10750000Y-12672857D01*
X10750000Y-12758571D01*
X10735714Y-12787143D01*
X10721428Y-12801429D01*
X10692857Y-12815714D01*
X10635714Y-12815714D01*
X10607143Y-12801429D01*
X10878571Y-12787143D02*
X10892857Y-12801429D01*
X10878571Y-12815714D01*
X10864286Y-12801429D01*
X10878571Y-12787143D01*
X10878571Y-12815714D01*
X10878571Y-12630000D02*
X10892857Y-12644286D01*
X10878571Y-12658571D01*
X10864286Y-12644286D01*
X10878571Y-12630000D01*
X10878571Y-12658571D01*
X8495000Y-13290000D02*
X8535000Y-13330000D01*
X8535000Y-13290000D02*
X8495000Y-13330000D01*
X8878571Y-13145714D02*
X8907143Y-13145714D01*
X8935714Y-13160000D01*
X8950000Y-13174286D01*
X8964286Y-13202857D01*
X8978571Y-13260000D01*
X8978571Y-13331429D01*
X8964286Y-13388571D01*
X8950000Y-13417143D01*
X8935714Y-13431429D01*
X8907143Y-13445714D01*
X8878571Y-13445714D01*
X8850000Y-13431429D01*
X8835714Y-13417143D01*
X8821428Y-13388571D01*
X8807143Y-13331429D01*
X8807143Y-13260000D01*
X8821428Y-13202857D01*
X8835714Y-13174286D01*
X8850000Y-13160000D01*
X8878571Y-13145714D01*
X9107143Y-13417143D02*
X9121428Y-13431429D01*
X9107143Y-13445714D01*
X9092857Y-13431429D01*
X9107143Y-13417143D01*
X9107143Y-13445714D01*
X9378571Y-13245714D02*
X9378571Y-13445714D01*
X9307143Y-13131429D02*
X9235714Y-13345714D01*
X9421428Y-13345714D01*
X9592857Y-13145714D02*
X9621428Y-13145714D01*
X9650000Y-13160000D01*
X9664286Y-13174286D01*
X9678571Y-13202857D01*
X9692857Y-13260000D01*
X9692857Y-13331429D01*
X9678571Y-13388571D01*
X9664286Y-13417143D01*
X9650000Y-13431429D01*
X9621428Y-13445714D01*
X9592857Y-13445714D01*
X9564286Y-13431429D01*
X9550000Y-13417143D01*
X9535714Y-13388571D01*
X9521428Y-13331429D01*
X9521428Y-13260000D01*
X9535714Y-13202857D01*
X9550000Y-13174286D01*
X9564286Y-13160000D01*
X9592857Y-13145714D01*
X9821428Y-13445714D02*
X9821428Y-13245714D01*
X9821428Y-13274286D02*
X9835714Y-13260000D01*
X9864286Y-13245714D01*
X9907143Y-13245714D01*
X9935714Y-13260000D01*
X9950000Y-13288571D01*
X9950000Y-13445714D01*
X9950000Y-13288571D02*
X9964286Y-13260000D01*
X9992857Y-13245714D01*
X10035714Y-13245714D01*
X10064286Y-13260000D01*
X10078571Y-13288571D01*
X10078571Y-13445714D01*
X10221428Y-13445714D02*
X10221428Y-13245714D01*
X10221428Y-13274286D02*
X10235714Y-13260000D01*
X10264286Y-13245714D01*
X10307143Y-13245714D01*
X10335714Y-13260000D01*
X10350000Y-13288571D01*
X10350000Y-13445714D01*
X10350000Y-13288571D02*
X10364286Y-13260000D01*
X10392857Y-13245714D01*
X10435714Y-13245714D01*
X10464286Y-13260000D01*
X10478571Y-13288571D01*
X10478571Y-13445714D01*
X11064286Y-13131429D02*
X10807143Y-13517143D01*
X11450000Y-13145714D02*
X11478571Y-13145714D01*
X11507143Y-13160000D01*
X11521428Y-13174286D01*
X11535714Y-13202857D01*
X11550000Y-13260000D01*
X11550000Y-13331429D01*
X11535714Y-13388571D01*
X11521428Y-13417143D01*
X11507143Y-13431429D01*
X11478571Y-13445714D01*
X11450000Y-13445714D01*
X11421428Y-13431429D01*
X11407143Y-13417143D01*
X11392857Y-13388571D01*
X11378571Y-13331429D01*
X11378571Y-13260000D01*
X11392857Y-13202857D01*
X11407143Y-13174286D01*
X11421428Y-13160000D01*
X11450000Y-13145714D01*
X11678571Y-13417143D02*
X11692857Y-13431429D01*
X11678571Y-13445714D01*
X11664286Y-13431429D01*
X11678571Y-13417143D01*
X11678571Y-13445714D01*
X11878571Y-13145714D02*
X11907143Y-13145714D01*
X11935714Y-13160000D01*
X11950000Y-13174286D01*
X11964286Y-13202857D01*
X11978571Y-13260000D01*
X11978571Y-13331429D01*
X11964286Y-13388571D01*
X11950000Y-13417143D01*
X11935714Y-13431429D01*
X11907143Y-13445714D01*
X11878571Y-13445714D01*
X11850000Y-13431429D01*
X11835714Y-13417143D01*
X11821428Y-13388571D01*
X11807143Y-13331429D01*
X11807143Y-13260000D01*
X11821428Y-13202857D01*
X11835714Y-13174286D01*
X11850000Y-13160000D01*
X11878571Y-13145714D01*
X12264286Y-13445714D02*
X12092857Y-13445714D01*
X12178571Y-13445714D02*
X12178571Y-13145714D01*
X12150000Y-13188571D01*
X12121428Y-13217143D01*
X12092857Y-13231429D01*
X12521428Y-13145714D02*
X12464286Y-13145714D01*
X12435714Y-13160000D01*
X12421428Y-13174286D01*
X12392857Y-13217143D01*
X12378571Y-13274286D01*
X12378571Y-13388571D01*
X12392857Y-13417143D01*
X12407143Y-13431429D01*
X12435714Y-13445714D01*
X12492857Y-13445714D01*
X12521428Y-13431429D01*
X12535714Y-13417143D01*
X12550000Y-13388571D01*
X12550000Y-13317143D01*
X12535714Y-13288571D01*
X12521428Y-13274286D01*
X12492857Y-13260000D01*
X12435714Y-13260000D01*
X12407143Y-13274286D01*
X12392857Y-13288571D01*
X12378571Y-13317143D01*
X12664286Y-13145714D02*
X12664286Y-13202857D01*
X12778571Y-13145714D02*
X12778571Y-13202857D01*
X13221428Y-13560000D02*
X13207143Y-13545714D01*
X13178571Y-13502857D01*
X13164286Y-13474286D01*
X13150000Y-13431429D01*
X13135714Y-13360000D01*
X13135714Y-13302857D01*
X13150000Y-13231429D01*
X13164286Y-13188571D01*
X13178571Y-13160000D01*
X13207143Y-13117143D01*
X13221428Y-13102857D01*
X13321428Y-13174286D02*
X13335714Y-13160000D01*
X13364286Y-13145714D01*
X13435714Y-13145714D01*
X13464286Y-13160000D01*
X13478571Y-13174286D01*
X13492857Y-13202857D01*
X13492857Y-13231429D01*
X13478571Y-13274286D01*
X13307143Y-13445714D01*
X13492857Y-13445714D01*
X13778571Y-13445714D02*
X13607143Y-13445714D01*
X13692857Y-13445714D02*
X13692857Y-13145714D01*
X13664286Y-13188571D01*
X13635714Y-13217143D01*
X13607143Y-13231429D01*
X14135714Y-13445714D02*
X14135714Y-13145714D01*
X14264286Y-13445714D02*
X14264286Y-13288571D01*
X14250000Y-13260000D01*
X14221428Y-13245714D01*
X14178571Y-13245714D01*
X14150000Y-13260000D01*
X14135714Y-13274286D01*
X14450000Y-13445714D02*
X14421428Y-13431429D01*
X14407143Y-13417143D01*
X14392857Y-13388571D01*
X14392857Y-13302857D01*
X14407143Y-13274286D01*
X14421428Y-13260000D01*
X14450000Y-13245714D01*
X14492857Y-13245714D01*
X14521428Y-13260000D01*
X14535714Y-13274286D01*
X14550000Y-13302857D01*
X14550000Y-13388571D01*
X14535714Y-13417143D01*
X14521428Y-13431429D01*
X14492857Y-13445714D01*
X14450000Y-13445714D01*
X14721428Y-13445714D02*
X14692857Y-13431429D01*
X14678571Y-13402857D01*
X14678571Y-13145714D01*
X14950000Y-13431429D02*
X14921428Y-13445714D01*
X14864286Y-13445714D01*
X14835714Y-13431429D01*
X14821428Y-13402857D01*
X14821428Y-13288571D01*
X14835714Y-13260000D01*
X14864286Y-13245714D01*
X14921428Y-13245714D01*
X14950000Y-13260000D01*
X14964286Y-13288571D01*
X14964286Y-13317143D01*
X14821428Y-13345714D01*
X15078571Y-13431429D02*
X15107143Y-13445714D01*
X15164286Y-13445714D01*
X15192857Y-13431429D01*
X15207143Y-13402857D01*
X15207143Y-13388571D01*
X15192857Y-13360000D01*
X15164286Y-13345714D01*
X15121428Y-13345714D01*
X15092857Y-13331429D01*
X15078571Y-13302857D01*
X15078571Y-13288571D01*
X15092857Y-13260000D01*
X15121428Y-13245714D01*
X15164286Y-13245714D01*
X15192857Y-13260000D01*
X15307143Y-13560000D02*
X15321428Y-13545714D01*
X15350000Y-13502857D01*
X15364286Y-13474286D01*
X15378571Y-13431429D01*
X15392857Y-13360000D01*
X15392857Y-13302857D01*
X15378571Y-13231429D01*
X15364286Y-13188571D01*
X15350000Y-13160000D01*
X15321428Y-13117143D01*
X15307143Y-13102857D01*
X8535000Y-13706000D02*
G75*
G03X8535000Y-13706000I-50000J0D01*
G01*
X8978571Y-13841714D02*
X8807143Y-13841714D01*
X8892857Y-13841714D02*
X8892857Y-13541714D01*
X8864286Y-13584571D01*
X8835714Y-13613143D01*
X8807143Y-13627429D01*
X9107143Y-13813143D02*
X9121428Y-13827429D01*
X9107143Y-13841714D01*
X9092857Y-13827429D01*
X9107143Y-13813143D01*
X9107143Y-13841714D01*
X9307143Y-13541714D02*
X9335714Y-13541714D01*
X9364286Y-13556000D01*
X9378571Y-13570286D01*
X9392857Y-13598857D01*
X9407143Y-13656000D01*
X9407143Y-13727429D01*
X9392857Y-13784571D01*
X9378571Y-13813143D01*
X9364286Y-13827429D01*
X9335714Y-13841714D01*
X9307143Y-13841714D01*
X9278571Y-13827429D01*
X9264286Y-13813143D01*
X9250000Y-13784571D01*
X9235714Y-13727429D01*
X9235714Y-13656000D01*
X9250000Y-13598857D01*
X9264286Y-13570286D01*
X9278571Y-13556000D01*
X9307143Y-13541714D01*
X9592857Y-13541714D02*
X9621428Y-13541714D01*
X9650000Y-13556000D01*
X9664286Y-13570286D01*
X9678571Y-13598857D01*
X9692857Y-13656000D01*
X9692857Y-13727429D01*
X9678571Y-13784571D01*
X9664286Y-13813143D01*
X9650000Y-13827429D01*
X9621428Y-13841714D01*
X9592857Y-13841714D01*
X9564286Y-13827429D01*
X9550000Y-13813143D01*
X9535714Y-13784571D01*
X9521428Y-13727429D01*
X9521428Y-13656000D01*
X9535714Y-13598857D01*
X9550000Y-13570286D01*
X9564286Y-13556000D01*
X9592857Y-13541714D01*
X9821428Y-13841714D02*
X9821428Y-13641714D01*
X9821428Y-13670286D02*
X9835714Y-13656000D01*
X9864286Y-13641714D01*
X9907143Y-13641714D01*
X9935714Y-13656000D01*
X9950000Y-13684571D01*
X9950000Y-13841714D01*
X9950000Y-13684571D02*
X9964286Y-13656000D01*
X9992857Y-13641714D01*
X10035714Y-13641714D01*
X10064286Y-13656000D01*
X10078571Y-13684571D01*
X10078571Y-13841714D01*
X10221428Y-13841714D02*
X10221428Y-13641714D01*
X10221428Y-13670286D02*
X10235714Y-13656000D01*
X10264286Y-13641714D01*
X10307143Y-13641714D01*
X10335714Y-13656000D01*
X10350000Y-13684571D01*
X10350000Y-13841714D01*
X10350000Y-13684571D02*
X10364286Y-13656000D01*
X10392857Y-13641714D01*
X10435714Y-13641714D01*
X10464286Y-13656000D01*
X10478571Y-13684571D01*
X10478571Y-13841714D01*
X11064286Y-13527429D02*
X10807143Y-13913143D01*
X11450000Y-13541714D02*
X11478571Y-13541714D01*
X11507143Y-13556000D01*
X11521428Y-13570286D01*
X11535714Y-13598857D01*
X11550000Y-13656000D01*
X11550000Y-13727429D01*
X11535714Y-13784571D01*
X11521428Y-13813143D01*
X11507143Y-13827429D01*
X11478571Y-13841714D01*
X11450000Y-13841714D01*
X11421428Y-13827429D01*
X11407143Y-13813143D01*
X11392857Y-13784571D01*
X11378571Y-13727429D01*
X11378571Y-13656000D01*
X11392857Y-13598857D01*
X11407143Y-13570286D01*
X11421428Y-13556000D01*
X11450000Y-13541714D01*
X11678571Y-13813143D02*
X11692857Y-13827429D01*
X11678571Y-13841714D01*
X11664286Y-13827429D01*
X11678571Y-13813143D01*
X11678571Y-13841714D01*
X11878571Y-13541714D02*
X11907143Y-13541714D01*
X11935714Y-13556000D01*
X11950000Y-13570286D01*
X11964286Y-13598857D01*
X11978571Y-13656000D01*
X11978571Y-13727429D01*
X11964286Y-13784571D01*
X11950000Y-13813143D01*
X11935714Y-13827429D01*
X11907143Y-13841714D01*
X11878571Y-13841714D01*
X11850000Y-13827429D01*
X11835714Y-13813143D01*
X11821428Y-13784571D01*
X11807143Y-13727429D01*
X11807143Y-13656000D01*
X11821428Y-13598857D01*
X11835714Y-13570286D01*
X11850000Y-13556000D01*
X11878571Y-13541714D01*
X12078571Y-13541714D02*
X12264286Y-13541714D01*
X12164286Y-13656000D01*
X12207143Y-13656000D01*
X12235714Y-13670286D01*
X12250000Y-13684571D01*
X12264286Y-13713143D01*
X12264286Y-13784571D01*
X12250000Y-13813143D01*
X12235714Y-13827429D01*
X12207143Y-13841714D01*
X12121428Y-13841714D01*
X12092857Y-13827429D01*
X12078571Y-13813143D01*
X12407143Y-13841714D02*
X12464286Y-13841714D01*
X12492857Y-13827429D01*
X12507143Y-13813143D01*
X12535714Y-13770286D01*
X12550000Y-13713143D01*
X12550000Y-13598857D01*
X12535714Y-13570286D01*
X12521428Y-13556000D01*
X12492857Y-13541714D01*
X12435714Y-13541714D01*
X12407143Y-13556000D01*
X12392857Y-13570286D01*
X12378571Y-13598857D01*
X12378571Y-13670286D01*
X12392857Y-13698857D01*
X12407143Y-13713143D01*
X12435714Y-13727429D01*
X12492857Y-13727429D01*
X12521428Y-13713143D01*
X12535714Y-13698857D01*
X12550000Y-13670286D01*
X12664286Y-13541714D02*
X12664286Y-13598857D01*
X12778571Y-13541714D02*
X12778571Y-13598857D01*
X13221428Y-13956000D02*
X13207143Y-13941714D01*
X13178571Y-13898857D01*
X13164286Y-13870286D01*
X13150000Y-13827429D01*
X13135714Y-13756000D01*
X13135714Y-13698857D01*
X13150000Y-13627429D01*
X13164286Y-13584571D01*
X13178571Y-13556000D01*
X13207143Y-13513143D01*
X13221428Y-13498857D01*
X13350000Y-13841714D02*
X13407143Y-13841714D01*
X13435714Y-13827429D01*
X13450000Y-13813143D01*
X13478571Y-13770286D01*
X13492857Y-13713143D01*
X13492857Y-13598857D01*
X13478571Y-13570286D01*
X13464286Y-13556000D01*
X13435714Y-13541714D01*
X13378571Y-13541714D01*
X13350000Y-13556000D01*
X13335714Y-13570286D01*
X13321428Y-13598857D01*
X13321428Y-13670286D01*
X13335714Y-13698857D01*
X13350000Y-13713143D01*
X13378571Y-13727429D01*
X13435714Y-13727429D01*
X13464286Y-13713143D01*
X13478571Y-13698857D01*
X13492857Y-13670286D01*
X13635714Y-13841714D02*
X13692857Y-13841714D01*
X13721428Y-13827429D01*
X13735714Y-13813143D01*
X13764286Y-13770286D01*
X13778571Y-13713143D01*
X13778571Y-13598857D01*
X13764286Y-13570286D01*
X13750000Y-13556000D01*
X13721428Y-13541714D01*
X13664286Y-13541714D01*
X13635714Y-13556000D01*
X13621428Y-13570286D01*
X13607143Y-13598857D01*
X13607143Y-13670286D01*
X13621428Y-13698857D01*
X13635714Y-13713143D01*
X13664286Y-13727429D01*
X13721428Y-13727429D01*
X13750000Y-13713143D01*
X13764286Y-13698857D01*
X13778571Y-13670286D01*
X14135714Y-13841714D02*
X14135714Y-13541714D01*
X14264286Y-13841714D02*
X14264286Y-13684571D01*
X14250000Y-13656000D01*
X14221428Y-13641714D01*
X14178571Y-13641714D01*
X14150000Y-13656000D01*
X14135714Y-13670286D01*
X14450000Y-13841714D02*
X14421428Y-13827429D01*
X14407143Y-13813143D01*
X14392857Y-13784571D01*
X14392857Y-13698857D01*
X14407143Y-13670286D01*
X14421428Y-13656000D01*
X14450000Y-13641714D01*
X14492857Y-13641714D01*
X14521428Y-13656000D01*
X14535714Y-13670286D01*
X14550000Y-13698857D01*
X14550000Y-13784571D01*
X14535714Y-13813143D01*
X14521428Y-13827429D01*
X14492857Y-13841714D01*
X14450000Y-13841714D01*
X14721428Y-13841714D02*
X14692857Y-13827429D01*
X14678571Y-13798857D01*
X14678571Y-13541714D01*
X14950000Y-13827429D02*
X14921428Y-13841714D01*
X14864286Y-13841714D01*
X14835714Y-13827429D01*
X14821428Y-13798857D01*
X14821428Y-13684571D01*
X14835714Y-13656000D01*
X14864286Y-13641714D01*
X14921428Y-13641714D01*
X14950000Y-13656000D01*
X14964286Y-13684571D01*
X14964286Y-13713143D01*
X14821428Y-13741714D01*
X15078571Y-13827429D02*
X15107143Y-13841714D01*
X15164286Y-13841714D01*
X15192857Y-13827429D01*
X15207143Y-13798857D01*
X15207143Y-13784571D01*
X15192857Y-13756000D01*
X15164286Y-13741714D01*
X15121428Y-13741714D01*
X15092857Y-13727429D01*
X15078571Y-13698857D01*
X15078571Y-13684571D01*
X15092857Y-13656000D01*
X15121428Y-13641714D01*
X15164286Y-13641714D01*
X15192857Y-13656000D01*
X15307143Y-13956000D02*
X15321428Y-13941714D01*
X15350000Y-13898857D01*
X15364286Y-13870286D01*
X15378571Y-13827429D01*
X15392857Y-13756000D01*
X15392857Y-13698857D01*
X15378571Y-13627429D01*
X15364286Y-13584571D01*
X15350000Y-13556000D01*
X15321428Y-13513143D01*
X15307143Y-13498857D01*
X8484200Y-14051200D02*
X8484200Y-14152800D01*
X8433400Y-14102000D02*
X8535000Y-14102000D01*
X8978571Y-14237714D02*
X8807143Y-14237714D01*
X8892857Y-14237714D02*
X8892857Y-13937714D01*
X8864286Y-13980571D01*
X8835714Y-14009143D01*
X8807143Y-14023429D01*
X9107143Y-14209143D02*
X9121428Y-14223429D01*
X9107143Y-14237714D01*
X9092857Y-14223429D01*
X9107143Y-14209143D01*
X9107143Y-14237714D01*
X9307143Y-13937714D02*
X9335714Y-13937714D01*
X9364286Y-13952000D01*
X9378571Y-13966286D01*
X9392857Y-13994857D01*
X9407143Y-14052000D01*
X9407143Y-14123429D01*
X9392857Y-14180571D01*
X9378571Y-14209143D01*
X9364286Y-14223429D01*
X9335714Y-14237714D01*
X9307143Y-14237714D01*
X9278571Y-14223429D01*
X9264286Y-14209143D01*
X9250000Y-14180571D01*
X9235714Y-14123429D01*
X9235714Y-14052000D01*
X9250000Y-13994857D01*
X9264286Y-13966286D01*
X9278571Y-13952000D01*
X9307143Y-13937714D01*
X9521428Y-13966286D02*
X9535714Y-13952000D01*
X9564286Y-13937714D01*
X9635714Y-13937714D01*
X9664286Y-13952000D01*
X9678571Y-13966286D01*
X9692857Y-13994857D01*
X9692857Y-14023429D01*
X9678571Y-14066286D01*
X9507143Y-14237714D01*
X9692857Y-14237714D01*
X9821428Y-14237714D02*
X9821428Y-14037714D01*
X9821428Y-14066286D02*
X9835714Y-14052000D01*
X9864286Y-14037714D01*
X9907143Y-14037714D01*
X9935714Y-14052000D01*
X9950000Y-14080571D01*
X9950000Y-14237714D01*
X9950000Y-14080571D02*
X9964286Y-14052000D01*
X9992857Y-14037714D01*
X10035714Y-14037714D01*
X10064286Y-14052000D01*
X10078571Y-14080571D01*
X10078571Y-14237714D01*
X10221428Y-14237714D02*
X10221428Y-14037714D01*
X10221428Y-14066286D02*
X10235714Y-14052000D01*
X10264286Y-14037714D01*
X10307143Y-14037714D01*
X10335714Y-14052000D01*
X10350000Y-14080571D01*
X10350000Y-14237714D01*
X10350000Y-14080571D02*
X10364286Y-14052000D01*
X10392857Y-14037714D01*
X10435714Y-14037714D01*
X10464286Y-14052000D01*
X10478571Y-14080571D01*
X10478571Y-14237714D01*
X11064286Y-13923429D02*
X10807143Y-14309143D01*
X11450000Y-13937714D02*
X11478571Y-13937714D01*
X11507143Y-13952000D01*
X11521428Y-13966286D01*
X11535714Y-13994857D01*
X11550000Y-14052000D01*
X11550000Y-14123429D01*
X11535714Y-14180571D01*
X11521428Y-14209143D01*
X11507143Y-14223429D01*
X11478571Y-14237714D01*
X11450000Y-14237714D01*
X11421428Y-14223429D01*
X11407143Y-14209143D01*
X11392857Y-14180571D01*
X11378571Y-14123429D01*
X11378571Y-14052000D01*
X11392857Y-13994857D01*
X11407143Y-13966286D01*
X11421428Y-13952000D01*
X11450000Y-13937714D01*
X11678571Y-14209143D02*
X11692857Y-14223429D01*
X11678571Y-14237714D01*
X11664286Y-14223429D01*
X11678571Y-14209143D01*
X11678571Y-14237714D01*
X11878571Y-13937714D02*
X11907143Y-13937714D01*
X11935714Y-13952000D01*
X11950000Y-13966286D01*
X11964286Y-13994857D01*
X11978571Y-14052000D01*
X11978571Y-14123429D01*
X11964286Y-14180571D01*
X11950000Y-14209143D01*
X11935714Y-14223429D01*
X11907143Y-14237714D01*
X11878571Y-14237714D01*
X11850000Y-14223429D01*
X11835714Y-14209143D01*
X11821428Y-14180571D01*
X11807143Y-14123429D01*
X11807143Y-14052000D01*
X11821428Y-13994857D01*
X11835714Y-13966286D01*
X11850000Y-13952000D01*
X11878571Y-13937714D01*
X12235714Y-14037714D02*
X12235714Y-14237714D01*
X12164286Y-13923429D02*
X12092857Y-14137714D01*
X12278571Y-14137714D01*
X12450000Y-13937714D02*
X12478571Y-13937714D01*
X12507143Y-13952000D01*
X12521428Y-13966286D01*
X12535714Y-13994857D01*
X12550000Y-14052000D01*
X12550000Y-14123429D01*
X12535714Y-14180571D01*
X12521428Y-14209143D01*
X12507143Y-14223429D01*
X12478571Y-14237714D01*
X12450000Y-14237714D01*
X12421428Y-14223429D01*
X12407143Y-14209143D01*
X12392857Y-14180571D01*
X12378571Y-14123429D01*
X12378571Y-14052000D01*
X12392857Y-13994857D01*
X12407143Y-13966286D01*
X12421428Y-13952000D01*
X12450000Y-13937714D01*
X12664286Y-13937714D02*
X12664286Y-13994857D01*
X12778571Y-13937714D02*
X12778571Y-13994857D01*
X13221428Y-14352000D02*
X13207143Y-14337714D01*
X13178571Y-14294857D01*
X13164286Y-14266286D01*
X13150000Y-14223429D01*
X13135714Y-14152000D01*
X13135714Y-14094857D01*
X13150000Y-14023429D01*
X13164286Y-13980571D01*
X13178571Y-13952000D01*
X13207143Y-13909143D01*
X13221428Y-13894857D01*
X13378571Y-14066286D02*
X13350000Y-14052000D01*
X13335714Y-14037714D01*
X13321428Y-14009143D01*
X13321428Y-13994857D01*
X13335714Y-13966286D01*
X13350000Y-13952000D01*
X13378571Y-13937714D01*
X13435714Y-13937714D01*
X13464286Y-13952000D01*
X13478571Y-13966286D01*
X13492857Y-13994857D01*
X13492857Y-14009143D01*
X13478571Y-14037714D01*
X13464286Y-14052000D01*
X13435714Y-14066286D01*
X13378571Y-14066286D01*
X13350000Y-14080571D01*
X13335714Y-14094857D01*
X13321428Y-14123429D01*
X13321428Y-14180571D01*
X13335714Y-14209143D01*
X13350000Y-14223429D01*
X13378571Y-14237714D01*
X13435714Y-14237714D01*
X13464286Y-14223429D01*
X13478571Y-14209143D01*
X13492857Y-14180571D01*
X13492857Y-14123429D01*
X13478571Y-14094857D01*
X13464286Y-14080571D01*
X13435714Y-14066286D01*
X13592857Y-13937714D02*
X13792857Y-13937714D01*
X13664286Y-14237714D01*
X14135714Y-14237714D02*
X14135714Y-13937714D01*
X14264286Y-14237714D02*
X14264286Y-14080571D01*
X14250000Y-14052000D01*
X14221428Y-14037714D01*
X14178571Y-14037714D01*
X14150000Y-14052000D01*
X14135714Y-14066286D01*
X14450000Y-14237714D02*
X14421428Y-14223429D01*
X14407143Y-14209143D01*
X14392857Y-14180571D01*
X14392857Y-14094857D01*
X14407143Y-14066286D01*
X14421428Y-14052000D01*
X14450000Y-14037714D01*
X14492857Y-14037714D01*
X14521428Y-14052000D01*
X14535714Y-14066286D01*
X14550000Y-14094857D01*
X14550000Y-14180571D01*
X14535714Y-14209143D01*
X14521428Y-14223429D01*
X14492857Y-14237714D01*
X14450000Y-14237714D01*
X14721428Y-14237714D02*
X14692857Y-14223429D01*
X14678571Y-14194857D01*
X14678571Y-13937714D01*
X14950000Y-14223429D02*
X14921428Y-14237714D01*
X14864286Y-14237714D01*
X14835714Y-14223429D01*
X14821428Y-14194857D01*
X14821428Y-14080571D01*
X14835714Y-14052000D01*
X14864286Y-14037714D01*
X14921428Y-14037714D01*
X14950000Y-14052000D01*
X14964286Y-14080571D01*
X14964286Y-14109143D01*
X14821428Y-14137714D01*
X15078571Y-14223429D02*
X15107143Y-14237714D01*
X15164286Y-14237714D01*
X15192857Y-14223429D01*
X15207143Y-14194857D01*
X15207143Y-14180571D01*
X15192857Y-14152000D01*
X15164286Y-14137714D01*
X15121428Y-14137714D01*
X15092857Y-14123429D01*
X15078571Y-14094857D01*
X15078571Y-14080571D01*
X15092857Y-14052000D01*
X15121428Y-14037714D01*
X15164286Y-14037714D01*
X15192857Y-14052000D01*
X15307143Y-14352000D02*
X15321428Y-14337714D01*
X15350000Y-14294857D01*
X15364286Y-14266286D01*
X15378571Y-14223429D01*
X15392857Y-14152000D01*
X15392857Y-14094857D01*
X15378571Y-14023429D01*
X15364286Y-13980571D01*
X15350000Y-13952000D01*
X15321428Y-13909143D01*
X15307143Y-13894857D01*
X8505711Y-14568711D02*
X8505711Y-14427289D01*
X8364288Y-14427289D01*
X8364288Y-14568711D01*
X8505711Y-14568711D01*
X8807143Y-14362286D02*
X8821428Y-14348000D01*
X8850000Y-14333714D01*
X8921428Y-14333714D01*
X8950000Y-14348000D01*
X8964286Y-14362286D01*
X8978571Y-14390857D01*
X8978571Y-14419429D01*
X8964286Y-14462286D01*
X8792857Y-14633714D01*
X8978571Y-14633714D01*
X9107143Y-14605143D02*
X9121428Y-14619429D01*
X9107143Y-14633714D01*
X9092857Y-14619429D01*
X9107143Y-14605143D01*
X9107143Y-14633714D01*
X9307143Y-14333714D02*
X9335714Y-14333714D01*
X9364286Y-14348000D01*
X9378571Y-14362286D01*
X9392857Y-14390857D01*
X9407143Y-14448000D01*
X9407143Y-14519429D01*
X9392857Y-14576571D01*
X9378571Y-14605143D01*
X9364286Y-14619429D01*
X9335714Y-14633714D01*
X9307143Y-14633714D01*
X9278571Y-14619429D01*
X9264286Y-14605143D01*
X9250000Y-14576571D01*
X9235714Y-14519429D01*
X9235714Y-14448000D01*
X9250000Y-14390857D01*
X9264286Y-14362286D01*
X9278571Y-14348000D01*
X9307143Y-14333714D01*
X9592857Y-14333714D02*
X9621428Y-14333714D01*
X9650000Y-14348000D01*
X9664286Y-14362286D01*
X9678571Y-14390857D01*
X9692857Y-14448000D01*
X9692857Y-14519429D01*
X9678571Y-14576571D01*
X9664286Y-14605143D01*
X9650000Y-14619429D01*
X9621428Y-14633714D01*
X9592857Y-14633714D01*
X9564286Y-14619429D01*
X9550000Y-14605143D01*
X9535714Y-14576571D01*
X9521428Y-14519429D01*
X9521428Y-14448000D01*
X9535714Y-14390857D01*
X9550000Y-14362286D01*
X9564286Y-14348000D01*
X9592857Y-14333714D01*
X9821428Y-14633714D02*
X9821428Y-14433714D01*
X9821428Y-14462286D02*
X9835714Y-14448000D01*
X9864286Y-14433714D01*
X9907143Y-14433714D01*
X9935714Y-14448000D01*
X9950000Y-14476571D01*
X9950000Y-14633714D01*
X9950000Y-14476571D02*
X9964286Y-14448000D01*
X9992857Y-14433714D01*
X10035714Y-14433714D01*
X10064286Y-14448000D01*
X10078571Y-14476571D01*
X10078571Y-14633714D01*
X10221428Y-14633714D02*
X10221428Y-14433714D01*
X10221428Y-14462286D02*
X10235714Y-14448000D01*
X10264286Y-14433714D01*
X10307143Y-14433714D01*
X10335714Y-14448000D01*
X10350000Y-14476571D01*
X10350000Y-14633714D01*
X10350000Y-14476571D02*
X10364286Y-14448000D01*
X10392857Y-14433714D01*
X10435714Y-14433714D01*
X10464286Y-14448000D01*
X10478571Y-14476571D01*
X10478571Y-14633714D01*
X11064286Y-14319429D02*
X10807143Y-14705143D01*
X11450000Y-14333714D02*
X11478571Y-14333714D01*
X11507143Y-14348000D01*
X11521428Y-14362286D01*
X11535714Y-14390857D01*
X11550000Y-14448000D01*
X11550000Y-14519429D01*
X11535714Y-14576571D01*
X11521428Y-14605143D01*
X11507143Y-14619429D01*
X11478571Y-14633714D01*
X11450000Y-14633714D01*
X11421428Y-14619429D01*
X11407143Y-14605143D01*
X11392857Y-14576571D01*
X11378571Y-14519429D01*
X11378571Y-14448000D01*
X11392857Y-14390857D01*
X11407143Y-14362286D01*
X11421428Y-14348000D01*
X11450000Y-14333714D01*
X11678571Y-14605143D02*
X11692857Y-14619429D01*
X11678571Y-14633714D01*
X11664286Y-14619429D01*
X11678571Y-14605143D01*
X11678571Y-14633714D01*
X11878571Y-14333714D02*
X11907143Y-14333714D01*
X11935714Y-14348000D01*
X11950000Y-14362286D01*
X11964286Y-14390857D01*
X11978571Y-14448000D01*
X11978571Y-14519429D01*
X11964286Y-14576571D01*
X11950000Y-14605143D01*
X11935714Y-14619429D01*
X11907143Y-14633714D01*
X11878571Y-14633714D01*
X11850000Y-14619429D01*
X11835714Y-14605143D01*
X11821428Y-14576571D01*
X11807143Y-14519429D01*
X11807143Y-14448000D01*
X11821428Y-14390857D01*
X11835714Y-14362286D01*
X11850000Y-14348000D01*
X11878571Y-14333714D01*
X12078571Y-14333714D02*
X12278571Y-14333714D01*
X12150000Y-14633714D01*
X12407143Y-14633714D02*
X12464286Y-14633714D01*
X12492857Y-14619429D01*
X12507143Y-14605143D01*
X12535714Y-14562286D01*
X12550000Y-14505143D01*
X12550000Y-14390857D01*
X12535714Y-14362286D01*
X12521428Y-14348000D01*
X12492857Y-14333714D01*
X12435714Y-14333714D01*
X12407143Y-14348000D01*
X12392857Y-14362286D01*
X12378571Y-14390857D01*
X12378571Y-14462286D01*
X12392857Y-14490857D01*
X12407143Y-14505143D01*
X12435714Y-14519429D01*
X12492857Y-14519429D01*
X12521428Y-14505143D01*
X12535714Y-14490857D01*
X12550000Y-14462286D01*
X12664286Y-14333714D02*
X12664286Y-14390857D01*
X12778571Y-14333714D02*
X12778571Y-14390857D01*
X13221428Y-14748000D02*
X13207143Y-14733714D01*
X13178571Y-14690857D01*
X13164286Y-14662286D01*
X13150000Y-14619429D01*
X13135714Y-14548000D01*
X13135714Y-14490857D01*
X13150000Y-14419429D01*
X13164286Y-14376571D01*
X13178571Y-14348000D01*
X13207143Y-14305143D01*
X13221428Y-14290857D01*
X13321428Y-14362286D02*
X13335714Y-14348000D01*
X13364286Y-14333714D01*
X13435714Y-14333714D01*
X13464286Y-14348000D01*
X13478571Y-14362286D01*
X13492857Y-14390857D01*
X13492857Y-14419429D01*
X13478571Y-14462286D01*
X13307143Y-14633714D01*
X13492857Y-14633714D01*
X13850000Y-14633714D02*
X13850000Y-14333714D01*
X13978571Y-14633714D02*
X13978571Y-14476571D01*
X13964286Y-14448000D01*
X13935714Y-14433714D01*
X13892857Y-14433714D01*
X13864286Y-14448000D01*
X13850000Y-14462286D01*
X14164286Y-14633714D02*
X14135714Y-14619429D01*
X14121428Y-14605143D01*
X14107143Y-14576571D01*
X14107143Y-14490857D01*
X14121428Y-14462286D01*
X14135714Y-14448000D01*
X14164286Y-14433714D01*
X14207143Y-14433714D01*
X14235714Y-14448000D01*
X14250000Y-14462286D01*
X14264286Y-14490857D01*
X14264286Y-14576571D01*
X14250000Y-14605143D01*
X14235714Y-14619429D01*
X14207143Y-14633714D01*
X14164286Y-14633714D01*
X14435714Y-14633714D02*
X14407143Y-14619429D01*
X14392857Y-14590857D01*
X14392857Y-14333714D01*
X14664286Y-14619429D02*
X14635714Y-14633714D01*
X14578571Y-14633714D01*
X14550000Y-14619429D01*
X14535714Y-14590857D01*
X14535714Y-14476571D01*
X14550000Y-14448000D01*
X14578571Y-14433714D01*
X14635714Y-14433714D01*
X14664286Y-14448000D01*
X14678571Y-14476571D01*
X14678571Y-14505143D01*
X14535714Y-14533714D01*
X14792857Y-14619429D02*
X14821428Y-14633714D01*
X14878571Y-14633714D01*
X14907143Y-14619429D01*
X14921428Y-14590857D01*
X14921428Y-14576571D01*
X14907143Y-14548000D01*
X14878571Y-14533714D01*
X14835714Y-14533714D01*
X14807143Y-14519429D01*
X14792857Y-14490857D01*
X14792857Y-14476571D01*
X14807143Y-14448000D01*
X14835714Y-14433714D01*
X14878571Y-14433714D01*
X14907143Y-14448000D01*
X15021428Y-14748000D02*
X15035714Y-14733714D01*
X15064286Y-14690857D01*
X15078571Y-14662286D01*
X15092857Y-14619429D01*
X15107143Y-14548000D01*
X15107143Y-14490857D01*
X15092857Y-14419429D01*
X15078571Y-14376571D01*
X15064286Y-14348000D01*
X15035714Y-14305143D01*
X15021428Y-14290857D01*
M02*
